<svg xmlns="http://www.w3.org/2000/svg" xmlns:xlink="http://www.w3.org/1999/xlink" width="250" zoomAndPan="magnify" viewBox="0 0 187.5 74.999997" height="100" preserveAspectRatio="xMidYMid meet" version="1.0"><defs><g/></defs><g fill="#2f5597" fill-opacity="1"><g transform="translate(3.237116, 49.932275)"><g><path d="M 25.015625 -0.398438 L 25.015625 -27.050781 L 18.101562 -27.050781 C 14.917969 -27.050781 12.214844 -25.992188 9.996094 -23.871094 C 7.773438 -21.75 6.664062 -19.113281 6.664062 -15.964844 C 6.664062 -12.8125 7.757812 -10.1875 9.945312 -8.082031 C 12.132812 -5.976562 14.800781 -4.921875 17.953125 -4.921875 C 19.84375 -4.921875 21.582031 -5.371094 23.171875 -6.265625 L 23.171875 -1.242188 C 21.085938 -0.546875 19.261719 -0.199219 17.703125 -0.199219 C 13.226562 -0.199219 9.40625 -1.714844 6.242188 -4.75 C 3.074219 -7.78125 1.492188 -11.519531 1.492188 -15.964844 C 1.492188 -18.484375 2.070312 -20.886719 3.230469 -23.171875 C 4.625 -25.824219 6.582031 -27.882812 9.101562 -29.339844 C 11.621094 -30.800781 14.40625 -31.527344 17.453125 -31.527344 L 29.835938 -31.527344 L 29.835938 -0.398438 Z M 25.015625 -0.398438 "/></g></g></g><g fill="#2f5597" fill-opacity="1"><g transform="translate(35.213146, 49.932275)"><g><path d="M 14.074219 -27.351562 C 11.519531 -27.351562 9.40625 -26.464844 7.734375 -24.691406 C 6.058594 -22.917969 5.222656 -20.71875 5.222656 -18.101562 L 5.222656 -0.398438 L 0.0976562 -0.398438 L 0.0976562 -31.527344 L 5.222656 -31.527344 L 5.222656 -28.296875 C 6.878906 -29.589844 8.320312 -30.484375 9.546875 -30.980469 C 11.039062 -31.644531 12.699219 -31.976562 14.519531 -31.976562 C 18.730469 -31.976562 22.179688 -30.316406 24.863281 -27.003906 L 20.488281 -24.617188 C 18.796875 -26.4375 16.660156 -27.351562 14.074219 -27.351562 Z M 14.074219 -27.351562 "/></g></g></g><g fill="#2f5597" fill-opacity="1"><g transform="translate(58.586022, 49.932275)"><g><path d="M 29.242188 -0.398438 L 24.316406 -0.398438 L 24.316406 -18.101562 C 24.316406 -20.6875 23.488281 -22.875 21.832031 -24.664062 C 20.171875 -26.457031 18.050781 -27.351562 15.464844 -27.351562 C 12.878906 -27.351562 10.757812 -26.464844 9.101562 -24.691406 C 7.441406 -22.917969 6.613281 -20.71875 6.613281 -18.101562 L 6.613281 -0.398438 L 1.492188 -0.398438 L 1.492188 -31.527344 L 6.613281 -31.527344 L 6.613281 -28.296875 C 8.273438 -29.589844 9.714844 -30.484375 10.941406 -30.980469 C 12.433594 -31.644531 14.089844 -31.976562 15.914062 -31.976562 C 18.234375 -31.976562 20.371094 -31.421875 22.328125 -30.308594 C 24.285156 -29.199219 25.859375 -27.714844 27.050781 -25.859375 C 28.410156 -27.683594 30.144531 -29.15625 32.25 -30.285156 C 34.355469 -31.414062 36.5 -31.976562 38.6875 -31.976562 C 42.433594 -31.976562 45.601562 -30.640625 48.1875 -27.972656 C 50.773438 -25.304688 52.066406 -22.097656 52.066406 -18.351562 L 52.066406 -0.398438 L 47.09375 -0.398438 L 47.09375 -18.101562 C 47.09375 -20.6875 46.265625 -22.875 44.605469 -24.664062 C 42.949219 -26.457031 40.84375 -27.351562 38.292969 -27.351562 C 35.707031 -27.351562 33.550781 -26.472656 31.828125 -24.714844 C 30.101562 -22.957031 29.242188 -20.804688 29.242188 -18.25 Z M 29.242188 -0.398438 "/></g></g></g><g fill="#2f5597" fill-opacity="1"><g transform="translate(112.393286, 49.932275)"><g><path d="M 29.140625 -18.351562 C 28.214844 -24.351562 24.464844 -27.351562 17.902344 -27.351562 C 14.621094 -27.351562 11.792969 -26.242188 9.421875 -24.019531 C 7.054688 -21.796875 5.882812 -19.097656 5.917969 -15.914062 C 5.949219 -12.796875 7.070312 -10.144531 9.273438 -7.957031 C 11.480469 -5.769531 14.140625 -4.675781 17.257812 -4.675781 C 19.910156 -4.675781 22.429688 -5.171875 24.816406 -6.167969 C 27.601562 -7.359375 29.375 -8.96875 30.136719 -10.988281 L 33.46875 -7.757812 C 32.109375 -5.203125 29.9375 -3.25 26.953125 -1.890625 C 24.234375 -0.597656 21.21875 0.0507812 17.902344 0.0507812 C 13.261719 0.0507812 9.292969 -1.484375 5.992188 -4.550781 C 2.695312 -7.617188 1.042969 -11.40625 1.042969 -15.914062 C 1.042969 -20.390625 2.703125 -24.183594 6.015625 -27.300781 C 9.332031 -30.417969 13.292969 -31.976562 17.902344 -31.976562 C 22.875 -31.941406 26.769531 -30.816406 29.589844 -28.59375 C 32.9375 -25.976562 34.613281 -21.914062 34.613281 -16.410156 C 34.613281 -15.746094 34.59375 -15.050781 34.5625 -14.320312 L 10.691406 -14.320312 L 10.691406 -18.300781 L 29.089844 -18.300781 Z M 29.140625 -18.351562 "/></g></g></g><g fill="#2f5597" fill-opacity="1"><g transform="translate(148.248207, 49.932275)"><g><path d="M 1.492188 -39.734375 L 6.613281 -39.734375 L 6.613281 -0.398438 L 1.492188 -0.398438 Z M 1.492188 -39.734375 "/></g></g></g><g fill="#2f5597" fill-opacity="1"><g transform="translate(156.80166, 49.932275)"><g><path d="M 0.894531 -31.480469 L 6.863281 -31.480469 L 13.574219 -21.183594 L 20.289062 -31.480469 L 26.308594 -31.480469 L 16.160156 -15.964844 L 16.160156 -0.398438 L 11.039062 -0.398438 L 11.039062 -15.964844 Z M 0.894531 -31.480469 "/></g></g></g></svg>