<?xml version="1.0" encoding="utf-8"?>
<!-- Svg Vector Icons : http://www.onlinewebfonts.com/icon -->
<!DOCTYPE svg PUBLIC "-//W3C//DTD SVG 1.1//EN" "http://www.w3.org/Graphics/SVG/1.1/DTD/svg11.dtd">
<svg version="1.1" xmlns="http://www.w3.org/2000/svg" xmlns:xlink="http://www.w3.org/1999/xlink" x="0px" y="0px" viewBox="0 0 256 256" enable-background="new 0 0 256 256" xml:space="preserve">
<metadata> Svg Vector Icons : http://www.onlinewebfonts.com/icon </metadata>
<g><g><g><path fill="#000000" d="M114.1,64.2c-1,0.1-1.6,0.6-2,1.4c-0.4,0.8-0.8,1.3-1.1,1.3c-0.4,0.1-0.7-0.1-0.7-0.7c0-1.1,0.8-1.7,2.5-2H114.1z M125.6,66c-0.4,0.1-0.9-0.2-1.5-0.9c-0.6-0.7-1.4-0.9-2.3-0.6c2.1-1,3.5-0.9,4.2,0.3C126.2,65.3,126.1,65.7,125.6,66z M79.4,122.2c-0.4-0.1-0.6,0-0.8,0.4c-0.2,0.4-0.4,0.9-0.6,1.6c-0.2,0.7-0.5,1.3-0.7,1.8c-0.3,0.4-0.7,1-1.3,1.7c-0.6,0.9-0.7,1.4-0.1,1.6c0.4,0.1,0.9-0.2,1.6-0.9s1.3-1.5,1.6-2.4c0.1-0.3,0.2-0.6,0.3-0.9c0.1-0.4,0.2-0.6,0.3-0.8s0.1-0.4,0.2-0.6c0-0.2,0.1-0.4,0.1-0.5v-0.4c0,0,0-0.1-0.1-0.3C79.7,122.3,79.6,122.2,79.4,122.2z M191.9,169.5c0-1.6-2.4-3.4-7.2-5.5c0.4-1.3,0.7-2.5,1-3.6c0.3-1.1,0.5-2.2,0.7-3.4s0.3-2.1,0.4-2.8c0.1-0.7,0.1-1.7,0.1-3c-0.1-1.3-0.1-2.1-0.1-2.6c0-0.4-0.1-1.4-0.5-2.9s-0.5-2.4-0.5-2.7c0-0.3-0.3-1.4-0.7-3.3c-0.4-1.9-0.6-3.1-0.7-3.5c-0.9-4.2-2.9-8.7-6.2-13.6c-3.3-4.8-6.4-8.1-9.5-9.9c2.1,1.8,4.6,5.4,7.5,10.9c7.6,14.2,10,26.4,7.1,36.6c-1,3.5-3.2,5.3-6.6,5.5c-2.7,0.4-4.4-0.5-5.1-2.4c-0.6-2-1-5.6-1.1-11c0-5.3-0.6-10-1.5-14.1c-0.8-3.4-1.6-6.5-2.6-9.1c-0.9-2.6-1.8-4.6-2.6-6c-0.8-1.4-1.5-2.4-2-3.2c-0.6-0.8-1.1-1.4-1.7-2c-0.6-0.5-0.9-0.8-1-0.9c-1.2-5.4-2.6-10-4.1-13.6c-1.5-3.6-2.8-6.1-3.9-7.4c-1.1-1.3-2.1-2.8-3.1-4.3c-1-1.6-1.6-3.3-2-5.3c-0.4-1.9-0.1-4.2,0.8-7.1c0.9-2.8,1.1-5,0.6-6.5s-2.4-2.6-5.9-3.3c-1.3-0.3-3.3-1.1-5.9-2.4c-2.6-1.3-4.1-2-4.7-2.1c-0.7-0.1-1.2-1.2-1.4-3.4s0.1-4.4,1.1-6.7c1-2.3,2.6-3.5,4.7-3.6c3.3-0.3,5.5,1.1,6.7,3.9c1.2,2.9,1.4,5.4,0.5,7.6c-1,1.7-1.1,2.8-0.3,3.5c0.8,0.7,2.1,0.7,3.9,0.1c1.1-0.4,1.7-1.9,1.7-4.7v-4.9c-0.4-2.6-1-4.8-1.8-6.6c-0.7-1.8-1.7-3.1-2.8-4c-1.1-0.9-2.1-1.6-3.1-2c-1-0.4-2.1-0.7-3.6-1c-9.4,0.7-13.3,6.6-11.7,17.6c0,1.3,0,2-0.1,2c-0.8-0.8-2.1-1.3-3.9-1.4c-1.8-0.1-3.3-0.1-4.3,0.1c-1.1,0.2-1.8,0-2-0.6c0.1-5-0.6-9-2.1-11.8c-1.5-2.9-3.5-4.4-5.9-4.5c-2.4-0.1-4.2,1.1-5.5,3.6c-1.3,2.5-2,5.1-2.2,7.8c-0.1,1.3,0.1,2.9,0.5,4.9c0.4,1.9,1,3.6,1.7,4.9c0.7,1.4,1.4,2,2,1.8c0.9-0.3,1.6-0.9,2.1-1.9c0.4-0.8,0-1.1-0.9-1.1c-0.6,0-1.3-0.6-2-1.9c-0.7-1.3-1.2-2.7-1.3-4.4c-0.1-1.9,0.3-3.6,1.2-4.9c0.9-1.3,2.4-1.9,4.5-1.9c1.5,0,2.7,0.9,3.6,2.8c0.9,1.9,1.3,3.6,1.3,5.1c0,1.6-0.1,2.6-0.2,2.9c-1.9,1.3-3.3,2.6-4.1,3.8c-0.7,1.1-1.9,2.1-3.6,3.1c-1.7,1-2.6,1.6-2.7,1.6c-1.1,1.2-1.8,2.4-2,3.6c-0.2,1.1,0.1,1.9,1,2.4c1.2,0.7,2.3,1.6,3.3,2.6c1,1,1.7,1.9,2.1,2.5c0.4,0.7,1.3,1.2,2.4,1.7c1.2,0.5,2.7,0.8,4.7,0.9c4.1,0.2,8.6-0.5,13.4-2c0.2-0.1,1.2-0.4,3-0.9c1.9-0.5,3.3-1,4.6-1.4c1.2-0.4,2.5-1,3.9-1.7c1.4-0.7,2.3-1.5,2.8-2.3c0.8-1.2,1.7-1.6,2.6-1.1c0.4,0.3,0.7,0.6,0.9,1.1c0.1,0.5,0,1-0.4,1.6c-0.4,0.6-1.1,1-2.2,1.3c-1.8,0.5-4.2,1.5-7.4,2.8c-3.2,1.4-5.2,2.2-6,2.6c-3.9,1.7-6.9,2.7-9.2,3c-2.2,0.4-5.7,0.4-10.4-0.3c-0.9-0.2-1.3-0.1-1.2,0.3c0.1,0.4,0.8,1.2,2.2,2.5c2.2,2,5.1,3,8.8,2.9c1.5-0.1,3.1-0.4,4.7-0.9c1.7-0.5,3.3-1.1,4.7-1.9c1.5-0.7,3-1.5,4.4-2.3c1.4-0.8,2.8-1.6,3.9-2.2c1.2-0.7,2.3-1.2,3.2-1.6c1-0.4,1.7-0.5,2.3-0.3c0.6,0.2,0.9,0.7,1.1,1.4c0,0.2,0,0.4-0.1,0.6c-0.1,0.2-0.3,0.4-0.5,0.7c-0.3,0.2-0.5,0.4-0.8,0.6c-0.3,0.2-0.6,0.4-1.1,0.7c-0.5,0.3-0.9,0.5-1.2,0.6c-0.3,0.1-0.7,0.4-1.3,0.6c-0.6,0.3-1,0.5-1.3,0.6c-2.5,1.2-5.4,3.2-8.9,5.8c-3.5,2.6-6.4,4.5-8.8,5.7c-2.4,1.1-4.5,1.2-6.5,0.1c-1.9-1-4.6-4.2-8.3-9.6c-1.9-2.7-3-3.7-3.3-2.9c-0.1,0.3-0.1,0.7-0.1,1.3c0,2.2-0.7,4.7-2,7.4c-1.3,2.8-2.6,5.2-3.9,7.3c-1.3,2.1-2.2,4.6-2.8,7.6c-0.6,3-0.1,5.8,1.5,8.3c-2,0.5-4.8,4.5-8.2,11.8c-3.5,7.4-5.6,13.6-6.3,18.6c-0.2,1.6-0.2,4.6-0.2,9.1c0,4.5-0.2,7.1-0.7,7.8c-0.7,2.1-2,2.2-3.8,0.4c-2.8-2.8-4.4-6.9-4.7-12.4c-0.2-2.5,0-4.9,0.5-7.4c0.4-1.7,0.3-2.5-0.1-2.4l-0.5,0.7c-3.2,5.7-2.7,13,1.3,21.9c0.4,1.1,1.5,2.3,3.3,3.7s2.8,2.3,3.2,2.6c1.8,2,6.3,6,13.7,11.9c7.4,5.9,11.5,9.3,12.3,10.1c1.4,1.3,2.2,3,2.3,5c0.1,2-0.5,3.9-1.9,5.7c-1.3,1.8-3.3,2.8-6,3c0.7,1.3,2,3.3,3.8,5.9c1.9,2.6,3.1,5,3.7,7.1c0.6,2.1,0.9,5.2,0.9,9.3c4-2.1,4.3-6.1,0.9-12.1c-0.4-0.7-0.8-1.4-1.4-2.1c-0.6-0.7-1-1.2-1.3-1.6c-0.3-0.4-0.4-0.6-0.3-0.8c0.3-0.4,0.8-0.9,1.7-1.3c0.9-0.4,1.8-0.3,2.6,0.3c4,4.6,11.3,6.1,21.9,4.7c11.7-1.3,19.5-5.1,23.3-11.5c2-3.3,3.5-4.6,4.5-3.9c1.1,0.5,1.5,2.8,1.3,6.8c-0.1,2.2-1.1,6.2-3,12.1c-0.8,2-1.1,3.7-0.8,4.9c0.3,1.3,1.3,2,3.2,2c0.3-1.7,0.9-5.1,1.9-10.1c1-5.1,1.6-9,1.8-11.8c0.2-1.9-0.1-5.1-0.9-9.7c-0.7-4.6-1.1-8.9-1-12.8c0.1-3.9,1.1-7,3-9.3c1.3-1.6,3.6-2.4,6.7-2.4c0.1-3.3,1.6-5.6,4.6-7c2.9-1.4,6.1-1.9,9.5-1.4C187.5,167,190.1,168,191.9,169.5z M109.3,60.6c0.3-1.5,0.1-2.8-0.3-3.9c-0.5-1.1-1-1.8-1.5-2c-0.8-0.2-1.2,0.1-1.2,0.9c0.2,0.4,0.4,0.7,0.6,0.8c0.9,0,1.2,0.6,0.9,2c-0.3,1.8,0.1,2.6,1.1,2.6C109.1,61,109.3,60.9,109.3,60.6z M164.4,86.5c-0.2-0.7-0.5-1.2-0.9-1.5c-0.4-0.3-1-0.5-1.7-0.7s-1.4-0.4-1.9-0.7c-0.4-0.3-0.9-0.6-1.3-1.1c-0.4-0.4-0.7-0.8-0.9-1.1c-0.2-0.3-0.5-0.6-0.7-0.9c-0.3-0.3-0.4-0.5-0.5-0.5c-0.1,0-0.3,0-0.5,0.2c-1.2,1.4-0.9,3.3,0.9,5.7c1.9,2.4,3.6,3.8,5.1,4.1c0.8,0.1,1.4-0.3,1.9-1.1C164.5,88.4,164.6,87.5,164.4,86.5z M141,58.5c0-1-0.2-1.8-0.7-2.6c-0.4-0.7-0.9-1.3-1.4-1.6c-0.5-0.4-0.9-0.5-1.2-0.4c-1.2,0.1-1.5,0.4-0.9,0.9l0.5,0.3c1.2,0.4,2,1.7,2.4,4.1c0,0.3,0.4,0.2,1.1-0.3L141,58.5z M148.1,27.8c0-0.2-0.1-0.4-0.3-0.7c-0.2-0.3-0.6-0.6-1.2-0.9c-0.6-0.4-1-0.6-1.3-0.8c-1.3-1.3-2.4-2-3.2-2c-0.8,0.1-1.3,0.4-1.5,1c-0.2,0.6-0.3,1.1-0.1,1.7c0.1,0.6,0.1,1.1-0.1,1.6c-0.1,0.4-0.4,0.8-0.8,1.4c-0.4,0.6-0.7,1-0.8,1.2c-0.1,0.2,0,0.6,0.4,1.1c0.4,0.3,0.7,0.3,1.1,0c0.4-0.3,0.8-0.7,1.4-1.2c0.6-0.5,1.3-0.9,2-1.2c0.1-0.1,0.5-0.1,1.2-0.1c0.7,0,1.4-0.1,2-0.3C147.5,28.6,147.9,28.3,148.1,27.8z M222.5,204.4c1.8,1.1,3.1,2.1,4.1,3.2c1,1.1,1.5,2.1,1.6,3.2c0.1,1,0,2-0.3,3c-0.3,1-1,1.9-2,2.9s-2.1,1.8-3.1,2.6c-1,0.7-2.3,1.6-3.9,2.4c-1.6,0.9-3,1.6-4.1,2.2c-1.1,0.6-2.6,1.3-4.2,2c-1.7,0.8-2.8,1.4-3.6,1.7c-3.3,1.7-7.1,4.1-11.3,7.4c-4.2,3.3-7.5,6.1-9.9,8.4c-1.5,1.4-4.5,2.3-9,2.6c-4.5,0.3-8.4-0.3-11.7-1.9c-1.6-0.8-2.9-1.8-3.9-3.1c-1-1.3-1.7-2.4-2.2-3.3c-0.4-1-1.4-1.8-2.9-2.6c-1.5-0.7-3.6-1.2-6.2-1.3c-3.9-0.1-9.6-0.1-17.1-0.1c-1.7,0-4.2,0.1-7.5,0.2c-3.3,0.1-5.9,0.2-7.6,0.3c-3.9,0.1-7.3,0.7-10.5,2c-3.1,1.2-5.5,2.6-7.1,3.9s-3.5,2.6-5.7,3.8s-4.6,1.6-7.1,1.5c-2.6-0.1-7.4-1.4-14.6-4.1c-7.2-2.6-13.6-4.5-19.2-5.7c-1.7-0.4-3.9-0.8-6.7-1.3c-2.8-0.5-5-0.9-6.6-1.2c-1.6-0.3-3.3-0.7-5.2-1.3c-1.9-0.5-3.3-1.2-4.4-1.9c-1.1-0.7-1.8-1.6-2.2-2.6c-0.9-2-0.6-4.9,0.9-8.8c1.5-3.8,2.3-6.2,2.4-7.2c0.1-1.4-0.1-3.2-0.5-5.3c-0.4-2.1-0.9-4-1.3-5.6c-0.4-1.6-0.6-3.2-0.6-4.8c0-1.6,0.5-2.8,1.4-3.6c1.2-1.1,3.7-1.7,7.5-1.9c3.8-0.2,6.4-0.7,7.9-1.6c2.6-1.6,4.5-3.1,5.5-4.6c1.1-1.5,1.6-3.7,1.6-6.7c1.9,6.4,0.4,11.1-4.2,14c-2.8,1.8-6.5,2.4-10.9,2c-3-0.3-4.9,0.2-5.7,1.3c-1.1,1.3-0.9,3.8,0.6,7.5c0.2,0.5,0.5,1.3,1.1,2.4c0.5,1.1,0.9,1.9,1.1,2.4c0.2,0.5,0.4,1.3,0.6,2.2c0.2,1,0.2,1.9,0.1,2.9c0,1.3-0.7,3.5-2.2,6.5c-1.5,3-2.1,5.1-1.9,6.3c0.3,1.5,1.9,2.6,4.9,3.4c1.8,0.5,5.5,1.3,11.1,2.4c5.7,1.1,10,2,13.1,2.7c2.1,0.5,5.3,1.5,9.8,2.9c4.4,1.4,8,2.4,10.9,3s5.3,0.8,7.3,0.5c3.8-0.5,6.6-1.8,8.5-3.7c1.9-1.9,2.9-4,3-6.3c0.1-2.3-0.2-4.8-1-7.7c-0.8-2.8-1.6-5.1-2.5-6.8c-0.9-1.7-1.8-3.3-2.6-4.8c-10.6-16.7-18-27.3-22.2-31.9c-6-6.5-10.9-8.3-14.9-5.3c-1,0.8-1.6,0.1-2-2c-0.3-1.4-0.4-3.1-0.3-5c0.1-2.6,0.5-4.8,1.3-6.8c0.8-2,1.9-4.1,3.2-6.2c1.3-2.1,2.3-3.9,2.9-5.5c0.7-1.9,1.9-5,3.5-9.5c1.6-4.5,2.9-7.9,3.9-10.3c1-2.4,2.3-5.1,3.9-8s3.4-5.3,5.1-7.1c9.7-12.5,15.1-21.1,16.3-25.7c-1.1-9.8-1.8-23.4-2.1-40.8c-0.2-7.9,0.9-14.5,3.2-19.9s6.9-10,14-13.7c3.4-1.9,8-2.8,13.7-2.8c4.6-0.1,9.3,0.5,14,1.8c4.6,1.3,8.5,3.1,11.7,5.5c5,3.7,9,9,12,16c3,7,4.3,13.5,3.9,19.4c-0.4,8.3,0.9,17.7,3.9,28.2c3,9.9,8.8,19.5,17.5,28.7c4.8,5.2,9.2,12.3,13.1,21.5c3.9,9.1,6.5,17.5,7.8,25.1c0.7,4.3,0.9,8,0.7,11.1c-0.3,3.1-0.8,5.6-1.6,7.3c-0.8,1.8-1.7,2.7-2.6,2.9c-0.9,0.2-1.9,1-3.1,2.5c-1.2,1.5-2.4,3.1-3.6,4.7c-1.2,1.6-3,3.1-5.3,4.4c-2.4,1.3-5.1,1.9-8,1.9c-1.6-0.1-3-0.3-4.1-0.7c-1.2-0.4-2.2-0.9-3-1.8c-0.8-0.8-1.4-1.5-1.8-2c-0.4-0.5-0.9-1.4-1.5-2.7c-0.6-1.3-1-2.1-1.2-2.6c-1.9-3.3-3.7-4.6-5.4-3.9c-1.7,0.6-2.9,2.8-3.7,6.5c-0.8,3.7-0.5,7.9,0.9,12.8c1.8,6.1,1.8,14.7,0.1,25.7c-0.9,5.7-0.1,10.1,2.4,13.2c2.5,3.1,5.7,4.6,9.6,4.3c3.9-0.2,7.7-1.8,11.2-4.7c5.2-4.3,9.1-7.2,11.8-8.8c2.7-1.5,7.2-3.4,13.6-5.6c4.6-1.6,8-3.2,10.1-4.8c2.1-1.6,2.9-3.1,2.4-4.5c-0.5-1.4-1.6-2.6-3.3-3.8s-4-2.1-6.8-3.1c-2.9-1-5.1-3.1-6.5-6.3c-1.4-3.3-2.1-6.4-2-9.5c0.1-3.1,0.8-5.2,2-6.3c0.1,2.7,0.4,5.2,1.1,7.4s1.3,4,1.9,5.3c0.7,1.3,1.6,2.6,2.7,3.8c1.1,1.2,2.1,2,2.8,2.5c0.7,0.5,1.6,1.1,2.8,1.7C221.5,203.8,222.2,204.2,222.5,204.4z"/></g></g></g>
</svg>