<svg xmlns="http://www.w3.org/2000/svg" xmlns:xlink="http://www.w3.org/1999/xlink" width="1366" zoomAndPan="magnify" viewBox="0 0 1024.5 1024.500009" height="1366" preserveAspectRatio="xMidYMid meet" version="1.0"><defs><g/><clipPath id="db51060dc3"><path d="M 665 178.429688 L 774 178.429688 L 774 287 L 665 287 Z M 665 178.429688 " clip-rule="nonzero"/></clipPath><clipPath id="6f0eaada2d"><path d="M 332 178.429688 L 441 178.429688 L 441 287 L 332 287 Z M 332 178.429688 " clip-rule="nonzero"/></clipPath><clipPath id="d747e21636"><path d="M 635 298 L 824.332031 298 L 824.332031 406 L 635 406 Z M 635 298 " clip-rule="nonzero"/></clipPath></defs><path fill="#ffffff" d="M 0 0 L 1024 0 L 1024 1024 L 0 1024 Z M 0 0 " fill-opacity="1" fill-rule="nonzero"/><path fill="#ffffff" d="M 0 0 L 1024 0 L 1024 1024 L 0 1024 Z M 0 0 " fill-opacity="1" fill-rule="nonzero"/><path fill="#2f5597" d="M 748.371094 505.875 L 731.339844 526.871094 L 703.292969 561.441406 L 702.148438 562.84375 L 679.390625 590.886719 L 640.289062 639.078125 C 637.558594 642.449219 633.433594 644.402344 629.097656 644.402344 L 469.738281 644.402344 C 450.445312 644.402344 431.976562 652.082031 418.328125 665.726562 L 416.804688 667.234375 L 415.699219 668.316406 L 327.621094 580.238281 C 327.632812 580.210938 327.640625 580.191406 327.65625 580.171875 C 328.296875 578.929688 328.960938 577.699219 329.652344 576.480469 C 329.875 576.097656 330.101562 575.714844 330.324219 575.332031 C 330.835938 574.453125 331.367188 573.570312 331.921875 572.703125 C 332.15625 572.320312 332.402344 571.9375 332.640625 571.554688 C 333.332031 570.480469 334.042969 569.421875 334.785156 568.382812 C 334.820312 568.328125 334.851562 568.269531 334.894531 568.214844 C 334.941406 568.144531 334.988281 568.078125 335.035156 568 C 335.855469 566.84375 336.710938 565.710938 337.578125 564.589844 C 337.839844 564.253906 338.109375 563.914062 338.371094 563.578125 C 339.015625 562.765625 339.679688 561.964844 340.34375 561.171875 C 340.640625 560.824219 340.933594 560.476562 341.234375 560.132812 C 342.027344 559.21875 342.839844 558.308594 343.664062 557.417969 C 343.8125 557.261719 343.964844 557.089844 344.113281 556.933594 C 345.09375 555.894531 346.097656 554.878906 347.113281 553.875 C 347.40625 553.601562 347.691406 553.328125 347.980469 553.046875 C 348.757812 552.304688 349.535156 551.582031 350.328125 550.871094 C 350.65625 550.558594 350.992188 550.261719 351.332031 549.96875 C 352.226562 549.179688 353.136719 548.410156 354.050781 547.65625 C 354.246094 547.484375 354.445312 547.316406 354.636719 547.160156 C 355.757812 546.25 356.902344 545.363281 358.058594 544.496094 C 358.339844 544.285156 358.628906 544.082031 358.910156 543.878906 C 359.816406 543.210938 360.730469 542.558594 361.65625 541.925781 C 362.003906 541.679688 362.363281 541.4375 362.714844 541.203125 C 363.707031 540.539062 364.714844 539.882812 365.726562 539.25 C 365.949219 539.109375 366.175781 538.96875 366.394531 538.828125 C 367.652344 538.054688 368.921875 537.3125 370.203125 536.59375 C 370.445312 536.453125 370.699219 536.320312 370.941406 536.195312 C 371.988281 535.609375 373.050781 535.054688 374.121094 534.5 C 374.472656 534.324219 374.832031 534.144531 375.179688 533.964844 C 376.265625 533.421875 377.371094 532.902344 378.484375 532.394531 C 378.71875 532.292969 378.949219 532.179688 379.1875 532.078125 C 380.550781 531.460938 381.9375 530.871094 383.335938 530.320312 C 383.371094 530.304688 383.414062 530.285156 383.449219 530.265625 C 383.945312 530.070312 384.441406 529.890625 384.941406 529.707031 C 385.597656 529.453125 386.25 529.199219 386.914062 528.964844 C 387.835938 528.628906 388.761719 528.3125 389.683594 528.003906 C 390.125 527.863281 390.566406 527.726562 391 527.589844 C 391.675781 527.375 392.347656 527.171875 393.035156 526.964844 L 394.433594 526.574219 C 395.09375 526.382812 395.75 526.210938 396.417969 526.035156 C 396.894531 525.910156 397.367188 525.796875 397.855469 525.671875 C 398.507812 525.515625 399.171875 525.355469 399.835938 525.21875 C 400.3125 525.105469 400.796875 525 401.285156 524.902344 C 401.960938 524.757812 402.632812 524.628906 403.304688 524.496094 C 403.777344 524.414062 404.257812 524.320312 404.734375 524.238281 C 405.425781 524.113281 406.125 524 406.832031 523.898438 C 407.285156 523.824219 407.746094 523.761719 408.210938 523.691406 C 408.410156 523.664062 408.59375 523.628906 408.792969 523.597656 C 409.292969 523.535156 409.789062 523.484375 410.296875 523.417969 C 410.792969 523.363281 411.289062 523.300781 411.785156 523.253906 C 412.484375 523.179688 413.183594 523.113281 413.886719 523.054688 C 414.382812 523.019531 414.867188 522.972656 415.351562 522.9375 C 416.121094 522.882812 416.886719 522.839844 417.652344 522.804688 C 418.082031 522.785156 418.507812 522.757812 418.9375 522.738281 C 420.046875 522.703125 421.160156 522.683594 422.273438 522.683594 C 422.355469 522.683594 422.4375 522.671875 422.523438 522.671875 C 438.011719 522.671875 453.792969 526.199219 468.855469 534.015625 C 470.023438 534.621094 471.210938 535.183594 472.40625 535.707031 C 472.464844 535.734375 472.507812 535.753906 472.566406 535.78125 C 472.585938 535.789062 472.601562 535.800781 472.621094 535.808594 C 475.125 536.894531 477.6875 537.808594 480.292969 538.566406 C 486.828125 540.472656 493.664062 541.371094 500.515625 541.371094 L 602.765625 541.371094 C 603.296875 541.371094 603.839844 541.398438 604.371094 541.445312 C 604.519531 541.453125 604.683594 541.472656 604.832031 541.484375 C 605.375 541.539062 605.90625 541.601562 606.4375 541.710938 C 606.476562 541.710938 606.511719 541.714844 606.550781 541.726562 C 607.066406 541.820312 607.570312 541.941406 608.0625 542.074219 C 608.207031 542.109375 608.351562 542.148438 608.496094 542.195312 C 609.019531 542.34375 609.535156 542.5 610.023438 542.691406 C 610.066406 542.695312 610.101562 542.714844 610.136719 542.726562 C 610.617188 542.914062 611.074219 543.109375 611.542969 543.324219 C 611.671875 543.382812 611.792969 543.449219 611.925781 543.503906 C 612.414062 543.734375 612.878906 543.988281 613.335938 544.25 C 613.375 544.277344 613.410156 544.296875 613.441406 544.316406 C 613.878906 544.578125 614.289062 544.847656 614.703125 545.140625 C 614.816406 545.210938 614.9375 545.296875 615.046875 545.371094 C 615.480469 545.691406 615.898438 546.007812 616.296875 546.351562 C 616.339844 546.382812 616.363281 546.417969 616.40625 546.449219 C 616.777344 546.765625 617.128906 547.101562 617.46875 547.445312 C 617.570312 547.546875 617.671875 547.65625 617.773438 547.757812 C 618.132812 548.128906 618.484375 548.511719 618.8125 548.914062 C 618.863281 548.96875 618.898438 549.023438 618.945312 549.082031 C 619.140625 549.335938 619.339844 549.585938 619.523438 549.847656 C 619.609375 549.960938 619.679688 550.082031 619.769531 550.207031 C 619.851562 550.328125 619.9375 550.445312 620.019531 550.578125 C 620.308594 551.019531 620.582031 551.46875 620.832031 551.921875 C 620.851562 551.964844 620.871094 552.011719 620.886719 552.046875 C 621.132812 552.484375 621.347656 552.945312 621.542969 553.402344 C 621.597656 553.523438 621.644531 553.644531 621.695312 553.761719 C 621.898438 554.269531 622.097656 554.785156 622.253906 555.316406 C 622.425781 555.839844 622.554688 556.378906 622.667969 556.929688 C 622.691406 557.054688 622.710938 557.179688 622.738281 557.300781 C 622.847656 557.859375 622.925781 558.421875 622.984375 558.992188 C 623.117188 560.300781 623.105469 561.589844 622.984375 562.84375 C 622.535156 567.507812 620.449219 571.6875 617.300781 574.808594 C 613.765625 578.296875 608.914062 580.453125 603.546875 580.453125 L 504.070312 580.453125 C 501.070312 580.453125 498.308594 581.519531 496.15625 583.296875 C 493.886719 585.175781 492.296875 587.851562 491.800781 590.886719 C 491.699219 591.539062 491.628906 592.207031 491.628906 592.886719 C 491.628906 593.355469 491.664062 593.808594 491.710938 594.261719 C 491.730469 594.402344 491.753906 594.53125 491.777344 594.675781 C 491.820312 594.980469 491.867188 595.289062 491.933594 595.589844 C 491.96875 595.746094 492.015625 595.90625 492.058594 596.066406 C 492.128906 596.335938 492.207031 596.605469 492.296875 596.878906 C 492.351562 597.042969 492.410156 597.195312 492.464844 597.347656 C 492.566406 597.609375 492.679688 597.859375 492.792969 598.113281 C 492.871094 598.261719 492.9375 598.410156 493.007812 598.554688 C 493.140625 598.816406 493.289062 599.058594 493.4375 599.3125 C 493.515625 599.429688 493.582031 599.5625 493.664062 599.671875 C 493.851562 599.964844 494.046875 600.234375 494.25 600.496094 C 494.304688 600.574219 494.363281 600.65625 494.417969 600.722656 C 494.699219 601.0625 494.992188 601.390625 495.308594 601.703125 C 495.320312 601.71875 495.339844 601.734375 495.34375 601.738281 C 495.636719 602.03125 495.953125 602.300781 496.269531 602.5625 C 496.46875 602.71875 496.671875 602.875 496.878906 603.023438 C 496.976562 603.082031 497.054688 603.15625 497.148438 603.214844 C 497.449219 603.410156 497.765625 603.609375 498.082031 603.789062 C 498.1875 603.84375 498.296875 603.890625 498.410156 603.949219 C 498.636719 604.066406 498.859375 604.183594 499.097656 604.285156 C 499.234375 604.339844 499.367188 604.386719 499.503906 604.441406 C 499.71875 604.523438 499.933594 604.613281 500.160156 604.683594 C 500.308594 604.734375 500.449219 604.777344 500.597656 604.828125 C 500.824219 604.894531 501.058594 604.949219 501.289062 605.003906 C 501.433594 605.03125 501.582031 605.066406 501.730469 605.097656 C 501.972656 605.144531 502.234375 605.179688 502.484375 605.210938 C 502.617188 605.226562 502.75 605.246094 502.878906 605.265625 C 503.253906 605.300781 503.636719 605.324219 504.019531 605.324219 L 602.769531 605.324219 C 604.234375 605.324219 605.710938 605.265625 607.167969 605.144531 C 610.289062 604.894531 613.382812 604.355469 616.375 603.441406 C 617.703125 603.03125 619 602.5625 620.253906 602.046875 C 620.386719 602.003906 620.5 601.949219 620.628906 601.890625 C 621.121094 601.683594 621.617188 601.46875 622.105469 601.242188 C 622.285156 601.171875 622.453125 601.078125 622.632812 600.992188 C 623.058594 600.789062 623.480469 600.589844 623.898438 600.375 C 624.097656 600.273438 624.292969 600.160156 624.488281 600.046875 C 624.871094 599.851562 625.253906 599.648438 625.632812 599.429688 C 625.847656 599.3125 626.050781 599.179688 626.265625 599.058594 C 626.613281 598.84375 626.964844 598.644531 627.304688 598.421875 C 627.527344 598.285156 627.742188 598.140625 627.957031 597.992188 C 628.285156 597.789062 628.613281 597.574219 628.917969 597.359375 C 629.144531 597.195312 629.359375 597.042969 629.582031 596.878906 C 629.886719 596.664062 630.179688 596.449219 630.484375 596.222656 C 630.703125 596.058594 630.914062 595.878906 631.136719 595.710938 C 631.414062 595.488281 631.699219 595.261719 631.976562 595.039062 C 632.191406 594.847656 632.410156 594.664062 632.625 594.480469 C 632.886719 594.25 633.15625 594.023438 633.40625 593.796875 C 633.621094 593.59375 633.835938 593.390625 634.046875 593.1875 C 634.296875 592.960938 634.535156 592.730469 634.78125 592.496094 C 634.988281 592.28125 635.191406 592.078125 635.394531 591.859375 C 635.628906 591.617188 635.867188 591.382812 636.089844 591.136719 C 636.167969 591.054688 636.238281 590.972656 636.316406 590.886719 C 636.449219 590.75 636.566406 590.605469 636.6875 590.476562 C 636.902344 590.230469 637.117188 589.988281 637.332031 589.746094 C 637.53125 589.511719 637.714844 589.28125 637.914062 589.035156 C 638.109375 588.789062 638.3125 588.550781 638.515625 588.300781 C 638.699219 588.054688 638.886719 587.808594 639.066406 587.570312 C 639.25 587.3125 639.449219 587.0625 639.625 586.8125 C 639.800781 586.554688 639.980469 586.296875 640.160156 586.046875 C 640.324219 585.789062 640.503906 585.539062 640.671875 585.277344 C 640.851562 585.019531 641.007812 584.753906 641.175781 584.480469 C 641.335938 584.230469 641.492188 583.96875 641.652344 583.710938 C 641.8125 583.4375 641.96875 583.167969 642.128906 582.886719 C 642.269531 582.628906 642.417969 582.371094 642.566406 582.109375 C 642.722656 581.828125 642.859375 581.535156 643.007812 581.261719 C 643.140625 580.996094 643.277344 580.734375 643.410156 580.464844 C 643.550781 580.171875 643.683594 579.886719 643.820312 579.59375 C 643.941406 579.324219 644.066406 579.0625 644.1875 578.792969 C 644.316406 578.5 644.4375 578.203125 644.5625 577.902344 C 644.671875 577.632812 644.785156 577.359375 644.886719 577.089844 C 645.011719 576.789062 645.125 576.480469 645.230469 576.183594 C 645.328125 575.914062 645.429688 575.636719 645.523438 575.363281 C 645.625 575.050781 645.726562 574.742188 645.835938 574.4375 C 645.914062 574.15625 645.996094 573.882812 646.085938 573.613281 C 646.175781 573.292969 646.273438 572.972656 646.355469 572.65625 C 646.433594 572.386719 646.503906 572.105469 646.582031 571.835938 C 646.652344 571.515625 646.730469 571.191406 646.804688 570.875 C 646.871094 570.59375 646.933594 570.3125 646.988281 570.03125 C 647.054688 569.710938 647.121094 569.386719 647.179688 569.070312 C 647.234375 568.789062 647.289062 568.496094 647.335938 568.214844 C 647.394531 567.886719 647.4375 567.570312 647.484375 567.242188 C 647.527344 566.957031 647.570312 566.675781 647.597656 566.386719 C 647.644531 566.058594 647.675781 565.742188 647.710938 565.414062 C 647.742188 565.121094 647.765625 564.835938 647.796875 564.542969 C 647.824219 564.21875 647.84375 563.890625 647.859375 563.5625 C 647.878906 563.273438 647.898438 562.980469 647.910156 562.683594 C 647.925781 562.355469 647.925781 562.039062 647.933594 561.710938 C 647.945312 561.410156 647.945312 561.125 647.945312 560.824219 C 647.945312 560.496094 647.933594 560.167969 647.933594 559.839844 C 647.925781 559.550781 647.914062 559.253906 647.910156 558.953125 C 647.890625 558.625 647.867188 558.308594 647.851562 557.980469 C 647.824219 557.53125 647.796875 557.089844 647.746094 556.648438 C 647.675781 555.78125 647.550781 554.945312 647.417969 554.109375 C 647.199219 552.710938 646.898438 551.324219 646.542969 549.960938 L 681.136719 516.542969 L 703.292969 495.144531 L 720.765625 478.261719 C 722.554688 476.488281 724.597656 475.113281 726.785156 474.164062 C 726.796875 474.15625 726.808594 474.15625 726.824219 474.148438 C 727.179688 473.996094 727.53125 473.847656 727.890625 473.722656 C 728.265625 473.589844 728.636719 473.464844 729.011719 473.351562 C 730.835938 472.8125 732.710938 472.539062 734.59375 472.539062 C 734.742188 472.539062 734.898438 472.558594 735.058594 472.570312 C 736.140625 472.597656 737.234375 472.6875 738.304688 472.902344 C 738.394531 472.921875 738.488281 472.953125 738.585938 472.96875 C 741.257812 473.53125 743.820312 474.671875 746.109375 476.355469 C 746.902344 476.9375 747.660156 477.550781 748.371094 478.261719 C 752.214844 482.0625 754.089844 487.078125 754.089844 492.046875 C 754.089844 497.0625 752.214844 502.070312 748.371094 505.875 Z M 406.183594 704.605469 C 406.042969 705.269531 405.863281 705.933594 405.648438 706.578125 C 405.433594 707.234375 405.175781 707.867188 404.871094 708.496094 C 404.371094 709.535156 403.765625 710.53125 403.03125 711.476562 C 402.601562 712.027344 402.144531 712.570312 401.632812 713.085938 L 352.28125 762.441406 L 229.703125 639.863281 L 279.046875 590.503906 C 281.378906 588.175781 284.238281 586.691406 287.226562 586.023438 C 287.378906 585.988281 287.539062 585.941406 287.699219 585.914062 C 287.820312 585.886719 287.949219 585.875 288.082031 585.855469 C 289.007812 585.699219 289.941406 585.605469 290.882812 585.605469 C 294.082031 585.605469 297.296875 586.519531 300.082031 588.359375 C 301.019531 588.96875 301.898438 589.691406 302.710938 590.503906 L 401.632812 689.425781 C 403.0625 690.855469 404.171875 692.476562 404.976562 694.203125 C 405.324219 694.941406 405.613281 695.707031 405.839844 696.484375 C 406.292969 698.027344 406.527344 699.632812 406.527344 701.234375 C 406.527344 702.363281 406.417969 703.496094 406.183594 704.605469 Z M 765.886719 460.605469 C 757.617188 452.292969 746.453125 447.675781 734.59375 447.675781 C 733.5 447.675781 732.414062 447.722656 731.339844 447.796875 C 721.429688 448.507812 712.167969 452.445312 704.804688 459.125 C 704.316406 459.578125 703.835938 460.03125 703.359375 460.5 L 703.292969 460.566406 L 663.433594 499.070312 L 633.222656 528.253906 C 625.117188 520.976562 614.320312 516.492188 602.699219 516.492188 L 500.046875 516.492188 C 494.5625 516.492188 489.28125 515.550781 484.5 513.773438 C 483.035156 513.230469 481.613281 512.613281 480.257812 511.914062 C 462.207031 502.566406 442.773438 497.808594 422.523438 497.808594 C 412.621094 497.808594 402.792969 498.957031 393.199219 501.183594 C 385.21875 503.042969 377.402344 505.640625 369.875 508.933594 C 367.53125 509.960938 365.21875 511.0625 362.941406 512.222656 C 352.890625 517.324219 343.449219 523.707031 334.894531 531.246094 C 332.023438 533.769531 329.246094 536.417969 326.582031 539.203125 C 319.160156 546.980469 312.945312 555.441406 307.859375 564.394531 C 302.609375 562.007812 296.847656 560.730469 290.882812 560.730469 C 279.757812 560.730469 269.308594 565.066406 261.46875 572.917969 L 205.992188 628.382812 C 199.675781 634.699219 199.675781 644.976562 205.992188 651.328125 L 340.804688 786.140625 C 347.160156 792.460938 357.433594 792.460938 363.753906 786.140625 L 419.21875 730.675781 C 430.375 719.519531 433.851562 703.636719 429.703125 689.492188 L 433.320312 685.910156 C 443.949219 675.242188 458.375 669.28125 473.433594 669.28125 L 629.136719 669.28125 C 640.960938 669.28125 652.164062 663.953125 659.585938 654.746094 L 711.40625 590.886719 L 731.339844 566.328125 L 766.992188 522.398438 C 774.742188 514.144531 778.964844 503.453125 778.964844 492.046875 C 778.964844 480.109375 774.3125 468.960938 765.886719 460.605469 " fill-opacity="1" fill-rule="nonzero"/><path fill="#2f5597" d="M 292.65625 615.980469 C 284.808594 615.980469 278.445312 622.34375 278.445312 630.195312 C 278.445312 638.042969 284.808594 644.410156 292.65625 644.410156 C 300.507812 644.410156 306.871094 638.042969 306.871094 630.195312 C 306.871094 622.34375 300.507812 615.980469 292.65625 615.980469 " fill-opacity="1" fill-rule="nonzero"/><g clip-path="url(#db51060dc3)"><path fill="#2f5597" d="M 773.058594 232.355469 C 773.058594 262.144531 748.917969 286.285156 719.132812 286.285156 C 689.347656 286.285156 665.203125 262.144531 665.203125 232.355469 C 665.203125 202.574219 689.347656 178.429688 719.132812 178.429688 C 748.917969 178.429688 773.058594 202.574219 773.058594 232.355469 " fill-opacity="1" fill-rule="nonzero"/></g><g clip-path="url(#6f0eaada2d)"><path fill="#2f5597" d="M 440.238281 232.355469 C 440.238281 262.144531 416.09375 286.285156 386.304688 286.285156 C 356.523438 286.285156 332.378906 262.144531 332.378906 232.355469 C 332.378906 202.574219 356.523438 178.429688 386.304688 178.429688 C 416.09375 178.429688 440.238281 202.574219 440.238281 232.355469 " fill-opacity="1" fill-rule="nonzero"/></g><g clip-path="url(#d747e21636)"><path fill="#2f5597" d="M 748.605469 298.65625 L 689.664062 298.65625 C 671.164062 298.65625 654.160156 305.378906 640.976562 316.5 C 633.207031 323.050781 633.855469 335.175781 642.300781 340.832031 C 647.84375 344.542969 653.066406 348.828125 657.898438 353.65625 C 669.578125 365.335938 678.074219 379.324219 682.96875 394.558594 C 684.980469 400.839844 690.828125 405.097656 697.433594 405.097656 L 793.621094 405.097656 C 810.515625 405.097656 824.332031 391.277344 824.332031 374.386719 C 824.332031 332.734375 790.257812 298.65625 748.605469 298.65625 " fill-opacity="1" fill-rule="nonzero"/></g><path fill="#2f5597" d="M 463.140625 340.832031 C 471.582031 335.175781 472.234375 323.050781 464.460938 316.5 C 451.277344 305.378906 434.277344 298.65625 415.78125 298.65625 L 356.835938 298.65625 C 315.183594 298.65625 281.109375 332.734375 281.109375 374.386719 C 281.109375 391.277344 294.925781 405.097656 311.820312 405.097656 L 408.007812 405.097656 C 414.609375 405.097656 420.460938 400.839844 422.476562 394.558594 C 427.359375 379.324219 435.863281 365.335938 447.542969 353.65625 C 452.375 348.828125 457.597656 344.542969 463.140625 340.832031 " fill-opacity="1" fill-rule="nonzero"/><path fill="#2f5597" d="M 585.941406 340.238281 L 519.496094 340.238281 C 472.539062 340.238281 434.125 378.65625 434.125 425.605469 C 434.125 444.648438 449.703125 460.230469 468.746094 460.230469 L 636.695312 460.230469 C 655.734375 460.230469 671.316406 444.648438 671.316406 425.605469 C 671.316406 378.65625 632.902344 340.238281 585.941406 340.238281 " fill-opacity="1" fill-rule="nonzero"/><path fill="#2f5597" d="M 613.515625 265.496094 C 613.515625 299.070312 586.296875 326.289062 552.71875 326.289062 C 519.144531 326.289062 491.925781 299.070312 491.925781 265.496094 C 491.925781 231.917969 519.144531 204.699219 552.71875 204.699219 C 586.296875 204.699219 613.515625 231.917969 613.515625 265.496094 " fill-opacity="1" fill-rule="nonzero"/><g fill="#2f5597" fill-opacity="1"><g transform="translate(489.687739, 830.113703)"><g><path d="M 13.570312 -0.214844 L 13.570312 -14.675781 L 9.820312 -14.675781 C 8.09375 -14.675781 6.628906 -14.101562 5.421875 -12.949219 C 4.21875 -11.800781 3.613281 -10.367188 3.613281 -8.660156 C 3.613281 -6.953125 4.207031 -5.527344 5.394531 -4.382812 C 6.582031 -3.242188 8.03125 -2.671875 9.738281 -2.671875 C 10.765625 -2.671875 11.710938 -2.914062 12.574219 -3.398438 L 12.574219 -0.675781 C 11.4375 -0.296875 10.449219 -0.109375 9.605469 -0.109375 C 7.175781 -0.109375 5.105469 -0.929688 3.386719 -2.578125 C 1.667969 -4.222656 0.808594 -6.25 0.808594 -8.660156 C 0.808594 -10.027344 1.125 -11.332031 1.753906 -12.574219 C 2.507812 -14.011719 3.570312 -15.125 4.9375 -15.917969 C 6.304688 -16.710938 7.816406 -17.105469 9.46875 -17.105469 L 16.1875 -17.105469 L 16.1875 -0.214844 Z M 13.570312 -0.214844 "/></g></g></g><g fill="#2f5597" fill-opacity="1"><g transform="translate(507.032694, 830.113703)"><g><path d="M 7.636719 -14.839844 C 6.25 -14.839844 5.105469 -14.359375 4.195312 -13.394531 C 3.285156 -12.433594 2.832031 -11.242188 2.832031 -9.820312 L 2.832031 -0.214844 L 0.0546875 -0.214844 L 0.0546875 -17.105469 L 2.832031 -17.105469 L 2.832031 -15.351562 C 3.730469 -16.050781 4.515625 -16.539062 5.179688 -16.808594 C 5.988281 -17.167969 6.890625 -17.347656 7.878906 -17.347656 C 10.164062 -17.347656 12.03125 -16.449219 13.488281 -14.648438 L 11.117188 -13.355469 C 10.199219 -14.34375 9.039062 -14.839844 7.636719 -14.839844 Z M 7.636719 -14.839844 "/></g></g></g><g fill="#2f5597" fill-opacity="1"><g transform="translate(519.710966, 830.113703)"><g><path d="M 15.863281 -0.214844 L 13.191406 -0.214844 L 13.191406 -9.820312 C 13.191406 -11.222656 12.742188 -12.410156 11.84375 -13.382812 C 10.945312 -14.351562 9.792969 -14.839844 8.390625 -14.839844 C 6.988281 -14.839844 5.835938 -14.359375 4.9375 -13.394531 C 4.039062 -12.433594 3.589844 -11.242188 3.589844 -9.820312 L 3.589844 -0.214844 L 0.808594 -0.214844 L 0.808594 -17.105469 L 3.589844 -17.105469 L 3.589844 -15.351562 C 4.488281 -16.050781 5.269531 -16.539062 5.933594 -16.808594 C 6.746094 -17.167969 7.644531 -17.347656 8.632812 -17.347656 C 9.890625 -17.347656 11.050781 -17.046875 12.113281 -16.445312 C 13.175781 -15.839844 14.027344 -15.035156 14.675781 -14.027344 C 15.414062 -15.019531 16.355469 -15.820312 17.496094 -16.429688 C 18.636719 -17.042969 19.804688 -17.347656 20.988281 -17.347656 C 23.023438 -17.347656 24.738281 -16.625 26.144531 -15.175781 C 27.546875 -13.726562 28.246094 -11.988281 28.246094 -9.957031 L 28.246094 -0.214844 L 25.550781 -0.214844 L 25.550781 -9.820312 C 25.550781 -11.222656 25.101562 -12.410156 24.199219 -13.382812 C 23.300781 -14.351562 22.160156 -14.839844 20.773438 -14.839844 C 19.371094 -14.839844 18.203125 -14.363281 17.265625 -13.410156 C 16.332031 -12.457031 15.863281 -11.285156 15.863281 -9.902344 Z M 15.863281 -0.214844 "/></g></g></g><g fill="#2f5597" fill-opacity="1"><g transform="translate(548.897956, 830.113703)"><g><path d="M 15.808594 -9.957031 C 15.304688 -13.210938 13.273438 -14.839844 9.710938 -14.839844 C 7.933594 -14.839844 6.398438 -14.234375 5.113281 -13.03125 C 3.828125 -11.824219 3.191406 -10.359375 3.210938 -8.632812 C 3.230469 -6.941406 3.835938 -5.503906 5.03125 -4.316406 C 6.226562 -3.128906 7.671875 -2.535156 9.363281 -2.535156 C 10.800781 -2.535156 12.167969 -2.804688 13.460938 -3.34375 C 14.972656 -3.992188 15.9375 -4.867188 16.347656 -5.960938 L 18.15625 -4.207031 C 17.417969 -2.824219 16.242188 -1.761719 14.621094 -1.023438 C 13.148438 -0.324219 11.511719 0.0273438 9.710938 0.0273438 C 7.195312 0.0273438 5.039062 -0.804688 3.25 -2.46875 C 1.460938 -4.132812 0.566406 -6.1875 0.566406 -8.632812 C 0.566406 -11.0625 1.464844 -13.121094 3.265625 -14.8125 C 5.0625 -16.503906 7.210938 -17.347656 9.710938 -17.347656 C 12.410156 -17.328125 14.523438 -16.71875 16.050781 -15.511719 C 17.871094 -14.09375 18.777344 -11.890625 18.777344 -8.902344 C 18.777344 -8.542969 18.769531 -8.164062 18.75 -7.769531 L 5.800781 -7.769531 L 5.800781 -9.929688 L 15.78125 -9.929688 Z M 15.808594 -9.957031 "/></g></g></g><g fill="#2f5597" fill-opacity="1"><g transform="translate(568.346968, 830.113703)"><g><path d="M 0.808594 -21.554688 L 3.589844 -21.554688 L 3.589844 -0.214844 L 0.808594 -0.214844 Z M 0.808594 -21.554688 "/></g></g></g><g fill="#2f5597" fill-opacity="1"><g transform="translate(572.986678, 830.113703)"><g><path d="M 0.484375 -17.078125 L 3.722656 -17.078125 L 7.367188 -11.492188 L 11.007812 -17.078125 L 14.273438 -17.078125 L 8.769531 -8.660156 L 8.769531 -0.214844 L 5.988281 -0.214844 L 5.988281 -8.660156 Z M 0.484375 -17.078125 "/></g></g></g></svg>