<svg xmlns="http://www.w3.org/2000/svg" xmlns:xlink="http://www.w3.org/1999/xlink" width="1366" zoomAndPan="magnify" viewBox="0 0 1024.5 1024.500009" height="1366" preserveAspectRatio="xMidYMid meet" version="1.0"><defs><g/><clipPath id="f78a072210"><path d="M 493 161.921875 L 772 161.921875 L 772 475 L 493 475 Z M 493 161.921875 " clip-rule="nonzero"/></clipPath><clipPath id="b66cabb203"><path d="M 687 648 L 815 648 L 815 775.875 L 687 775.875 Z M 687 648 " clip-rule="nonzero"/></clipPath></defs><path fill="#ffffff" d="M 0 0 L 1024 0 L 1024 1024 L 0 1024 Z M 0 0 " fill-opacity="1" fill-rule="nonzero"/><path fill="#ffffff" d="M 0 0 L 1024 0 L 1024 1024 L 0 1024 Z M 0 0 " fill-opacity="1" fill-rule="nonzero"/><path fill="#2f5597" d="M 330.605469 395.386719 C 333.136719 397.917969 336.503906 399.3125 340.082031 399.3125 C 343.660156 399.3125 347.023438 397.917969 349.554688 395.386719 L 397.199219 347.742188 C 405.085938 339.855469 409.425781 329.371094 409.425781 318.21875 C 409.425781 307.066406 405.085938 296.582031 397.199219 288.695312 C 389.324219 280.824219 378.839844 276.484375 367.675781 276.484375 C 357.402344 276.484375 347.699219 280.160156 340.082031 286.886719 C 332.457031 280.152344 322.753906 276.46875 312.484375 276.46875 C 301.332031 276.46875 290.847656 280.8125 282.964844 288.695312 C 266.683594 304.976562 266.683594 331.464844 282.964844 347.742188 Z M 301.914062 307.648438 C 304.734375 304.824219 308.488281 303.269531 312.484375 303.269531 C 316.480469 303.269531 320.234375 304.824219 323.058594 307.648438 L 330.605469 315.195312 C 333.136719 317.726562 336.503906 319.117188 340.082031 319.117188 C 343.660156 319.117188 347.023438 317.726562 349.554688 315.195312 L 357.101562 307.648438 C 359.925781 304.820312 363.679688 303.269531 367.675781 303.269531 C 371.671875 303.269531 375.425781 304.824219 378.25 307.648438 C 381.074219 310.472656 382.628906 314.226562 382.628906 318.21875 C 382.628906 322.214844 381.070312 325.96875 378.25 328.792969 L 340.082031 366.960938 L 301.914062 328.792969 C 299.097656 325.976562 297.542969 322.21875 297.542969 318.21875 C 297.542969 314.21875 299.097656 310.464844 301.914062 307.648438 Z M 301.914062 307.648438 " fill-opacity="1" fill-rule="nonzero"/><path fill="#2f5597" d="M 715.265625 343.511719 C 715.265625 340.847656 714.714844 338.195312 713.667969 335.757812 C 716.664062 332.21875 718.300781 327.777344 718.300781 323.101562 C 718.300781 320.074219 717.601562 317.09375 716.265625 314.398438 C 718.78125 311.023438 720.148438 306.917969 720.148438 302.6875 C 720.148438 300.25 719.710938 297.886719 718.84375 295.640625 C 722.207031 292.023438 724.109375 287.230469 724.109375 282.273438 C 724.109375 271.453125 715.308594 262.648438 704.484375 262.648438 L 666.136719 262.648438 C 666.621094 254.433594 666.5 246.144531 665.78125 237.972656 C 665.53125 224.320312 654.238281 213.226562 640.574219 213.226562 C 630.453125 213.226562 622.222656 221.457031 622.222656 231.578125 L 622.222656 236.941406 C 622.222656 243.832031 621.378906 250.722656 619.71875 257.417969 C 618.105469 263.917969 612.300781 268.457031 605.601562 268.457031 C 604.214844 268.457031 602.902344 268.765625 601.71875 269.308594 L 570.425781 269.308594 C 565.234375 269.308594 561.007812 273.53125 561.007812 278.726562 L 561.007812 353.203125 C 561.007812 358.394531 565.234375 362.621094 570.425781 362.621094 L 602.542969 362.621094 C 603.503906 362.949219 604.53125 363.140625 605.601562 363.140625 L 695.640625 363.140625 C 706.464844 363.136719 715.265625 354.335938 715.265625 343.511719 Z M 596.183594 343.78125 L 579.847656 343.78125 L 579.847656 288.144531 L 596.183594 288.144531 Z M 704.488281 283.0625 L 700.527344 283.0625 C 695.335938 283.0625 691.109375 287.289062 691.109375 292.484375 C 691.109375 297.675781 695.335938 301.902344 700.527344 301.902344 C 700.964844 301.902344 701.316406 302.253906 701.316406 302.6875 C 701.316406 303.121094 700.964844 303.476562 700.527344 303.476562 L 698.679688 303.476562 C 693.488281 303.476562 689.261719 307.703125 689.261719 312.894531 C 689.261719 318.089844 693.488281 322.3125 698.679688 322.3125 C 699.113281 322.3125 699.46875 322.667969 699.46875 323.101562 C 699.46875 323.535156 699.113281 323.890625 698.679688 323.890625 L 695.644531 323.890625 C 690.449219 323.890625 686.226562 328.113281 686.226562 333.308594 C 686.226562 338.5 690.449219 342.726562 695.644531 342.726562 C 696.078125 342.726562 696.429688 343.078125 696.429688 343.511719 C 696.429688 343.949219 696.078125 344.300781 695.644531 344.300781 L 615.023438 344.300781 L 615.023438 285.949219 C 626.390625 282.628906 635.121094 273.570312 638.003906 261.957031 C 640.035156 253.78125 641.0625 245.363281 641.0625 236.941406 L 641.0625 232.082031 C 644.351562 232.328125 646.953125 235.085938 646.953125 238.441406 C 646.953125 238.722656 646.96875 239.011719 646.992188 239.289062 C 647.890625 249.21875 647.789062 259.277344 646.691406 269.1875 L 646.488281 271.03125 C 646.191406 273.691406 647.046875 276.359375 648.832031 278.347656 C 650.617188 280.34375 653.171875 281.484375 655.847656 281.484375 L 704.492188 281.484375 C 704.925781 281.484375 705.277344 281.839844 705.277344 282.273438 C 705.277344 282.707031 704.921875 283.0625 704.488281 283.0625 Z M 704.488281 283.0625 " fill-opacity="1" fill-rule="nonzero"/><g clip-path="url(#f78a072210)"><path fill="#2f5597" d="M 761.023438 246.839844 C 754.019531 230.277344 744 215.414062 731.234375 202.648438 C 718.472656 189.886719 703.605469 179.863281 687.046875 172.859375 C 669.898438 165.605469 651.6875 161.929688 632.925781 161.929688 C 614.164062 161.929688 595.953125 165.609375 578.804688 172.859375 C 562.246094 179.863281 547.378906 189.886719 534.617188 202.648438 C 521.851562 215.410156 511.832031 230.277344 504.828125 246.839844 C 497.574219 263.988281 493.894531 282.199219 493.894531 300.960938 C 493.894531 320.328125 497.804688 339.078125 505.519531 356.691406 C 511.863281 371.175781 520.546875 384.351562 531.335938 395.882812 L 524.808594 456.902344 C 524.128906 463.253906 527.265625 469.425781 532.796875 472.621094 C 535.25 474.039062 538.046875 474.789062 540.882812 474.789062 C 544.328125 474.789062 547.621094 473.714844 550.410156 471.683594 L 599.429688 435.925781 C 610.34375 438.625 621.605469 439.992188 632.925781 439.992188 C 651.6875 439.992188 669.898438 436.3125 687.046875 429.058594 C 703.605469 422.054688 718.472656 412.03125 731.234375 399.269531 C 743.996094 386.507812 754.019531 371.640625 761.023438 355.082031 C 768.277344 337.933594 771.953125 319.722656 771.953125 300.960938 C 771.957031 282.199219 768.277344 263.988281 761.023438 246.839844 Z M 632.925781 407.660156 C 622.050781 407.660156 611.324219 406.03125 601.050781 402.820312 C 599.492188 402.332031 597.867188 402.085938 596.230469 402.085938 C 592.78125 402.085938 589.488281 403.160156 586.703125 405.191406 L 560.839844 424.054688 L 564.300781 391.683594 C 564.832031 386.71875 562.992188 381.699219 559.375 378.253906 C 549.003906 368.386719 540.847656 356.765625 535.132812 343.71875 C 529.222656 330.222656 526.226562 315.835938 526.226562 300.960938 C 526.226562 286.546875 529.046875 272.578125 534.605469 259.433594 C 539.976562 246.730469 547.675781 235.316406 557.480469 225.511719 C 567.285156 215.707031 578.695312 208.011719 591.398438 202.640625 C 604.542969 197.082031 618.515625 194.261719 632.925781 194.261719 C 647.335938 194.261719 661.308594 197.082031 674.453125 202.640625 C 687.15625 208.011719 698.566406 215.710938 708.371094 225.511719 C 718.175781 235.316406 725.871094 246.730469 731.246094 259.433594 C 736.804688 272.578125 739.625 286.546875 739.625 300.960938 C 739.625 315.371094 736.804688 329.34375 731.246094 342.488281 C 725.875 355.191406 718.175781 366.601562 708.375 376.410156 C 698.566406 386.214844 687.15625 393.910156 674.453125 399.28125 C 661.308594 404.839844 647.335938 407.660156 632.925781 407.660156 Z M 632.925781 407.660156 " fill-opacity="1" fill-rule="nonzero"/></g><path fill="#2f5597" d="M 460.445312 320.492188 C 459.476562 305.160156 455.59375 290.339844 448.910156 276.445312 C 442.222656 262.550781 433.066406 250.269531 421.695312 239.941406 C 409.914062 229.246094 396.269531 221.136719 381.140625 215.835938 C 368.433594 211.382812 355.234375 209.125 341.917969 209.125 C 339.421875 209.125 336.898438 209.207031 334.414062 209.363281 C 319.085938 210.332031 304.265625 214.214844 290.367188 220.898438 C 276.472656 227.582031 264.191406 236.738281 253.867188 248.113281 C 243.171875 259.894531 235.058594 273.539062 229.757812 288.667969 C 224.460938 303.792969 222.28125 319.515625 223.285156 335.394531 C 224.253906 350.730469 228.136719 365.546875 234.824219 379.441406 C 241.507812 393.339844 250.664062 405.617188 262.035156 415.945312 C 273.820312 426.640625 287.464844 434.75 302.589844 440.050781 C 311.179688 443.058594 320.078125 445.078125 329.070312 446.0625 L 356.667969 486.089844 C 358.722656 489.070312 361.617188 491.28125 365.035156 492.480469 C 366.84375 493.113281 368.734375 493.433594 370.648438 493.433594 C 371.703125 493.433594 372.765625 493.332031 373.800781 493.136719 C 380.398438 491.890625 385.652344 486.863281 387.1875 480.328125 L 398.425781 432.40625 C 409.796875 426.265625 420.027344 418.355469 428.855469 408.875 C 440.054688 396.851562 448.503906 382.835938 453.976562 367.222656 C 459.273438 352.09375 461.449219 336.371094 460.445312 320.492188 Z M 339.007812 412.742188 C 330.460938 412.449219 321.988281 410.851562 313.820312 407.992188 C 303.007812 404.207031 293.265625 398.417969 284.867188 390.792969 C 276.75 383.425781 270.210938 374.652344 265.429688 364.71875 C 260.652344 354.78125 257.878906 344.199219 257.1875 333.253906 C 256.46875 321.933594 258.027344 310.714844 261.816406 299.898438 C 265.605469 289.085938 271.390625 279.34375 279.015625 270.945312 C 286.386719 262.828125 295.160156 256.289062 305.09375 251.507812 C 315.027344 246.730469 325.613281 243.957031 336.558594 243.265625 C 338.335938 243.152344 340.136719 243.09375 341.910156 243.09375 C 351.398438 243.09375 360.820312 244.710938 369.910156 247.894531 C 380.726562 251.683594 390.464844 257.46875 398.863281 265.09375 C 406.984375 272.464844 413.519531 281.238281 418.300781 291.171875 C 423.078125 301.105469 425.855469 311.6875 426.546875 322.632812 C 427.261719 333.953125 425.703125 345.175781 421.914062 355.988281 C 418.007812 367.148438 411.976562 377.152344 403.996094 385.726562 C 396.277344 394.011719 387.105469 400.585938 376.730469 405.265625 C 371.949219 407.425781 368.378906 411.761719 367.179688 416.871094 L 362.867188 435.242188 L 352.414062 420.074219 C 349.375 415.667969 344.363281 412.925781 339.007812 412.742188 Z M 339.007812 412.742188 " fill-opacity="1" fill-rule="nonzero"/><g clip-path="url(#b66cabb203)"><path fill="#2f5597" d="M 811.410156 700.917969 L 798.761719 696.324219 L 796.445312 690.632812 L 802.304688 678.515625 C 803.265625 676.523438 802.871094 674.140625 801.316406 672.570312 L 791.695312 662.820312 C 790.140625 661.246094 787.765625 660.820312 785.761719 661.757812 L 773.566406 667.457031 L 767.90625 665.066406 L 763.476562 652.359375 C 762.75 650.269531 760.789062 648.863281 758.574219 648.851562 L 744.875 648.761719 C 744.863281 648.761719 744.851562 648.761719 744.839844 648.761719 C 742.644531 648.761719 740.679688 650.136719 739.929688 652.203125 L 735.335938 664.855469 L 729.644531 667.167969 L 717.527344 661.3125 C 715.535156 660.351562 713.15625 660.746094 711.578125 662.296875 L 701.832031 671.921875 C 700.257812 673.476562 699.832031 675.851562 700.769531 677.855469 L 706.46875 690.046875 L 704.078125 695.707031 L 691.367188 700.136719 C 689.28125 700.863281 687.875 702.828125 687.859375 705.039062 L 687.769531 718.738281 C 687.757812 720.949219 689.136719 722.929688 691.214844 723.683594 L 703.863281 728.277344 L 706.179688 733.96875 L 700.320312 746.085938 C 699.359375 748.078125 699.753906 750.460938 701.308594 752.035156 L 710.929688 761.78125 C 712.484375 763.355469 714.859375 763.78125 716.863281 762.84375 L 729.054688 757.144531 L 734.71875 759.535156 L 739.144531 772.246094 C 739.871094 774.335938 741.835938 775.738281 744.046875 775.753906 L 757.746094 775.84375 C 757.757812 775.84375 757.769531 775.84375 757.78125 775.84375 C 759.980469 775.84375 761.945312 774.464844 762.691406 772.398438 L 767.285156 759.746094 L 772.980469 757.433594 L 785.097656 763.289062 C 787.089844 764.253906 789.46875 763.859375 791.042969 762.304688 L 800.792969 752.679688 C 802.363281 751.128906 802.789062 748.75 801.855469 746.75 L 796.15625 734.558594 L 798.542969 728.894531 L 811.253906 724.46875 C 813.34375 723.738281 814.746094 721.777344 814.761719 719.566406 L 814.851562 705.867188 C 814.867188 703.652344 813.488281 701.671875 811.410156 700.917969 Z M 751.308594 737.722656 C 737.394531 737.722656 726.113281 726.445312 726.113281 712.527344 C 726.113281 698.613281 737.394531 687.332031 751.308594 687.332031 C 765.226562 687.332031 776.503906 698.613281 776.503906 712.527344 C 776.503906 726.445312 765.226562 737.722656 751.308594 737.722656 Z M 751.308594 737.722656 " fill-opacity="1" fill-rule="nonzero"/></g><path fill="#2f5597" d="M 702.925781 633.695312 L 702.894531 633.664062 C 695.613281 626.386719 690.511719 623.242188 682.644531 619.441406 C 694.945312 606.785156 701.707031 590.140625 701.707031 572.453125 C 701.707031 554.441406 694.695312 537.507812 681.957031 524.769531 C 669.222656 512.03125 652.285156 505.019531 634.273438 505.019531 C 616.261719 505.019531 599.328125 512.03125 586.589844 524.769531 C 582.515625 528.84375 579.03125 533.328125 576.164062 538.179688 C 575.253906 534.570312 574.070312 531.027344 572.613281 527.582031 C 568.925781 518.871094 563.65625 511.050781 556.949219 504.34375 C 550.234375 497.632812 542.417969 492.359375 533.710938 488.675781 C 524.6875 484.859375 515.105469 482.925781 505.242188 482.925781 C 495.375 482.925781 485.800781 484.859375 476.773438 488.675781 C 468.066406 492.359375 460.246094 497.628906 453.535156 504.34375 C 446.828125 511.050781 441.554688 518.871094 437.871094 527.582031 C 435.894531 532.257812 434.421875 537.078125 433.460938 542.007812 C 430.160156 535.496094 425.789062 529.519531 420.453125 524.289062 C 407.960938 512.042969 390.75 505.019531 373.226562 505.019531 C 372.914062 505.019531 372.601562 505.019531 372.292969 505.023438 C 354.652344 505.269531 338.058594 512.28125 325.570312 524.769531 C 312.835938 537.503906 305.820312 554.4375 305.820312 572.453125 C 305.820312 590.175781 312.609375 606.855469 324.960938 619.519531 C 315.878906 624.324219 307.582031 630.457031 300.242188 637.796875 C 290.761719 647.273438 283.320312 658.316406 278.121094 670.613281 C 272.730469 683.351562 270 696.875 270 710.808594 L 270 712.1875 C 270 725.550781 280.871094 736.421875 294.234375 736.421875 L 397.042969 736.421875 C 400.152344 736.421875 403.167969 735.53125 405.75 733.871094 C 409.097656 735.546875 412.785156 736.421875 416.554688 736.421875 L 593.921875 736.421875 C 597.050781 736.421875 600.175781 735.804688 603.070312 734.621094 C 605.355469 735.804688 607.878906 736.421875 610.480469 736.421875 L 660.472656 736.421875 C 669.386719 736.421875 676.636719 729.171875 676.636719 720.257812 C 676.636719 711.34375 669.386719 704.089844 660.472656 704.089844 L 618.015625 704.089844 C 617.363281 690.847656 614.429688 677.980469 609.28125 665.804688 C 606.753906 659.828125 603.699219 654.058594 600.179688 648.605469 C 610.582031 642.890625 622.289062 639.886719 634.273438 639.886719 C 643.855469 639.886719 653.140625 641.761719 661.871094 645.457031 C 662.609375 645.765625 663.332031 646.066406 664.039062 646.363281 C 669.390625 648.59375 673.617188 650.351562 677.058594 653.792969 L 680.230469 656.832031 C 683.121094 659.597656 686.910156 661.121094 690.90625 661.121094 C 695.03125 661.121094 698.910156 659.515625 701.828125 656.597656 L 702.949219 655.476562 C 705.855469 652.570312 707.453125 648.707031 707.453125 644.597656 C 707.453125 640.488281 705.855469 636.632812 702.925781 633.695312 Z M 348.4375 547.632812 C 355.066406 541.003906 363.878906 537.351562 373.257812 537.351562 C 382.632812 537.351562 391.449219 541.003906 398.078125 547.632812 C 404.707031 554.265625 408.355469 563.078125 408.355469 572.453125 C 408.355469 581.828125 404.707031 590.644531 398.078125 597.273438 C 391.445312 603.902344 382.632812 607.554688 373.253906 607.554688 C 363.878906 607.554688 355.0625 603.902344 348.433594 597.273438 C 341.804688 590.644531 338.15625 581.828125 338.15625 572.453125 C 338.15625 563.078125 341.804688 554.265625 348.4375 547.632812 Z M 401.203125 665.804688 C 396.054688 677.980469 393.121094 690.847656 392.46875 704.089844 L 302.644531 704.089844 C 303.316406 696.882812 305.082031 689.875 307.902344 683.210938 C 311.472656 674.765625 316.589844 667.179688 323.105469 660.660156 C 329.625 654.144531 337.210938 649.027344 345.65625 645.457031 C 354.386719 641.761719 363.671875 639.890625 373.257812 639.890625 C 386.109375 639.890625 398.566406 643.324219 409.507812 649.847656 C 406.332031 654.917969 403.546875 660.269531 401.203125 665.804688 Z M 476.398438 527.207031 C 484.105469 519.503906 494.347656 515.257812 505.242188 515.257812 C 516.136719 515.257812 526.382812 519.503906 534.085938 527.207031 C 541.792969 534.914062 546.035156 545.15625 546.035156 556.050781 C 546.035156 566.945312 541.792969 577.191406 534.085938 584.894531 C 526.382812 592.597656 516.136719 596.839844 505.242188 596.839844 C 494.347656 596.839844 484.105469 592.597656 476.398438 584.894531 C 468.695312 577.191406 464.453125 566.945312 464.453125 556.050781 C 464.453125 545.15625 468.695312 534.914062 476.398438 527.207031 Z M 439.078125 587.21875 C 442.671875 594.851562 447.527344 601.746094 453.539062 607.757812 C 453.890625 608.109375 454.246094 608.460938 454.609375 608.804688 C 445.972656 613.140625 437.945312 618.5625 430.667969 624.976562 C 427.730469 623.007812 424.675781 621.183594 421.542969 619.523438 C 430.394531 610.453125 436.390625 599.320312 439.078125 587.21875 Z M 424.851562 704.089844 C 425.460938 695.210938 427.519531 686.585938 430.980469 678.398438 C 435.039062 668.804688 440.855469 660.183594 448.261719 652.777344 C 455.667969 645.371094 464.285156 639.558594 473.878906 635.503906 C 483.804688 631.304688 494.355469 629.175781 505.246094 629.175781 C 516.132812 629.175781 526.683594 631.304688 536.605469 635.503906 C 546.199219 639.5625 554.824219 645.375 562.226562 652.777344 C 569.632812 660.183594 575.445312 668.804688 579.503906 678.398438 C 582.964844 686.585938 585.023438 695.210938 585.632812 704.089844 Z M 578.546875 623.871094 C 571.609375 617.9375 564.011719 612.890625 555.878906 608.804688 C 556.242188 608.460938 556.597656 608.109375 556.949219 607.757812 C 561.917969 602.789062 566.097656 597.207031 569.429688 591.109375 C 572.453125 601.742188 578.066406 611.410156 585.988281 619.523438 C 583.449219 620.871094 580.960938 622.324219 578.546875 623.871094 Z M 659.09375 597.273438 C 652.464844 603.90625 643.648438 607.554688 634.273438 607.554688 C 624.898438 607.554688 616.082031 603.90625 609.453125 597.273438 C 602.824219 590.644531 599.171875 581.832031 599.171875 572.453125 C 599.171875 563.078125 602.824219 554.261719 609.453125 547.632812 C 616.082031 541.003906 624.898438 537.351562 634.273438 537.351562 C 643.648438 537.351562 652.464844 541.003906 659.09375 547.632812 C 665.726562 554.261719 669.375 563.074219 669.375 572.453125 C 669.375 581.832031 665.726562 590.644531 659.09375 597.273438 Z M 659.09375 597.273438 " fill-opacity="1" fill-rule="nonzero"/><g fill="#2f5597" fill-opacity="1"><g transform="translate(479.636671, 800.883082)"><g><path d="M 13.570312 -0.214844 L 13.570312 -14.675781 L 9.820312 -14.675781 C 8.09375 -14.675781 6.628906 -14.101562 5.421875 -12.949219 C 4.21875 -11.800781 3.613281 -10.367188 3.613281 -8.660156 C 3.613281 -6.953125 4.207031 -5.527344 5.394531 -4.382812 C 6.582031 -3.242188 8.03125 -2.671875 9.738281 -2.671875 C 10.765625 -2.671875 11.710938 -2.914062 12.574219 -3.398438 L 12.574219 -0.675781 C 11.4375 -0.296875 10.449219 -0.109375 9.605469 -0.109375 C 7.175781 -0.109375 5.105469 -0.929688 3.386719 -2.578125 C 1.667969 -4.222656 0.808594 -6.25 0.808594 -8.660156 C 0.808594 -10.027344 1.125 -11.332031 1.753906 -12.574219 C 2.507812 -14.011719 3.570312 -15.125 4.9375 -15.917969 C 6.304688 -16.710938 7.816406 -17.105469 9.46875 -17.105469 L 16.1875 -17.105469 L 16.1875 -0.214844 Z M 13.570312 -0.214844 "/></g></g></g><g fill="#2f5597" fill-opacity="1"><g transform="translate(496.981626, 800.883082)"><g><path d="M 7.636719 -14.839844 C 6.25 -14.839844 5.105469 -14.359375 4.195312 -13.394531 C 3.285156 -12.433594 2.832031 -11.242188 2.832031 -9.820312 L 2.832031 -0.214844 L 0.0546875 -0.214844 L 0.0546875 -17.105469 L 2.832031 -17.105469 L 2.832031 -15.351562 C 3.730469 -16.050781 4.515625 -16.539062 5.179688 -16.808594 C 5.988281 -17.167969 6.890625 -17.347656 7.878906 -17.347656 C 10.164062 -17.347656 12.03125 -16.449219 13.488281 -14.648438 L 11.117188 -13.355469 C 10.199219 -14.34375 9.039062 -14.839844 7.636719 -14.839844 Z M 7.636719 -14.839844 "/></g></g></g><g fill="#2f5597" fill-opacity="1"><g transform="translate(509.659897, 800.883082)"><g><path d="M 15.863281 -0.214844 L 13.191406 -0.214844 L 13.191406 -9.820312 C 13.191406 -11.222656 12.742188 -12.410156 11.84375 -13.382812 C 10.945312 -14.351562 9.792969 -14.839844 8.390625 -14.839844 C 6.988281 -14.839844 5.835938 -14.359375 4.9375 -13.394531 C 4.039062 -12.433594 3.589844 -11.242188 3.589844 -9.820312 L 3.589844 -0.214844 L 0.808594 -0.214844 L 0.808594 -17.105469 L 3.589844 -17.105469 L 3.589844 -15.351562 C 4.488281 -16.050781 5.269531 -16.539062 5.933594 -16.808594 C 6.746094 -17.167969 7.644531 -17.347656 8.632812 -17.347656 C 9.890625 -17.347656 11.050781 -17.046875 12.113281 -16.445312 C 13.175781 -15.839844 14.027344 -15.035156 14.675781 -14.027344 C 15.414062 -15.019531 16.355469 -15.820312 17.496094 -16.429688 C 18.636719 -17.042969 19.804688 -17.347656 20.988281 -17.347656 C 23.023438 -17.347656 24.738281 -16.625 26.144531 -15.175781 C 27.546875 -13.726562 28.246094 -11.988281 28.246094 -9.957031 L 28.246094 -0.214844 L 25.550781 -0.214844 L 25.550781 -9.820312 C 25.550781 -11.222656 25.101562 -12.410156 24.199219 -13.382812 C 23.300781 -14.351562 22.160156 -14.839844 20.773438 -14.839844 C 19.371094 -14.839844 18.203125 -14.363281 17.265625 -13.410156 C 16.332031 -12.457031 15.863281 -11.285156 15.863281 -9.902344 Z M 15.863281 -0.214844 "/></g></g></g><g fill="#2f5597" fill-opacity="1"><g transform="translate(538.846888, 800.883082)"><g><path d="M 15.808594 -9.957031 C 15.304688 -13.210938 13.273438 -14.839844 9.710938 -14.839844 C 7.933594 -14.839844 6.398438 -14.234375 5.113281 -13.03125 C 3.828125 -11.824219 3.191406 -10.359375 3.210938 -8.632812 C 3.230469 -6.941406 3.835938 -5.503906 5.03125 -4.316406 C 6.226562 -3.128906 7.671875 -2.535156 9.363281 -2.535156 C 10.800781 -2.535156 12.167969 -2.804688 13.460938 -3.34375 C 14.972656 -3.992188 15.9375 -4.867188 16.347656 -5.960938 L 18.15625 -4.207031 C 17.417969 -2.824219 16.242188 -1.761719 14.621094 -1.023438 C 13.148438 -0.324219 11.511719 0.0273438 9.710938 0.0273438 C 7.195312 0.0273438 5.039062 -0.804688 3.25 -2.46875 C 1.460938 -4.132812 0.566406 -6.1875 0.566406 -8.632812 C 0.566406 -11.0625 1.464844 -13.121094 3.265625 -14.8125 C 5.0625 -16.503906 7.210938 -17.347656 9.710938 -17.347656 C 12.410156 -17.328125 14.523438 -16.71875 16.050781 -15.511719 C 17.871094 -14.09375 18.777344 -11.890625 18.777344 -8.902344 C 18.777344 -8.542969 18.769531 -8.164062 18.75 -7.769531 L 5.800781 -7.769531 L 5.800781 -9.929688 L 15.78125 -9.929688 Z M 15.808594 -9.957031 "/></g></g></g><g fill="#2f5597" fill-opacity="1"><g transform="translate(558.295899, 800.883082)"><g><path d="M 0.808594 -21.554688 L 3.589844 -21.554688 L 3.589844 -0.214844 L 0.808594 -0.214844 Z M 0.808594 -21.554688 "/></g></g></g><g fill="#2f5597" fill-opacity="1"><g transform="translate(562.93561, 800.883082)"><g><path d="M 0.484375 -17.078125 L 3.722656 -17.078125 L 7.367188 -11.492188 L 11.007812 -17.078125 L 14.273438 -17.078125 L 8.769531 -8.660156 L 8.769531 -0.214844 L 5.988281 -0.214844 L 5.988281 -8.660156 Z M 0.484375 -17.078125 "/></g></g></g></svg>