<svg xmlns="http://www.w3.org/2000/svg" xmlns:xlink="http://www.w3.org/1999/xlink" width="1366" zoomAndPan="magnify" viewBox="0 0 1024.5 1024.500009" height="1366" preserveAspectRatio="xMidYMid meet" version="1.0"><defs><g/><clipPath id="df887e3f7a"><path d="M 184 155.589844 L 789 155.589844 L 789 767 L 184 767 Z M 184 155.589844 " clip-rule="nonzero"/></clipPath><clipPath id="d188c484a8"><path d="M 285 731 L 301 731 L 301 767.292969 L 285 767.292969 Z M 285 731 " clip-rule="nonzero"/></clipPath></defs><path fill="#ffffff" d="M 0 0 L 1024 0 L 1024 1024 L 0 1024 Z M 0 0 " fill-opacity="1" fill-rule="nonzero"/><path fill="#ffffff" d="M 0 0 L 1024 0 L 1024 1024 L 0 1024 Z M 0 0 " fill-opacity="1" fill-rule="nonzero"/><g clip-path="url(#df887e3f7a)"><path fill="#2f5597" d="M 786.589844 458.136719 C 786.589844 458.015625 786.472656 457.898438 786.472656 457.78125 L 688.984375 224.445312 L 594.917969 263.75 C 596.097656 252.652344 596.097656 236.957031 590.078125 225.625 C 589.605469 224.746094 589.109375 223.875 588.585938 223.023438 C 588.0625 222.171875 587.515625 221.332031 586.945312 220.511719 C 586.375 219.6875 585.777344 218.886719 585.160156 218.097656 C 584.542969 217.3125 583.902344 216.542969 583.238281 215.792969 C 582.578125 215.042969 581.894531 214.3125 581.1875 213.601562 C 580.484375 212.890625 579.757812 212.203125 579.011719 211.535156 C 578.269531 210.867188 577.503906 210.222656 576.722656 209.597656 C 575.9375 208.972656 575.140625 208.375 574.320312 207.796875 C 573.503906 207.21875 572.671875 206.664062 571.820312 206.136719 C 570.972656 205.609375 570.105469 205.105469 569.230469 204.625 C 568.351562 204.148438 567.457031 203.695312 566.554688 203.265625 C 565.648438 202.839844 564.730469 202.4375 563.804688 202.066406 C 562.875 201.691406 561.9375 201.34375 560.988281 201.027344 C 560.039062 200.707031 559.082031 200.414062 558.117188 200.152344 C 557.152344 199.886719 556.179688 199.652344 555.199219 199.445312 C 554.222656 199.238281 553.238281 199.058594 552.246094 198.910156 C 551.257812 198.757812 550.265625 198.636719 549.269531 198.542969 C 548.273438 198.453125 547.273438 198.386719 546.273438 198.351562 C 545.273438 198.320312 544.273438 198.3125 543.273438 198.335938 C 542.273438 198.359375 541.273438 198.414062 540.277344 198.492188 C 539.28125 198.574219 538.285156 198.6875 537.292969 198.824219 C 536.304688 198.964844 535.316406 199.132812 534.335938 199.328125 C 533.355469 199.523438 532.378906 199.75 531.410156 200.003906 C 530.445312 200.253906 529.484375 200.535156 528.53125 200.84375 C 527.578125 201.152344 526.636719 201.488281 525.703125 201.851562 C 524.773438 202.214844 523.851562 202.605469 522.941406 203.023438 C 522.03125 203.441406 521.136719 203.882812 520.25 204.351562 C 519.367188 204.820312 518.496094 205.316406 517.640625 205.835938 C 516.785156 206.355469 515.945312 206.898438 515.121094 207.464844 C 514.300781 208.035156 513.492188 208.625 512.703125 209.238281 C 511.914062 209.855469 511.140625 210.492188 510.390625 211.152344 C 509.636719 211.8125 508.90625 212.492188 508.191406 213.195312 C 507.480469 213.898438 506.785156 214.621094 506.117188 215.363281 C 505.445312 216.105469 504.796875 216.867188 504.167969 217.644531 C 503.542969 218.425781 502.9375 219.222656 502.359375 220.039062 C 501.777344 220.855469 501.222656 221.683594 500.6875 222.53125 C 500.15625 223.378906 499.648438 224.242188 499.167969 225.117188 C 498.683594 225.996094 498.226562 226.886719 497.796875 227.789062 C 497.367188 228.691406 496.964844 229.609375 496.585938 230.535156 C 496.207031 231.460938 495.859375 232.398438 495.535156 233.34375 C 495.210938 234.292969 494.917969 235.25 494.648438 236.210938 C 494.382812 237.175781 494.140625 238.148438 493.929688 239.125 C 493.71875 240.105469 493.535156 241.085938 493.382812 242.078125 C 493.230469 243.066406 493.101562 244.058594 493.007812 245.054688 C 492.910156 246.050781 492.84375 247.046875 492.804688 248.046875 C 492.765625 249.046875 492.757812 250.046875 492.777344 251.046875 C 492.796875 252.050781 492.84375 253.046875 492.921875 254.046875 C 493 255.042969 493.105469 256.039062 493.238281 257.03125 C 493.375 258.019531 493.539062 259.007812 493.730469 259.988281 C 493.925781 260.972656 494.144531 261.949219 494.394531 262.917969 C 494.644531 263.886719 494.921875 264.847656 495.226562 265.800781 C 495.53125 266.753906 495.863281 267.695312 496.222656 268.632812 C 496.582031 269.566406 496.96875 270.488281 497.382812 271.398438 C 497.792969 272.308594 498.234375 273.210938 498.699219 274.09375 C 499.164062 274.980469 499.65625 275.851562 500.171875 276.710938 C 500.6875 277.566406 501.226562 278.410156 501.792969 279.234375 C 502.355469 280.0625 502.945312 280.871094 503.558594 281.664062 C 504.167969 282.453125 504.804688 283.226562 505.460938 283.984375 C 506.117188 284.738281 506.796875 285.472656 507.496094 286.1875 C 508.195312 286.90625 508.914062 287.597656 509.652344 288.273438 C 510.394531 288.949219 511.152344 289.597656 511.929688 290.230469 C 512.707031 290.859375 513.503906 291.464844 514.316406 292.050781 C 515.128906 292.632812 515.957031 293.195312 516.800781 293.730469 C 517.648438 294.265625 518.507812 294.773438 519.382812 295.261719 L 418.824219 337.160156 C 416.546875 330.011719 413.203125 323.402344 408.792969 317.332031 C 410.0625 316.636719 411.203125 315.769531 412.214844 314.734375 C 413.476562 313.507812 414.457031 312.089844 415.152344 310.472656 C 415.847656 308.855469 416.207031 307.171875 416.230469 305.410156 L 415.757812 266.464844 L 423.78125 266.464844 C 424.714844 266.449219 425.613281 266.261719 426.472656 265.890625 C 427.332031 265.523438 428.085938 265.007812 428.738281 264.339844 C 429.433594 263.679688 429.960938 262.90625 430.332031 262.023438 C 430.703125 261.140625 430.878906 260.21875 430.863281 259.261719 L 429.449219 155.875 L 415.285156 156.109375 L 416.582031 252.300781 L 227.390625 253.714844 L 226.089844 155.875 L 211.929688 156.109375 L 213.226562 261.035156 C 213.238281 261.492188 213.292969 261.945312 213.394531 262.394531 C 213.492188 262.839844 213.636719 263.277344 213.816406 263.695312 C 214 264.117188 214.222656 264.515625 214.480469 264.894531 C 214.742188 265.273438 215.035156 265.621094 215.363281 265.945312 C 215.691406 266.265625 216.042969 266.554688 216.425781 266.804688 C 216.808594 267.058594 217.210938 267.273438 217.636719 267.449219 C 218.058594 267.625 218.496094 267.761719 218.945312 267.851562 C 219.394531 267.945312 219.847656 267.992188 220.308594 267.996094 L 228.570312 267.996094 C 228.570312 268.351562 229.042969 306.945312 229.042969 306.945312 C 229.074219 307.988281 229.226562 309.015625 229.492188 310.023438 C 229.761719 311.03125 230.140625 311.996094 230.632812 312.917969 C 231.125 313.839844 231.714844 314.691406 232.402344 315.476562 C 233.089844 316.261719 233.859375 316.960938 234.707031 317.566406 L 229.515625 325.828125 C 227.507812 329.015625 224.792969 336.921875 224.792969 336.921875 L 224.675781 336.921875 L 204.019531 413.992188 L 209.449219 430.753906 L 201.777344 434.175781 C 200.015625 434.953125 198.34375 435.898438 196.769531 437.007812 C 195.191406 438.117188 193.738281 439.371094 192.414062 440.769531 C 191.085938 442.164062 189.910156 443.679688 188.882812 445.3125 C 187.855469 446.945312 187 448.660156 186.316406 450.464844 C 185.640625 452.265625 185.148438 454.117188 184.835938 456.011719 C 184.523438 457.910156 184.398438 459.824219 184.457031 461.746094 C 184.519531 463.667969 184.765625 465.566406 185.195312 467.441406 C 185.628906 469.316406 186.238281 471.132812 187.023438 472.886719 L 291.949219 707.285156 L 390.261719 663.261719 C 391.136719 662.886719 391.945312 662.402344 392.691406 661.808594 C 393.433594 661.214844 394.085938 660.535156 394.648438 659.765625 C 395.207031 658.996094 395.65625 658.167969 395.996094 657.277344 C 396.332031 656.386719 396.546875 655.46875 396.636719 654.519531 C 396.726562 653.574219 396.691406 652.632812 396.527344 651.695312 C 396.367188 650.757812 396.082031 649.855469 395.675781 648.996094 C 395.273438 648.136719 394.761719 647.34375 394.140625 646.617188 C 393.523438 645.894531 392.820312 645.265625 392.035156 644.730469 C 379.40625 635.878906 370.671875 626.320312 368.074219 618.53125 C 367.828125 617.804688 367.605469 617.070312 367.402344 616.328125 C 367.203125 615.589844 367.023438 614.84375 366.871094 614.089844 C 366.714844 613.339844 366.582031 612.582031 366.472656 611.824219 C 366.363281 611.0625 366.277344 610.300781 366.214844 609.535156 C 366.152344 608.769531 366.113281 608.003906 366.101562 607.238281 C 366.085938 606.46875 366.09375 605.703125 366.125 604.9375 C 366.15625 604.167969 366.210938 603.402344 366.289062 602.640625 C 366.367188 601.875 366.472656 601.117188 366.597656 600.359375 C 366.722656 599.601562 366.871094 598.847656 367.042969 598.101562 C 367.214844 597.351562 367.40625 596.609375 367.625 595.875 C 367.839844 595.136719 368.082031 594.410156 368.34375 593.6875 C 368.605469 592.964844 368.886719 592.253906 369.195312 591.550781 C 369.5 590.84375 369.824219 590.152344 370.171875 589.46875 C 370.523438 588.78125 370.890625 588.109375 371.28125 587.449219 C 371.667969 586.785156 372.078125 586.136719 372.507812 585.5 C 372.9375 584.863281 373.382812 584.242188 373.851562 583.632812 C 374.320312 583.023438 374.804688 582.429688 375.308594 581.851562 C 375.8125 581.273438 376.332031 580.710938 376.871094 580.160156 C 377.410156 579.613281 377.964844 579.085938 378.535156 578.570312 C 379.105469 578.058594 379.691406 577.5625 380.292969 577.085938 C 380.894531 576.609375 381.507812 576.148438 382.136719 575.710938 C 382.765625 575.269531 383.410156 574.851562 384.0625 574.449219 C 384.71875 574.050781 385.386719 573.671875 386.0625 573.3125 C 386.742188 572.953125 387.429688 572.613281 388.128906 572.296875 C 388.828125 571.980469 389.539062 571.683594 390.253906 571.410156 C 390.972656 571.136719 391.695312 570.886719 392.429688 570.65625 C 393.160156 570.429688 393.898438 570.222656 394.644531 570.039062 C 395.390625 569.855469 396.140625 569.691406 396.894531 569.554688 C 397.652344 569.417969 398.410156 569.300781 399.171875 569.210938 C 399.933594 569.121094 400.699219 569.050781 401.464844 569.007812 C 402.230469 568.964844 402.996094 568.941406 403.765625 568.945312 C 404.53125 568.945312 405.300781 568.972656 406.066406 569.023438 C 406.832031 569.074219 407.59375 569.144531 408.355469 569.242188 C 409.117188 569.339844 409.875 569.457031 410.628906 569.601562 C 411.382812 569.742188 412.132812 569.910156 412.875 570.097656 C 413.621094 570.289062 414.359375 570.5 415.089844 570.734375 C 415.820312 570.964844 416.542969 571.222656 417.257812 571.5 C 417.972656 571.78125 418.679688 572.078125 419.375 572.402344 C 420.074219 572.722656 420.761719 573.066406 421.4375 573.429688 C 422.113281 573.792969 422.777344 574.175781 423.429688 574.582031 C 424.082031 574.988281 424.71875 575.410156 425.347656 575.855469 C 425.972656 576.296875 426.585938 576.761719 427.183594 577.242188 C 427.78125 577.722656 428.363281 578.222656 428.929688 578.738281 C 429.496094 579.257812 430.046875 579.789062 430.582031 580.339844 C 431.117188 580.890625 431.636719 581.457031 432.132812 582.042969 C 432.632812 582.625 433.117188 583.222656 433.578125 583.832031 C 434.042969 584.445312 434.488281 585.070312 434.910156 585.710938 C 435.335938 586.347656 435.742188 587 436.125 587.664062 C 436.511719 588.328125 436.875 589.003906 437.21875 589.691406 C 437.5625 590.378906 437.882812 591.074219 438.183594 591.78125 C 438.484375 592.484375 438.765625 593.199219 439.019531 593.921875 C 439.277344 594.648438 439.511719 595.378906 439.722656 596.113281 C 439.9375 596.851562 440.125 597.597656 440.292969 598.34375 C 440.457031 599.09375 440.601562 599.847656 440.722656 600.605469 C 440.84375 601.363281 440.941406 602.125 441.011719 602.890625 C 441.085938 603.652344 441.136719 604.417969 441.164062 605.1875 C 441.191406 605.953125 441.195312 606.71875 441.171875 607.488281 C 441.152344 608.253906 441.109375 609.019531 441.042969 609.785156 C 440.972656 610.550781 440.882812 611.3125 440.769531 612.070312 C 440.65625 612.832031 440.519531 613.585938 440.359375 614.335938 C 440.199219 615.085938 440.015625 615.832031 439.808594 616.570312 C 439.601562 617.308594 439.375 618.042969 439.125 618.769531 C 438.871094 619.492188 438.597656 620.210938 438.304688 620.917969 C 438.007812 621.628906 437.691406 622.328125 437.355469 623.015625 C 436.914062 623.925781 436.617188 624.882812 436.46875 625.886719 C 436.316406 626.886719 436.320312 627.890625 436.480469 628.890625 C 436.636719 629.890625 436.9375 630.84375 437.386719 631.753906 C 437.835938 632.660156 438.410156 633.480469 439.113281 634.214844 C 439.8125 634.945312 440.605469 635.554688 441.492188 636.046875 C 442.378906 636.535156 443.320312 636.878906 444.3125 637.082031 C 445.304688 637.285156 446.304688 637.332031 447.3125 637.226562 C 448.320312 637.125 449.289062 636.871094 450.21875 636.46875 L 531.894531 599.882812 C 533.84375 599.039062 535.632812 597.933594 537.257812 596.570312 C 538.886719 595.203125 540.285156 593.632812 541.453125 591.855469 L 553.84375 586.78125 C 554.554688 592.628906 555.988281 598.289062 558.148438 603.769531 C 560.304688 609.246094 563.121094 614.363281 566.59375 619.121094 C 565.320312 619.859375 564.179688 620.761719 563.167969 621.835938 C 561.882812 623.070312 560.890625 624.503906 560.195312 626.144531 C 559.5 627.785156 559.152344 629.496094 559.15625 631.277344 L 559.746094 670.105469 L 551.722656 670.105469 C 550.785156 670.121094 549.890625 670.308594 549.03125 670.679688 C 548.171875 671.046875 547.417969 671.5625 546.765625 672.230469 C 546.066406 672.882812 545.539062 673.652344 545.1875 674.542969 C 544.835938 675.429688 544.691406 676.351562 544.757812 677.308594 L 546.054688 766.414062 L 560.21875 766.414062 L 558.921875 684.386719 L 748.113281 682.855469 L 749.414062 766.535156 L 763.574219 766.535156 L 762.277344 675.773438 C 762.265625 675.3125 762.210938 674.855469 762.113281 674.402344 C 762.015625 673.953125 761.875 673.515625 761.691406 673.089844 C 761.511719 672.664062 761.289062 672.261719 761.03125 671.878906 C 760.773438 671.496094 760.480469 671.140625 760.152344 670.816406 C 759.824219 670.488281 759.472656 670.195312 759.089844 669.9375 C 758.707031 669.679688 758.304688 669.457031 757.878906 669.277344 C 757.453125 669.09375 757.015625 668.953125 756.566406 668.855469 C 756.113281 668.757812 755.65625 668.703125 755.195312 668.691406 L 746.933594 668.691406 C 746.933594 668.453125 747.050781 668.101562 747.050781 667.863281 L 746.460938 629.859375 C 746.460938 628.8125 746.335938 627.777344 746.078125 626.757812 C 745.824219 625.742188 745.449219 624.769531 744.957031 623.839844 C 744.464844 622.914062 743.863281 622.0625 743.160156 621.285156 C 742.457031 620.503906 741.667969 619.824219 740.796875 619.238281 C 743.511719 614.871094 745.636719 611.566406 745.988281 610.859375 C 748.042969 607.722656 749.535156 604.339844 750.476562 600.707031 L 750.710938 599.882812 L 750.828125 599.882812 L 771.484375 522.695312 L 763.929688 498.851562 L 770.773438 496.019531 C 771.65625 495.660156 772.515625 495.257812 773.359375 494.816406 C 774.199219 494.371094 775.015625 493.886719 775.808594 493.359375 C 776.605469 492.835938 777.371094 492.273438 778.105469 491.671875 C 778.84375 491.074219 779.550781 490.4375 780.226562 489.765625 C 780.902344 489.097656 781.542969 488.394531 782.148438 487.664062 C 782.757812 486.929688 783.324219 486.167969 783.855469 485.378906 C 784.386719 484.589844 784.878906 483.777344 785.328125 482.9375 C 785.78125 482.101562 786.191406 481.242188 786.554688 480.363281 C 786.921875 479.488281 787.246094 478.59375 787.523438 477.683594 C 787.800781 476.773438 788.035156 475.851562 788.222656 474.917969 C 788.410156 473.988281 788.550781 473.046875 788.644531 472.101562 C 788.742188 471.152344 788.789062 470.203125 788.789062 469.253906 C 788.792969 468.300781 788.746094 467.351562 788.65625 466.40625 C 788.5625 465.457031 788.425781 464.519531 788.238281 463.585938 C 788.054688 462.652344 787.824219 461.730469 787.550781 460.820312 C 787.273438 459.910156 786.953125 459.015625 786.589844 458.136719 Z M 238.71875 339.402344 C 239.332031 337.265625 240.238281 335.257812 241.433594 333.382812 C 241.433594 333.382812 245.09375 327.480469 249.222656 321.109375 L 392.742188 319.929688 C 395.816406 323.179688 398.457031 326.753906 400.660156 330.644531 C 402.882812 334.535156 404.609375 338.636719 405.84375 342.941406 L 292.066406 393.8125 L 290.886719 395.816406 C 282.859375 409.980469 268.34375 416.234375 268.226562 416.234375 L 263.03125 418.359375 C 263.03125 418.359375 271.175781 467.578125 273.417969 481.859375 C 273.75 483.964844 273.898438 486.085938 273.871094 488.222656 C 273.847656 490.355469 273.640625 492.472656 273.261719 494.570312 C 272.878906 496.667969 272.324219 498.722656 271.597656 500.730469 C 270.871094 502.734375 269.984375 504.667969 268.933594 506.523438 C 268.183594 507.597656 267.316406 508.566406 266.335938 509.433594 C 265.351562 510.296875 264.277344 511.03125 263.117188 511.640625 C 261.957031 512.246094 260.742188 512.703125 259.46875 513.015625 C 258.199219 513.332031 256.90625 513.488281 255.597656 513.488281 C 251.9375 513.371094 250.402344 511.480469 249.8125 510.421875 L 226.800781 438.542969 L 222.433594 424.96875 L 218.773438 413.640625 Z M 529.296875 584.421875 C 528.496094 585.582031 527.433594 586.410156 526.109375 586.898438 L 453.761719 619.355469 C 454.003906 618.386719 454.21875 617.410156 454.402344 616.429688 C 454.589844 615.449219 454.746094 614.460938 454.875 613.472656 C 455.003906 612.480469 455.105469 611.488281 455.175781 610.488281 C 455.246094 609.492188 455.289062 608.496094 455.300781 607.496094 C 455.316406 606.496094 455.300781 605.5 455.257812 604.5 C 455.210938 603.5 455.136719 602.503906 455.035156 601.511719 C 454.933594 600.519531 454.804688 599.527344 454.644531 598.542969 C 454.484375 597.554688 454.296875 596.574219 454.078125 595.597656 C 453.863281 594.621094 453.617188 593.65625 453.34375 592.691406 C 453.074219 591.730469 452.773438 590.777344 452.445312 589.835938 C 452.117188 588.890625 451.761719 587.957031 451.378906 587.035156 C 451 586.109375 450.589844 585.199219 450.15625 584.300781 C 449.722656 583.398438 449.261719 582.511719 448.773438 581.640625 C 448.289062 580.769531 447.777344 579.910156 447.242188 579.066406 C 446.707031 578.222656 446.144531 577.394531 445.5625 576.585938 C 444.980469 575.773438 444.371094 574.980469 443.742188 574.203125 C 443.113281 573.429688 442.460938 572.671875 441.789062 571.933594 C 441.113281 571.195312 440.417969 570.476562 439.703125 569.78125 C 438.988281 569.082031 438.253906 568.40625 437.5 567.75 C 436.746094 567.09375 435.972656 566.460938 435.179688 565.851562 C 434.390625 565.242188 433.582031 564.652344 432.757812 564.089844 C 431.933594 563.527344 431.089844 562.988281 430.234375 562.472656 C 429.378906 561.957031 428.507812 561.46875 427.625 561.003906 C 426.738281 560.539062 425.839844 560.101562 424.929688 559.6875 C 424.019531 559.277344 423.101562 558.890625 422.167969 558.53125 C 421.234375 558.171875 420.292969 557.839844 419.339844 557.535156 C 418.390625 557.230469 417.429688 556.957031 416.460938 556.707031 C 415.492188 556.457031 414.519531 556.238281 413.539062 556.042969 C 412.558594 555.851562 411.574219 555.6875 410.582031 555.554688 C 409.59375 555.417969 408.601562 555.3125 407.605469 555.234375 C 406.609375 555.15625 405.609375 555.105469 404.609375 555.085938 C 403.613281 555.066406 402.613281 555.078125 401.613281 555.113281 C 400.617188 555.152344 399.621094 555.21875 398.625 555.316406 C 397.628906 555.410156 396.640625 555.535156 395.652344 555.6875 C 394.664062 555.839844 393.683594 556.023438 392.707031 556.234375 C 391.730469 556.445312 390.757812 556.683594 389.796875 556.949219 C 388.832031 557.214844 387.878906 557.507812 386.933594 557.828125 C 385.984375 558.152344 385.050781 558.5 384.125 558.875 C 383.199219 559.253906 382.285156 559.65625 381.382812 560.082031 C 380.480469 560.511719 379.589844 560.964844 378.714844 561.445312 C 377.835938 561.925781 376.976562 562.433594 376.128906 562.964844 C 375.28125 563.492188 374.453125 564.046875 373.636719 564.625 C 372.820312 565.203125 372.023438 565.804688 371.246094 566.429688 C 370.464844 567.054688 369.703125 567.703125 368.960938 568.371094 C 368.21875 569.039062 367.496094 569.730469 366.792969 570.441406 C 366.09375 571.152344 365.410156 571.882812 364.75 572.632812 C 364.089844 573.382812 363.453125 574.148438 362.835938 574.9375 C 362.222656 575.722656 361.628906 576.527344 361.058594 577.351562 C 360.492188 578.171875 359.945312 579.007812 359.425781 579.863281 C 358.90625 580.714844 358.410156 581.582031 357.941406 582.464844 C 357.46875 583.34375 357.027344 584.238281 356.609375 585.148438 C 356.1875 586.054688 355.796875 586.972656 355.433594 587.902344 C 355.066406 588.835938 354.730469 589.773438 354.417969 590.722656 C 354.109375 591.671875 353.824219 592.632812 353.570312 593.597656 C 353.316406 594.5625 353.089844 595.535156 352.890625 596.515625 C 352.691406 597.496094 352.519531 598.480469 352.378906 599.46875 C 352.238281 600.457031 352.125 601.449219 352.039062 602.445312 C 351.957031 603.441406 351.902344 604.4375 351.875 605.4375 C 351.847656 606.4375 351.851562 607.433594 351.882812 608.433594 C 351.914062 609.433594 351.972656 610.429688 352.0625 611.425781 C 352.152344 612.417969 352.269531 613.410156 352.417969 614.398438 C 352.5625 615.386719 352.738281 616.371094 352.941406 617.351562 C 353.148438 618.328125 353.378906 619.300781 353.636719 620.265625 C 353.898438 621.230469 354.1875 622.183594 354.5 623.132812 C 358.515625 634.816406 369.253906 645.203125 379.050781 652.757812 L 298.914062 688.636719 L 199.773438 467.105469 C 198.9375 465.277344 198.5 463.355469 198.457031 461.347656 C 198.417969 459.335938 198.777344 457.398438 199.535156 455.539062 C 200.238281 453.667969 201.277344 452.007812 202.648438 450.554688 C 204.019531 449.101562 205.617188 447.96875 207.441406 447.160156 L 213.699219 444.328125 L 236.832031 516.4375 C 237.691406 518.101562 238.757812 519.617188 240.027344 520.988281 C 241.300781 522.363281 242.730469 523.542969 244.320312 524.527344 C 245.90625 525.515625 247.597656 526.273438 249.394531 526.804688 C 251.1875 527.332031 253.019531 527.617188 254.890625 527.652344 C 254.890625 527.652344 273.300781 528.003906 280.855469 513.960938 L 280.855469 513.726562 C 282.324219 511.152344 283.566406 508.472656 284.582031 505.691406 C 285.597656 502.90625 286.371094 500.058594 286.902344 497.144531 C 287.433594 494.230469 287.71875 491.292969 287.753906 488.328125 C 287.789062 485.367188 287.574219 482.421875 287.109375 479.496094 C 285.339844 468.167969 280.5 438.542969 278.492188 426.621094 C 283.210938 424.003906 287.546875 420.859375 291.5 417.1875 C 295.453125 413.511719 298.90625 409.417969 301.863281 404.90625 L 421.65625 351.203125 C 421.65625 351.203125 424.960938 349.316406 427.558594 349.90625 C 429.25 350.761719 430.46875 352.0625 431.21875 353.800781 L 468.277344 438.542969 C 468.65625 439.484375 469.171875 440.34375 469.820312 441.121094 C 470.46875 441.902344 471.222656 442.558594 472.082031 443.101562 C 472.941406 443.640625 473.863281 444.035156 474.84375 444.285156 C 475.828125 444.535156 476.824219 444.628906 477.835938 444.5625 C 478.847656 444.496094 479.824219 444.28125 480.769531 443.921875 C 481.714844 443.5625 482.585938 443.070312 483.386719 442.449219 C 484.1875 441.832031 484.875 441.105469 485.460938 440.28125 C 486.042969 439.453125 486.492188 438.558594 486.808594 437.597656 C 487.003906 436.871094 487.21875 436.148438 487.457031 435.433594 C 487.695312 434.71875 487.957031 434.011719 488.238281 433.3125 C 488.519531 432.613281 488.820312 431.925781 489.144531 431.242188 C 489.46875 430.5625 489.8125 429.894531 490.175781 429.234375 C 490.542969 428.574219 490.925781 427.925781 491.328125 427.289062 C 491.734375 426.652344 492.15625 426.03125 492.597656 425.417969 C 493.042969 424.808594 493.5 424.214844 493.980469 423.628906 C 494.457031 423.046875 494.953125 422.480469 495.46875 421.929688 C 495.980469 421.378906 496.511719 420.839844 497.054688 420.320312 C 497.601562 419.800781 498.164062 419.300781 498.738281 418.8125 C 499.316406 418.328125 499.90625 417.859375 500.511719 417.410156 C 501.117188 416.960938 501.734375 416.53125 502.367188 416.121094 C 502.996094 415.707031 503.640625 415.316406 504.292969 414.941406 C 504.949219 414.570312 505.617188 414.21875 506.292969 413.886719 C 506.96875 413.554688 507.65625 413.242188 508.351562 412.953125 C 509.046875 412.664062 509.75 412.394531 510.460938 412.148438 C 511.175781 411.902344 511.894531 411.675781 512.617188 411.472656 C 513.34375 411.269531 514.074219 411.089844 514.8125 410.929688 C 515.550781 410.769531 516.289062 410.636719 517.035156 410.523438 C 517.78125 410.40625 518.527344 410.316406 519.277344 410.25 C 520.03125 410.183594 520.78125 410.136719 521.535156 410.113281 C 522.289062 410.09375 523.042969 410.09375 523.792969 410.117188 C 524.546875 410.140625 525.300781 410.1875 526.050781 410.257812 C 526.800781 410.328125 527.546875 410.421875 528.292969 410.539062 C 529.039062 410.652344 529.777344 410.789062 530.515625 410.953125 C 531.25 411.113281 531.980469 411.296875 532.707031 411.5 C 533.433594 411.707031 534.148438 411.933594 534.863281 412.183594 C 535.574219 412.429688 536.277344 412.703125 536.96875 412.992188 C 537.664062 413.285156 538.351562 413.597656 539.027344 413.933594 C 539.703125 414.265625 540.367188 414.621094 541.019531 414.996094 C 541.675781 415.367188 542.316406 415.761719 542.945312 416.175781 C 543.578125 416.589844 544.195312 417.023438 544.796875 417.472656 C 545.402344 417.925781 545.992188 418.394531 546.566406 418.878906 C 547.140625 419.367188 547.699219 419.871094 548.246094 420.394531 C 548.789062 420.914062 549.316406 421.453125 549.828125 422.003906 C 550.339844 422.558594 550.835938 423.128906 551.3125 423.710938 C 551.789062 424.292969 552.246094 424.890625 552.6875 425.503906 C 553.128906 426.117188 553.550781 426.738281 553.953125 427.378906 C 554.355469 428.015625 554.734375 428.664062 555.097656 429.324219 C 555.460938 429.984375 555.804688 430.65625 556.125 431.335938 C 556.445312 432.019531 556.746094 432.710938 557.027344 433.410156 C 557.308594 434.109375 557.566406 434.816406 557.800781 435.53125 C 558.039062 436.25 558.253906 436.96875 558.445312 437.699219 C 558.636719 438.425781 558.808594 439.160156 558.953125 439.902344 C 559.101562 440.640625 559.226562 441.382812 559.328125 442.128906 C 559.433594 442.875 559.511719 443.625 559.566406 444.375 C 559.625 445.128906 559.660156 445.878906 559.667969 446.632812 C 559.679688 447.386719 559.667969 448.140625 559.632812 448.894531 C 559.597656 449.644531 559.539062 450.398438 559.457031 451.148438 C 559.375 451.894531 559.273438 452.640625 559.144531 453.386719 C 559.019531 454.128906 558.871094 454.867188 558.699219 455.601562 C 558.527344 456.335938 558.332031 457.0625 558.117188 457.785156 C 557.902344 458.507812 557.664062 459.222656 557.402344 459.929688 C 557.144531 460.636719 556.863281 461.335938 556.558594 462.023438 C 556.257812 462.714844 555.933594 463.394531 555.589844 464.066406 C 555.246094 464.738281 554.882812 465.398438 554.5 466.046875 C 554.117188 466.695312 553.710938 467.328125 553.289062 467.953125 C 552.867188 468.578125 552.425781 469.1875 551.964844 469.785156 C 551.503906 470.382812 551.027344 470.964844 550.53125 471.53125 C 550.035156 472.097656 549.523438 472.652344 548.992188 473.1875 C 548.464844 473.722656 547.917969 474.246094 547.359375 474.746094 C 546.796875 475.25 546.222656 475.738281 545.628906 476.203125 C 545.039062 476.671875 544.433594 477.121094 543.816406 477.554688 C 543.199219 477.984375 542.566406 478.398438 541.925781 478.789062 C 531.65625 484.574219 513.71875 483.15625 506.519531 482.332031 C 505.578125 482.222656 504.640625 482.238281 503.703125 482.375 C 502.769531 482.511719 501.867188 482.769531 500.996094 483.140625 C 500.128906 483.511719 499.320312 483.992188 498.578125 484.574219 C 497.832031 485.15625 497.175781 485.824219 496.605469 486.578125 C 496.605469 486.695312 493.179688 490.59375 495.421875 497.320312 L 530.476562 575.453125 C 530.792969 576.183594 531.007812 576.941406 531.117188 577.730469 C 531.226562 578.519531 531.230469 579.308594 531.128906 580.101562 C 531.023438 580.890625 530.816406 581.652344 530.503906 582.386719 C 530.195312 583.117188 529.792969 583.796875 529.296875 584.421875 Z M 736.785156 597.050781 C 736.167969 599.1875 735.265625 601.195312 734.070312 603.070312 L 734.070312 603.304688 C 734.070312 603.304688 730.527344 609.089844 726.398438 615.460938 L 724.980469 617.703125 L 583.941406 617.703125 L 582.761719 616.523438 C 580.5 614.113281 578.464844 611.523438 576.65625 608.757812 C 574.851562 605.992188 573.296875 603.085938 572 600.046875 C 570.699219 597.007812 569.675781 593.878906 568.925781 590.660156 C 568.179688 587.441406 567.714844 584.179688 567.535156 580.878906 L 669.746094 538.273438 C 667.503906 542.285156 665.378906 546.535156 663.371094 550.785156 L 676.238281 556.804688 C 678.832031 551.257812 681.667969 545.828125 684.617188 540.632812 C 687.640625 535.433594 691.496094 530.949219 696.183594 527.179688 C 699.585938 524.386719 703.28125 522.0625 707.277344 520.214844 L 712.472656 518.089844 L 711.644531 512.542969 C 711.527344 512.425781 711.171875 509.828125 710.464844 505.933594 C 708.339844 493.1875 703.855469 465.570312 702.085938 454.710938 C 701.753906 452.605469 701.605469 450.484375 701.628906 448.347656 C 701.65625 446.214844 701.863281 444.097656 702.242188 442 C 702.625 439.902344 703.179688 437.847656 703.90625 435.839844 C 704.632812 433.835938 705.519531 431.902344 706.570312 430.046875 C 707.316406 428.964844 708.179688 427.988281 709.160156 427.113281 C 710.144531 426.238281 711.214844 425.496094 712.375 424.878906 C 713.535156 424.261719 714.753906 423.792969 716.027344 423.46875 C 717.300781 423.144531 718.59375 422.976562 719.90625 422.964844 C 723.566406 423.082031 725.097656 424.96875 725.6875 426.152344 L 746.460938 490.828125 L 750.828125 504.402344 L 756.730469 522.929688 Z M 736.785156 597.050781 " fill-opacity="1" fill-rule="nonzero"/></g><path fill="#2f5597" d="M 330.332031 716.972656 L 342.917969 710.476562 L 359.261719 742.148438 L 346.679688 748.644531 Z M 330.332031 716.972656 " fill-opacity="1" fill-rule="nonzero"/><path fill="#2f5597" d="M 228.167969 742.722656 L 244.515625 711.050781 L 257.097656 717.546875 L 240.753906 749.21875 Z M 228.167969 742.722656 " fill-opacity="1" fill-rule="nonzero"/><g clip-path="url(#d188c484a8)"><path fill="#2f5597" d="M 285.921875 766.964844 L 286.792969 731.332031 L 300.949219 731.675781 L 300.078125 767.308594 Z M 285.921875 766.964844 " fill-opacity="1" fill-rule="nonzero"/></g><path fill="#2f5597" d="M 629.769531 182.359375 L 642.351562 175.863281 L 658.699219 207.535156 L 646.113281 214.03125 Z M 629.769531 182.359375 " fill-opacity="1" fill-rule="nonzero"/><path fill="#2f5597" d="M 731.96875 208.011719 L 748.3125 176.339844 L 760.898438 182.835938 L 744.554688 214.507812 Z M 731.96875 208.011719 " fill-opacity="1" fill-rule="nonzero"/><path fill="#2f5597" d="M 687.296875 193.039062 L 688.167969 157.40625 L 702.324219 157.75 L 701.453125 193.382812 Z M 687.296875 193.039062 " fill-opacity="1" fill-rule="nonzero"/><g fill="#2f5597" fill-opacity="1"><g transform="translate(437.619941, 844.75582)"><g><path d="M 13.570312 -0.214844 L 13.570312 -14.675781 L 9.820312 -14.675781 C 8.09375 -14.675781 6.628906 -14.101562 5.421875 -12.949219 C 4.21875 -11.800781 3.613281 -10.367188 3.613281 -8.660156 C 3.613281 -6.953125 4.207031 -5.527344 5.394531 -4.382812 C 6.582031 -3.242188 8.03125 -2.671875 9.738281 -2.671875 C 10.765625 -2.671875 11.710938 -2.914062 12.574219 -3.398438 L 12.574219 -0.675781 C 11.4375 -0.296875 10.449219 -0.109375 9.605469 -0.109375 C 7.175781 -0.109375 5.105469 -0.929688 3.386719 -2.578125 C 1.667969 -4.222656 0.808594 -6.25 0.808594 -8.660156 C 0.808594 -10.027344 1.125 -11.332031 1.753906 -12.574219 C 2.507812 -14.011719 3.570312 -15.125 4.9375 -15.917969 C 6.304688 -16.710938 7.816406 -17.105469 9.46875 -17.105469 L 16.1875 -17.105469 L 16.1875 -0.214844 Z M 13.570312 -0.214844 "/></g></g></g><g fill="#2f5597" fill-opacity="1"><g transform="translate(454.964895, 844.75582)"><g><path d="M 7.636719 -14.839844 C 6.25 -14.839844 5.105469 -14.359375 4.195312 -13.394531 C 3.285156 -12.433594 2.832031 -11.242188 2.832031 -9.820312 L 2.832031 -0.214844 L 0.0546875 -0.214844 L 0.0546875 -17.105469 L 2.832031 -17.105469 L 2.832031 -15.351562 C 3.730469 -16.050781 4.515625 -16.539062 5.179688 -16.808594 C 5.988281 -17.167969 6.890625 -17.347656 7.878906 -17.347656 C 10.164062 -17.347656 12.03125 -16.449219 13.488281 -14.648438 L 11.117188 -13.355469 C 10.199219 -14.34375 9.039062 -14.839844 7.636719 -14.839844 Z M 7.636719 -14.839844 "/></g></g></g><g fill="#2f5597" fill-opacity="1"><g transform="translate(467.643167, 844.75582)"><g><path d="M 15.863281 -0.214844 L 13.191406 -0.214844 L 13.191406 -9.820312 C 13.191406 -11.222656 12.742188 -12.410156 11.84375 -13.382812 C 10.945312 -14.351562 9.792969 -14.839844 8.390625 -14.839844 C 6.988281 -14.839844 5.835938 -14.359375 4.9375 -13.394531 C 4.039062 -12.433594 3.589844 -11.242188 3.589844 -9.820312 L 3.589844 -0.214844 L 0.808594 -0.214844 L 0.808594 -17.105469 L 3.589844 -17.105469 L 3.589844 -15.351562 C 4.488281 -16.050781 5.269531 -16.539062 5.933594 -16.808594 C 6.746094 -17.167969 7.644531 -17.347656 8.632812 -17.347656 C 9.890625 -17.347656 11.050781 -17.046875 12.113281 -16.445312 C 13.175781 -15.839844 14.027344 -15.035156 14.675781 -14.027344 C 15.414062 -15.019531 16.355469 -15.820312 17.496094 -16.429688 C 18.636719 -17.042969 19.804688 -17.347656 20.988281 -17.347656 C 23.023438 -17.347656 24.738281 -16.625 26.144531 -15.175781 C 27.546875 -13.726562 28.246094 -11.988281 28.246094 -9.957031 L 28.246094 -0.214844 L 25.550781 -0.214844 L 25.550781 -9.820312 C 25.550781 -11.222656 25.101562 -12.410156 24.199219 -13.382812 C 23.300781 -14.351562 22.160156 -14.839844 20.773438 -14.839844 C 19.371094 -14.839844 18.203125 -14.363281 17.265625 -13.410156 C 16.332031 -12.457031 15.863281 -11.285156 15.863281 -9.902344 Z M 15.863281 -0.214844 "/></g></g></g><g fill="#2f5597" fill-opacity="1"><g transform="translate(496.830158, 844.75582)"><g><path d="M 15.808594 -9.957031 C 15.304688 -13.210938 13.273438 -14.839844 9.710938 -14.839844 C 7.933594 -14.839844 6.398438 -14.234375 5.113281 -13.03125 C 3.828125 -11.824219 3.191406 -10.359375 3.210938 -8.632812 C 3.230469 -6.941406 3.835938 -5.503906 5.03125 -4.316406 C 6.226562 -3.128906 7.671875 -2.535156 9.363281 -2.535156 C 10.800781 -2.535156 12.167969 -2.804688 13.460938 -3.34375 C 14.972656 -3.992188 15.9375 -4.867188 16.347656 -5.960938 L 18.15625 -4.207031 C 17.417969 -2.824219 16.242188 -1.761719 14.621094 -1.023438 C 13.148438 -0.324219 11.511719 0.0273438 9.710938 0.0273438 C 7.195312 0.0273438 5.039062 -0.804688 3.25 -2.46875 C 1.460938 -4.132812 0.566406 -6.1875 0.566406 -8.632812 C 0.566406 -11.0625 1.464844 -13.121094 3.265625 -14.8125 C 5.0625 -16.503906 7.210938 -17.347656 9.710938 -17.347656 C 12.410156 -17.328125 14.523438 -16.71875 16.050781 -15.511719 C 17.871094 -14.09375 18.777344 -11.890625 18.777344 -8.902344 C 18.777344 -8.542969 18.769531 -8.164062 18.75 -7.769531 L 5.800781 -7.769531 L 5.800781 -9.929688 L 15.78125 -9.929688 Z M 15.808594 -9.957031 "/></g></g></g><g fill="#2f5597" fill-opacity="1"><g transform="translate(516.279169, 844.75582)"><g><path d="M 0.808594 -21.554688 L 3.589844 -21.554688 L 3.589844 -0.214844 L 0.808594 -0.214844 Z M 0.808594 -21.554688 "/></g></g></g><g fill="#2f5597" fill-opacity="1"><g transform="translate(520.91888, 844.75582)"><g><path d="M 0.484375 -17.078125 L 3.722656 -17.078125 L 7.367188 -11.492188 L 11.007812 -17.078125 L 14.273438 -17.078125 L 8.769531 -8.660156 L 8.769531 -0.214844 L 5.988281 -0.214844 L 5.988281 -8.660156 Z M 0.484375 -17.078125 "/></g></g></g></svg>