<svg width="592" height="592" viewBox="0 0 592 592" fill="none" xmlns="http://www.w3.org/2000/svg"><path d="M505.142 276.938C498.929 280.677 491.691 282.353 484.467 281.726C477.242 281.099 470.402 278.201 464.926 273.447C459.45 268.693 455.62 262.327 453.984 255.263C452.349 248.198 452.992 240.797 455.822 234.12C458.652 227.443 463.523 221.834 469.737 218.096C475.951 214.358 483.189 212.683 490.413 213.312C497.637 213.941 504.477 216.841 509.952 221.596C515.427 226.352 519.255 232.718 520.889 239.784C522.533 246.846 521.895 254.248 519.065 260.925C516.235 267.601 511.36 273.208 505.142 276.938Z" fill="#D7E1F4" fill-opacity="0.37"></path><path d="M497.932 243.726C497.906 245.791 497.269 247.802 496.1 249.504C494.932 251.207 493.285 252.525 491.368 253.292C489.451 254.058 487.349 254.24 485.329 253.812C483.309 253.385 481.461 252.369 480.018 250.891C478.576 249.414 477.603 247.542 477.224 245.512C476.845 243.483 477.076 241.386 477.889 239.488C478.701 237.589 480.058 235.974 481.788 234.847C483.517 233.719 485.543 233.13 487.607 233.153C488.98 233.169 490.336 233.455 491.597 233.994C492.859 234.534 494.002 235.318 494.961 236.3C495.92 237.282 496.676 238.443 497.186 239.717C497.696 240.992 497.949 242.354 497.932 243.726Z" fill="white"></path><path d="M505.188 272.628V276.938C499.722 280.222 493.45 281.92 487.074 281.84C480.698 281.761 474.47 279.907 469.088 276.488L469.147 272.19C469.176 269.82 469.671 267.479 470.604 265.301C471.538 263.123 472.891 261.15 474.587 259.495C476.283 257.84 478.288 256.535 480.488 255.654C482.689 254.774 485.041 254.336 487.41 254.365C489.78 254.393 492.121 254.889 494.299 255.822C496.477 256.755 498.45 258.109 500.105 259.804C501.76 261.5 503.065 263.506 503.946 265.706C504.826 267.906 505.264 270.258 505.235 272.628H505.188Z" fill="white"></path><path d="M119.097 174.747C115.513 176.904 111.398 178.019 107.215 177.967C103.032 177.914 98.9461 176.697 95.4169 174.451C91.2891 171.823 88.1304 167.922 86.4197 163.338C84.709 158.753 84.5396 153.736 85.9371 149.047C87.3347 144.358 90.223 140.252 94.1642 137.353C98.1054 134.453 102.885 132.917 107.777 132.978C112.67 133.039 117.409 134.694 121.277 137.691C125.144 140.689 127.929 144.865 129.209 149.588C130.489 154.311 130.194 159.322 128.369 163.862C126.544 168.402 123.289 172.223 119.097 174.747Z" fill="#D7E1F4" fill-opacity="0.37"></path><path d="M114.374 152.985C114.36 154.339 113.945 155.658 113.18 156.776C112.416 157.893 111.338 158.759 110.081 159.264C108.825 159.768 107.447 159.889 106.122 159.61C104.797 159.331 103.584 158.666 102.638 157.697C101.691 156.729 101.053 155.502 100.804 154.171C100.555 152.84 100.707 151.465 101.239 150.221C101.772 148.976 102.662 147.917 103.797 147.178C104.931 146.439 106.26 146.054 107.614 146.07C108.512 146.079 109.399 146.266 110.225 146.618C111.051 146.971 111.8 147.483 112.428 148.125C113.056 148.768 113.551 149.527 113.885 150.361C114.219 151.195 114.385 152.086 114.374 152.985Z" fill="white"></path><path d="M119.133 171.917V174.747C115.549 176.904 111.434 178.019 107.251 177.967C103.068 177.914 98.9823 176.697 95.4531 174.451V171.644C95.4892 168.504 96.7713 165.507 99.0173 163.312C101.263 161.117 104.289 159.905 107.429 159.941C110.569 159.977 113.567 161.259 115.762 163.505C117.956 165.751 119.169 168.777 119.133 171.917Z" fill="white"></path><path d="M219.573 177.979H69.6309V75.3971H219.573V177.979ZM70.8149 176.795H218.389V76.5811H70.8149V176.795Z" fill="#EBEBEB"></path><path d="M81.3521 82.0038C81.3521 82.5939 81.1771 83.1708 80.8493 83.6615C80.5214 84.1521 80.0555 84.5346 79.5103 84.7604C78.9651 84.9862 78.3651 85.0453 77.7864 84.9302C77.2076 84.8151 76.6759 84.5309 76.2587 84.1136C75.8414 83.6963 75.5572 83.1647 75.4421 82.5859C75.327 82.0071 75.3861 81.4072 75.6119 80.862C75.8377 80.3168 76.2201 79.8508 76.7108 79.523C77.2015 79.1951 77.7783 79.0201 78.3684 79.0201C79.1598 79.0201 79.9187 79.3345 80.4782 79.894C81.0378 80.4536 81.3521 81.2125 81.3521 82.0038Z" fill="#A6A6A6"></path><path d="M93.5377 82.0038C93.5377 82.5939 93.3627 83.1708 93.0348 83.6615C92.707 84.1521 92.241 84.5346 91.6958 84.7604C91.1506 84.9862 90.5507 85.0453 89.9719 84.9302C89.3931 84.8151 88.8615 84.5309 88.4442 84.1136C88.0269 83.6963 87.7428 83.1647 87.6276 82.5859C87.5125 82.0071 87.5716 81.4072 87.7974 80.862C88.0233 80.3168 88.4057 79.8508 88.8963 79.523C89.387 79.1951 89.9639 79.0201 90.554 79.0201C91.3453 79.0201 92.1042 79.3345 92.6638 79.894C93.2233 80.4536 93.5377 81.2125 93.5377 82.0038Z" fill="#EBEBEB"></path><path d="M105.719 82.0038C105.719 82.5939 105.544 83.1708 105.216 83.6615C104.889 84.1521 104.423 84.5346 103.877 84.7604C103.332 84.9862 102.732 85.0453 102.154 84.9302C101.575 84.8151 101.043 84.5309 100.626 84.1136C100.209 83.6963 99.9244 83.1647 99.8093 82.5859C99.6942 82.0071 99.7532 81.4072 99.9791 80.862C100.205 80.3168 100.587 79.8508 101.078 79.523C101.569 79.1951 102.146 79.0201 102.736 79.0201C103.527 79.0201 104.286 79.3345 104.845 79.894C105.405 80.4536 105.719 81.2125 105.719 82.0038Z" fill="#3581B8"></path><path d="M218.98 87.2608H70.2227V88.4448H218.98V87.2608Z" fill="#EBEBEB"></path><path d="M161.779 204.896L83.6602 215.555L90.42 265.096L168.539 254.437L161.779 204.896Z" fill="#D7E1F4" fill-opacity="0.37"></path><path d="M161.77 204.915C159.023 208.36 156.205 211.687 153.482 215.085C150.759 218.483 147.846 221.775 145.017 225.09C142.187 228.405 139.097 231.981 136.113 235.391L135.841 235.723C133.212 238.73 130.568 241.741 127.908 244.756L127.517 245.183L127.032 244.875C123.669 242.684 120.33 240.494 116.979 238.28L116.624 238.055C112.835 235.557 109.047 233.047 105.27 230.489C101.493 227.932 98.0473 225.611 94.448 223.137C90.8486 220.662 87.2611 218.152 83.6973 215.559C87.4032 217.69 91.0736 219.952 94.744 222.154C98.4144 224.356 102.097 226.653 105.767 228.95C109.84 231.484 113.913 234.061 117.986 236.682C121.041 238.623 124.091 240.597 127.138 242.602C129.506 239.89 131.957 237.179 134.384 234.503C137.617 230.951 140.837 227.328 144.093 223.776C147.006 220.619 149.934 217.461 152.878 214.304C155.838 211.119 158.763 207.958 161.77 204.915Z" fill="white"></path><path d="M118.211 237.794L118.128 237.889C117.773 238.292 117.406 238.706 117.039 239.073C115.31 240.991 113.487 242.85 111.687 244.674C109.461 246.911 107.164 249.078 104.844 251.233C102.523 253.388 100.179 255.46 97.7398 257.508C95.3008 259.556 92.8854 261.581 90.3398 263.428C92.4237 261.06 94.6259 258.763 96.8518 256.537C99.0778 254.311 101.387 252.121 103.695 249.978C106.004 247.835 108.431 245.727 110.799 243.679C112.717 242.045 114.671 240.423 116.719 238.884C117.181 238.517 117.655 238.173 118.128 237.818L118.211 237.794Z" fill="white"></path><path d="M168.128 252.891C165.168 251.707 162.208 250.463 159.413 249.137C156.619 247.811 153.718 246.39 150.9 244.97C148.083 243.549 145.3 242.045 142.612 240.482C140.375 239.227 138.149 237.925 135.982 236.539L134.585 235.651L134.49 235.58H134.609L136.254 236.232C138.622 237.179 140.908 238.221 143.204 239.286C146.082 240.612 148.9 242.021 151.706 243.454C154.512 244.887 157.306 246.379 160.053 247.941C162.8 249.504 165.464 251.138 168.128 252.891Z" fill="white"></path><path d="M503.201 73.6921H406.516V135.011H503.201V73.6921Z" fill="#D7E1F4" fill-opacity="0.37"></path><path d="M503.202 73.6921C499.294 77.4217 495.316 80.9974 491.362 84.6797C487.407 88.3619 483.417 91.8665 479.427 95.4304C475.437 98.9942 471.08 102.819 466.888 106.465L466.521 106.82C462.819 110.049 459.105 113.273 455.38 116.494L454.823 116.944L454.291 116.494C450.573 113.273 446.867 110.045 443.173 106.809L442.782 106.465C438.575 102.819 434.391 99.1324 430.232 95.4067C426.253 91.8547 422.275 88.3027 418.309 84.6797C414.342 81.0566 410.4 77.4217 406.469 73.6921C410.625 76.8889 414.757 80.2515 418.806 83.5312C422.855 86.8109 426.999 90.2089 431.06 93.607C435.599 97.3563 440.126 101.165 444.641 105.033C448.027 107.898 451.413 110.779 454.8 113.676C458.162 110.787 461.548 107.886 464.935 105.033C469.45 101.196 473.976 97.3879 478.515 93.607C482.572 90.2287 486.653 86.878 490.758 83.5549C494.973 80.2515 499.046 76.8889 503.202 73.6921Z" fill="white"></path><path d="M444.829 106.43C444.792 106.464 444.753 106.496 444.711 106.524C444.202 106.963 443.705 107.401 443.195 107.815C440.768 109.863 438.282 111.829 435.76 113.735C432.682 116.103 429.532 118.341 426.359 120.579C423.186 122.816 419.989 124.948 416.721 127.043C413.453 129.139 410.162 131.175 406.752 133.046C409.676 130.477 412.672 128.085 415.81 125.753C418.947 123.42 422.049 121.147 425.199 118.909C428.348 116.671 431.592 114.528 434.86 112.433C437.453 110.763 440.093 109.117 442.805 107.578C443.42 107.223 444.048 106.868 444.687 106.524L444.829 106.43Z" fill="white"></path><path d="M502.974 133.034C499.552 131.164 496.249 129.115 492.993 127.031C489.737 124.948 486.528 122.757 483.331 120.567C480.135 118.376 477.021 116.079 473.942 113.723C471.432 111.829 468.946 109.875 466.542 107.803C466.01 107.365 465.512 106.927 465.003 106.489C464.961 106.46 464.922 106.429 464.885 106.394L465.027 106.465L466.909 107.531C469.621 109.07 472.249 110.716 474.854 112.385C478.122 114.481 481.319 116.66 484.504 118.862C487.689 121.064 490.814 123.349 493.893 125.705C496.971 128.061 500.038 130.465 502.974 133.034Z" fill="white"></path><path d="M279.531 537.394C373.164 537.394 449.068 531.515 449.068 524.263C449.068 517.012 373.164 511.133 279.531 511.133C185.898 511.133 109.994 517.012 109.994 524.263C109.994 531.515 185.898 537.394 279.531 537.394Z" fill="#EBEBEB"></path><path d="M336.922 0H335.738V162.871H336.922V0Z" fill="#C7C7C7"></path><path d="M287.998 209.461L291.893 218.01H380.788L384.66 209.461L346.819 183.26H325.851L287.998 209.461Z" fill="#950952"></path><path d="M323.223 158.029L325.851 183.26H346.82L349.448 158.029H323.223Z" fill="#950952"></path><path opacity="0.1" d="M288.01 209.461L291.893 218.01H380.8L384.672 209.461H288.01Z" fill="black"></path><path opacity="0.1" d="M325.851 183.259L325.566 180.548L347.257 178.985L346.819 183.259H325.851Z" fill="black"></path><path d="M256.254 0H255.07V111.616H256.254V0Z" fill="#C7C7C7"></path><path d="M207.332 158.206L211.227 166.755H300.122L303.994 158.206L266.153 132.016H245.185L207.332 158.206Z" fill="#950952"></path><path d="M242.555 106.773L245.183 132.016H266.152L268.78 106.773H242.555Z" fill="#950952"></path><path opacity="0.1" d="M207.344 158.218L211.227 166.755H300.122L304.006 158.218H207.344Z" fill="black"></path><path opacity="0.1" d="M245.185 132.016L244.877 129.092L266.603 127.683L266.153 132.016H245.185Z" fill="black"></path><path d="M458.562 371.421C458.916 365.441 459.763 359.501 461.095 353.661C462.35 348.392 464.126 343.005 467.454 338.636C468.917 336.583 470.771 334.84 472.911 333.507C475.051 332.174 477.433 331.277 479.921 330.869C484.811 330.277 489.393 332.455 493.052 335.522C497.574 339.334 501.044 344.39 504.3 349.28C507.865 354.753 511.106 360.43 514.008 366.282C514.115 366.472 513.819 366.637 513.724 366.448C511.203 361.492 508.297 356.742 505.034 352.24C502.058 347.919 498.711 343.866 495.029 340.128C491.678 336.86 487.416 333.793 482.55 333.639C477.683 333.485 473.255 336.197 470.354 339.926C467.098 344.094 465.441 349.292 464.198 354.359C462.94 359.914 462.124 365.56 461.758 371.243C460.799 382.977 460.574 394.781 460.278 406.538C460.125 413.192 460.042 419.858 459.971 426.512L459.9 436.635C460.018 439.893 459.888 443.154 459.509 446.392C459.39 447.043 458.325 446.984 458.206 446.392C457.812 443.326 457.665 440.234 457.768 437.145C457.721 433.948 457.682 430.751 457.65 427.554C457.587 421.342 457.563 415.126 457.579 408.906C457.555 396.391 457.709 383.876 458.562 371.421Z" fill="#263238"></path><path d="M475.328 362.576C475.943 359.261 477.068 354.939 478.951 352.37C482.349 347.753 486.055 349.754 482.633 354.868C480.135 358.667 478.517 362.975 477.897 367.478C477.897 367.478 483.604 375.636 490.495 379.65C490.199 376.512 489.311 371.693 489.926 367.04C491.253 356.964 497.35 357.568 495.846 365.536C494.662 371.954 494.142 378.773 494.473 381.722C496.775 383.214 499.248 384.427 501.838 385.333C501.435 384.149 501.021 382.763 500.559 381.059C498.108 372.025 504.111 369.219 504.324 374.298C504.724 378.631 505.516 382.919 506.692 387.109C509.995 388.222 512.742 388.979 514.412 389.56C518.753 391.168 522.632 393.819 525.707 397.279C528.845 394.445 531.451 391.073 533.403 387.322C531.295 385.51 527.968 382.823 523.351 379.555C514.696 373.445 517.703 365.726 524.535 370.521C529.484 373.99 533.32 380.407 535.072 383.699C537.408 377.959 538.734 371.858 538.991 365.667C532.195 359.285 515.371 350.381 520.438 350.381C525.008 350.381 535.214 357.071 538.956 359.652C538.867 357.898 538.677 356.151 538.388 354.419C531.982 350.215 511.156 343.691 514.483 341.809C518.117 339.749 532.645 346.474 537.038 348.593C536.212 345.74 534.911 343.046 533.19 340.625C524.333 328.785 508.326 324.7 501.411 326.95C496.486 328.548 497.859 341.051 496.865 340.625C477.045 332.704 468.046 338.292 475.328 362.576ZM523.872 361.203C525.281 359.51 531.769 364.506 529.898 367.229C528.028 369.953 522.037 363.381 523.848 361.203H523.872ZM489.926 350.547C491.631 351.636 489.109 357.947 486.469 356.041C484.255 354.407 488.186 349.446 489.903 350.547H489.926Z" fill="#3581B8"></path><path d="M492.544 352.477C493.432 350.713 494.368 348.925 495.386 347.255C496.323 345.577 497.417 343.991 498.654 342.519C498.382 342.176 498.109 341.821 497.813 341.477C497.695 341.335 497.896 341.146 498.014 341.276C498.346 341.655 498.666 342.046 498.985 342.46C499.019 342.477 499.049 342.5 499.073 342.529C499.097 342.557 499.116 342.59 499.127 342.626C500.351 344.094 501.507 345.598 502.597 347.137C504.544 347.585 506.465 348.143 508.351 348.806C510.293 349.458 512.222 350.132 514.105 350.926C514.306 351.009 514.2 351.34 514.01 351.245C512.14 350.428 510.245 349.623 508.303 348.972C506.362 348.321 504.609 347.871 502.75 347.35C503.354 348.203 503.934 349.055 504.515 349.931C508.01 351.037 511.412 352.423 514.685 354.075C518.119 355.709 521.422 357.627 524.714 359.51C524.903 359.616 524.714 359.912 524.536 359.794C521.3 357.903 517.969 356.179 514.555 354.632C511.37 353.14 508.078 351.92 504.87 350.499C512.957 363.109 517.799 377.672 524.287 391.146C524.382 391.347 524.074 391.501 523.991 391.312C522.014 386.576 519.729 381.982 517.574 377.329C515.644 373.149 513.75 368.958 511.82 364.779C511.252 363.595 510.636 362.339 510.068 361.132C510.423 367.869 510.281 374.724 511.394 381.378C511.394 381.4 511.389 381.422 511.381 381.442C511.373 381.462 511.361 381.48 511.345 381.495C511.33 381.511 511.311 381.523 511.291 381.531C511.271 381.54 511.25 381.544 511.228 381.544C511.206 381.544 511.185 381.54 511.164 381.531C511.144 381.523 511.126 381.511 511.111 381.495C511.095 381.48 511.083 381.462 511.075 381.442C511.066 381.422 511.062 381.4 511.062 381.378C510.589 374.179 509.322 367.087 509.369 359.853C509.369 359.853 509.369 359.794 509.369 359.758C507.996 357 506.527 354.288 504.953 351.648C502.277 357.947 499.459 364.352 498.216 371.125C498.216 371.326 497.837 371.243 497.884 371.03C499.708 364.246 501.436 357.45 504.669 351.174C502.953 348.317 501.051 345.576 498.973 342.969C498.074 344.639 496.925 346.225 495.907 347.824C494.889 349.422 493.93 350.961 493.006 352.56C491.015 355.958 489.323 359.524 487.95 363.216C487.868 363.417 487.548 363.31 487.631 363.121C489.17 359.581 490.733 355.97 492.544 352.477Z" fill="#263238"></path><path d="M428.774 367.821C433.96 362.612 439.986 355.792 448.002 355.804C455.746 355.804 461.441 362.044 464.708 368.473C468.13 375.198 469.361 382.811 470.332 390.211C471.477 399.078 472.172 407.997 472.416 416.934C472.558 421.895 472.535 426.868 472.416 431.828C472.401 436.859 472.005 441.882 471.232 446.853C471.09 447.647 469.8 447.682 469.752 446.853C469.515 442.674 469.681 438.471 469.752 434.291C469.823 430.112 469.752 426.003 469.563 421.942C469.255 413.654 468.651 405.366 467.668 397.078C466.816 389.844 466.141 382.42 463.974 375.435C462.033 369.136 458.374 361.937 451.992 359.166C443.278 355.401 434.765 362.292 429.07 368.117C428.881 368.224 428.608 367.975 428.774 367.821Z" fill="#263238"></path><path d="M402.311 379.448C402.311 380.514 402.405 381.556 402.476 382.586C404.971 380.715 407.893 379.494 410.978 379.034C418.342 378.252 417.868 383.841 412.955 384.078C409.492 384.121 406.067 384.807 402.855 386.102C404.039 395.823 406.727 403.637 407.13 403.744C413.661 403.405 420.161 402.614 426.583 401.376C424.748 397.469 420.58 392.283 422.711 391.904C424.842 391.525 427.151 396.095 428.335 401.056C433.166 400.134 437.917 398.831 442.543 397.161C439.299 394.355 434.255 390.862 436.209 389.382C438.162 387.902 442.129 392.804 444.497 396.379C446.667 395.494 448.722 394.349 450.618 392.97C446.249 386.552 435.617 385.25 437.002 380.62C438.387 375.991 448.345 382.408 452.808 390.992C458.053 385.546 459.593 377.85 459.036 371.267C454.466 370.734 445.681 371.705 446.32 368.425C446.959 365.146 453.306 365.761 458.503 367.679C458.027 365.073 456.984 362.604 455.449 360.445C450.642 354.265 435.936 362.126 435.936 362.126C435.936 362.126 437.511 347.35 431.911 344.804C428.678 343.336 422.972 343.348 417.253 346.711C420.461 346.983 424.357 348.001 425.896 350.263C427.897 353.092 424.712 354.643 422.747 353.329C421.338 352.406 418.709 349.481 413.961 349.091C411.934 350.815 410.149 352.807 408.657 355.011C408.112 355.78 407.615 356.585 407.106 357.461C409.82 356.236 412.771 355.628 415.748 355.682C418.725 355.735 421.653 356.448 424.321 357.769C430.691 360.931 427.127 367.549 421.645 364.98C416.164 362.411 410.989 359.877 405.129 361.333C403.069 366.536 402.09 372.103 402.252 377.696C405.105 375.617 408.315 374.08 411.724 373.161C418.058 371.504 420.012 375.281 413.014 375.991C409.247 376.398 405.604 377.575 402.311 379.448ZM410.019 369.278C409.58 367.218 414.068 366.637 414.814 368.295C415.441 369.716 410.445 371.326 410.019 369.278ZM448.451 380.644C448.877 379.519 451.885 380.798 451.612 382.195C451.234 384.054 448.037 381.757 448.451 380.644ZM427.234 387.843C429.424 386.967 432.846 392.413 430.454 393.656C428.063 394.899 425.434 388.565 427.234 387.843Z" fill="#3581B8"></path><path d="M407.981 402.667C411.284 397.149 414.552 391.608 418.021 386.185C419.631 383.663 421.324 381.189 423.077 378.762L422.295 378.572L420.981 378.324C419.963 378.146 418.945 378.004 417.915 377.897C416.884 377.791 415.985 377.743 415.014 377.732C413.981 377.674 412.944 377.73 411.924 377.897C411.902 377.897 411.88 377.889 411.865 377.873C411.849 377.857 411.841 377.836 411.841 377.814C411.841 377.792 411.849 377.771 411.865 377.756C411.88 377.74 411.902 377.732 411.924 377.732C412.954 377.732 414.007 377.637 415.037 377.625C416.068 377.613 417.05 377.625 418.045 377.696C418.985 377.747 419.921 377.845 420.851 377.992C421.372 378.063 421.881 378.158 422.39 378.252C422.705 378.303 423.018 378.37 423.325 378.454C425.113 375.991 426.972 373.588 428.89 371.22C423.181 368.447 417.105 366.506 410.846 365.453C410.739 365.453 410.787 365.276 410.846 365.288C417.209 366.171 423.394 368.049 429.174 370.852L432.359 366.981C433.543 365.548 434.834 364.139 435.911 362.624C435.982 362.517 436.124 362.624 436.053 362.718C434.564 364.349 433.164 366.061 431.862 367.845C434.225 369.484 436.472 371.284 438.587 373.232C440.782 375.182 442.921 377.195 445.004 379.271C445.087 379.342 445.004 379.46 444.886 379.389C442.826 377.341 440.695 375.387 438.469 373.528C436.243 371.669 433.887 369.976 431.649 368.141C431.14 368.828 430.631 369.503 430.11 370.166C429.849 370.497 429.601 370.841 429.34 371.184L429.281 371.255C428.417 372.368 427.564 373.493 426.712 374.618C427.713 376.065 428.569 377.608 429.269 379.223C430.003 380.774 430.654 382.385 431.246 383.959C432.429 387.332 433.347 390.792 433.993 394.308C433.993 394.402 433.863 394.45 433.839 394.308C433.135 390.844 432.129 387.449 430.832 384.161C430.193 382.479 429.459 380.834 428.713 379.188C427.967 377.542 427.185 376.263 426.546 374.748C425.812 375.731 425.066 376.725 424.344 377.72C424.131 378.004 423.929 378.3 423.728 378.596C423.728 378.655 423.728 378.738 423.657 378.75C421.384 381.911 419.229 385.155 417.133 388.435C417.257 388.659 417.353 388.898 417.417 389.145C417.547 389.548 417.678 389.95 417.796 390.329C418.031 391.14 418.225 391.962 418.376 392.792C418.507 393.562 418.625 394.355 418.696 395.16C418.715 396.055 418.783 396.948 418.897 397.836C418.897 397.966 418.708 397.978 418.732 397.836C418.79 397.003 418.731 396.166 418.554 395.349C418.436 394.497 418.27 393.644 418.08 392.804C417.891 391.963 417.69 391.288 417.465 390.542C417.358 390.175 417.24 389.796 417.109 389.429C416.979 389.062 416.944 389.027 416.873 388.826C415.89 390.365 414.919 391.904 413.96 393.467C412.066 396.557 410.183 399.647 408.277 402.738C408.267 402.777 408.243 402.811 408.208 402.832C408.174 402.853 408.132 402.859 408.093 402.85C408.054 402.841 408.02 402.816 407.999 402.782C407.978 402.747 407.971 402.706 407.981 402.667Z" fill="#263238"></path><path d="M458.906 445.066C458.989 441.94 459.486 438.779 459.83 435.676C460.173 432.574 460.517 429.425 460.848 426.299C461.499 420.273 461.854 414.116 463.216 408.208C464.264 403.068 466.825 398.36 470.569 394.686C472.511 392.745 475.06 391.529 477.791 391.241C480.536 391.165 483.228 391.998 485.452 393.609C487.98 395.48 490.16 397.78 491.893 400.405C493.765 402.999 495.446 405.726 496.925 408.563C496.925 408.669 496.806 408.74 496.747 408.634C493.96 403.898 490.267 399.757 485.878 396.451C483.923 394.846 481.538 393.853 479.022 393.597C477.795 393.575 476.575 393.799 475.434 394.254C474.294 394.709 473.255 395.388 472.38 396.249C468.733 399.422 466.614 404.087 465.359 408.669C463.867 414.092 463.394 419.811 462.648 425.376C462.198 428.679 461.783 431.994 461.345 435.309C460.907 438.625 460.635 441.975 459.936 445.22C459.886 445.325 459.803 445.411 459.7 445.466C459.597 445.52 459.48 445.541 459.364 445.523C459.249 445.506 459.142 445.452 459.06 445.37C458.977 445.288 458.924 445.181 458.906 445.066Z" fill="#263238"></path><path d="M474.297 420.77C475.261 422.08 476.405 423.247 477.695 424.239C477.186 421.196 476.511 415.762 478.097 412.884C480.465 408.397 483.331 410.635 481.898 414.53C480.471 418.047 479.692 421.794 479.601 425.589C482.857 427.626 486.343 429.271 489.985 430.491C489.6 428.734 489.484 426.93 489.641 425.139C490.127 420.344 493.797 420.403 492.838 425.423C492.483 427.352 492.316 429.311 492.341 431.272C497.638 432.905 503.053 434.129 508.538 434.931C511.337 431.297 513.594 427.277 515.239 422.996C511.332 422.025 503.399 421.812 503.601 419.006C503.826 415.252 511.474 418.141 515.962 420.865C516.983 417.599 517.44 414.184 517.311 410.765C513.798 409.788 510.19 409.193 506.549 408.989C498.509 408.291 498.9 403.732 504.726 403.839C509.023 403.922 514.458 406.55 517.039 407.923C515.358 396.983 507.022 389.986 500.333 389.714C489.097 389.264 493.146 403.247 493.146 403.247C493.146 403.247 485.521 397.895 478.334 398.037C471.147 398.179 466.613 410.078 474.297 420.77ZM504.311 400.547C504.062 398.972 509.047 398.594 509.343 400.618C509.639 402.88 504.56 402.146 504.311 400.547ZM512.386 416.957C512.279 415.927 514.446 415.773 514.932 417.04C515.263 417.952 512.469 417.952 512.386 416.957ZM485.438 417.952C487.131 418.189 488.102 424.251 485.178 424.132C482.916 424.002 483.958 417.715 485.438 417.952Z" fill="#3581B8"></path><path d="M487.736 424.642C488.02 423.884 488.269 423.126 488.506 422.356C488.293 423.126 488.091 423.907 487.949 424.724C487.944 424.738 487.936 424.751 487.925 424.762C487.915 424.773 487.903 424.782 487.889 424.788C487.875 424.794 487.86 424.797 487.845 424.797C487.83 424.798 487.815 424.795 487.801 424.79C487.787 424.784 487.775 424.776 487.764 424.766C487.753 424.755 487.744 424.743 487.738 424.729C487.732 424.715 487.729 424.701 487.729 424.685C487.728 424.67 487.731 424.656 487.736 424.642Z" fill="#263238"></path><path d="M490.708 414.909C491.229 413.358 491.821 411.819 492.425 410.291C492.745 409.486 493.088 408.669 493.443 407.923C493.693 407.211 494.027 406.532 494.438 405.899C494.093 405.263 493.789 404.607 493.526 403.933C493.526 403.874 493.585 403.815 493.633 403.874C494.465 404.938 495.198 406.075 495.823 407.272C496.143 407.793 496.439 408.338 496.735 408.871C497.372 408.927 498.005 409.026 498.629 409.167C499.304 409.285 499.979 409.427 500.642 409.581C501.305 409.735 501.98 409.877 502.643 410.043C503.306 410.209 503.969 410.422 504.644 410.516C504.798 410.516 504.727 410.789 504.585 410.73C503.899 410.489 503.194 410.306 502.477 410.185C501.838 410.043 501.187 409.924 500.536 409.842C499.884 409.759 499.233 409.664 498.57 409.593L497.09 409.475C497.351 409.948 497.635 410.41 497.895 410.883C497.93 410.965 497.969 411.044 498.014 411.12C498.556 411.113 499.098 411.177 499.624 411.31C500.204 411.416 500.808 411.523 501.364 411.653C502.548 411.914 503.732 412.186 504.857 412.506C507.296 413.192 509.688 413.962 512.091 414.743C512.222 414.743 512.091 414.992 512.009 414.945C509.622 414.148 507.195 413.476 504.739 412.932C503.555 412.671 502.442 412.411 501.293 412.174L499.553 411.807C499.101 411.734 498.654 411.631 498.215 411.499C499.399 413.784 500.583 416.117 501.684 418.485C504.052 423.635 505.982 428.951 507.983 434.244C507.983 434.374 507.829 434.457 507.782 434.327C505.85 429.069 503.613 423.93 501.08 418.935C500.63 418.023 500.169 417.123 499.719 416.2C499.719 416.389 499.636 416.579 499.6 416.768C499.482 417.384 499.375 418.011 499.269 418.639C499.056 419.894 498.842 421.149 498.653 422.404C498.118 424.976 497.817 427.592 497.753 430.218C497.753 430.384 497.504 430.372 497.528 430.218C497.729 428.975 497.729 427.673 497.812 426.418C497.895 425.163 497.99 423.777 498.144 422.475C498.298 421.172 498.452 419.953 498.665 418.698C498.771 418.07 498.878 417.443 498.996 416.815C499.025 416.344 499.141 415.882 499.34 415.454C498.688 414.14 498.037 412.813 497.362 411.499C496.688 410.185 496.107 409.025 495.468 407.805C495.196 407.284 494.9 406.763 494.616 406.23C494.409 406.878 494.16 407.51 493.87 408.125L493.005 410.256C492.354 411.819 491.762 413.405 491.158 414.992C490.306 417.242 489.37 419.539 488.672 421.883C489.359 419.515 489.939 417.171 490.708 414.909Z" fill="#263238"></path><path d="M488.506 422.356C488.506 422.167 488.612 421.989 488.672 421.812C488.612 421.989 488.565 422.167 488.506 422.356Z" fill="#263238"></path><path d="M440.115 438.98L440.909 455.71L442.933 498.831H487.428L489.464 455.71L490.246 438.98H440.115Z" fill="#37474F"></path><path d="M440.115 438.98L440.909 455.71H489.464L490.246 438.98H440.115Z" fill="#263238"></path><path d="M436.943 445.74H493.408V432.207H436.943V445.74Z" fill="#37474F"></path><path d="M483.83 498.831H476.016V505.911H483.83V498.831Z" fill="#37474F"></path><path d="M483.83 498.831H476.016V502.371H483.83V498.831Z" fill="#263238"></path><path d="M454.347 498.831H446.545V505.911H454.347V498.831Z" fill="#37474F"></path><path d="M454.347 498.831H446.545V502.371H454.347V498.831Z" fill="#263238"></path><path d="M48.1055 506.089L110.076 505.805L172.047 505.698L296 505.497L419.953 505.698L481.923 505.805L543.894 506.089L481.923 506.385L419.953 506.48L296 506.681L172.047 506.48L110.076 506.385L48.1055 506.089Z" fill="#263238"></path><path d="M296.272 351.755C294.97 351.755 293.608 351.755 292.246 351.672V350.784C293.62 350.843 295.005 350.867 296.319 350.867H296.959V351.755H296.237H296.272ZM302.938 351.541L302.879 350.653C304.454 350.547 306.028 350.405 307.615 350.215L307.721 351.103C306.123 351.281 304.525 351.435 302.938 351.541ZM286.362 351.293C284.823 351.151 283.224 350.985 281.626 350.784L281.733 349.896C283.319 350.097 284.894 350.275 286.469 350.405L286.362 351.293ZM313.594 350.18L313.416 349.315C314.967 349.008 316.507 348.664 318.01 348.274L318.235 349.138C316.684 349.529 315.121 349.884 313.558 350.18H313.594ZM275.706 349.896C274.155 349.623 272.58 349.327 271.041 349.008L271.219 348.143C272.758 348.463 274.321 348.759 275.86 349.02L275.706 349.896ZM265.216 347.682C263.665 347.303 262.126 346.888 260.622 346.498L260.859 345.645C262.35 346.071 263.89 346.486 265.429 346.829L265.216 347.682ZM323.859 347.397L323.563 346.557C325.055 346.036 326.523 345.456 327.944 344.84L328.299 345.645C326.902 346.273 325.41 346.912 323.895 347.397H323.859ZM254.939 344.698C252.109 343.763 250.463 343.088 250.439 343.088L250.783 342.259C250.783 342.259 252.417 342.922 255.223 343.857L254.939 344.698ZM333.639 343.005L333.201 342.223C334.563 341.466 335.912 340.637 337.215 339.772L337.7 340.518C336.422 341.395 335.072 342.176 333.675 343.005H333.639ZM342.519 337.026L341.974 336.327C343.23 335.356 344.461 334.362 345.633 333.355L346.213 334.03C345.065 335.072 343.822 336.055 342.555 337.026H342.519ZM350.594 330.016L349.978 329.377C351.091 328.276 352.192 327.139 353.246 325.991L353.897 326.595C352.832 327.755 351.766 328.903 350.63 330.016H350.594ZM357.757 322.06L357.059 321.515C358.041 320.331 358.989 319.005 359.877 317.738L360.611 318.247C359.734 319.538 358.752 320.864 357.793 322.048L357.757 322.06ZM363.843 313.263L363.085 312.801C363.902 311.451 364.672 310.066 365.394 308.692L366.175 309.107C365.489 310.492 364.672 311.889 363.878 313.263H363.843ZM368.733 303.731L367.928 303.376C368.532 301.967 369.112 300.487 369.668 299.007L370.509 299.315C369.988 300.819 369.408 302.299 368.768 303.731H368.733ZM372.344 293.656L371.492 293.407C371.93 291.915 372.32 290.376 372.676 288.849L373.54 289.05C373.22 290.589 372.818 292.14 372.38 293.632L372.344 293.656ZM374.641 283.201L373.765 283.059C374.002 281.52 374.191 279.945 374.345 278.394L375.221 278.477C375.115 280.051 374.913 281.638 374.677 283.201H374.641ZM375.588 272.545H374.7C374.7 271.858 374.7 271.171 374.7 270.485C374.7 269.597 374.7 268.709 374.7 267.833H375.588C375.588 268.721 375.588 269.609 375.588 270.508C375.647 271.136 375.636 271.835 375.624 272.533L375.588 272.545ZM380.052 271.515C379.413 271.515 378.785 271.515 378.146 271.515V270.627C379.703 270.716 381.265 270.716 382.822 270.627L382.882 271.515C382.017 271.468 381.046 271.503 380.064 271.503L380.052 271.515ZM372.214 270.804C370.644 270.52 369.091 270.153 367.561 269.703L367.809 268.851C369.309 269.291 370.83 269.651 372.368 269.928L372.214 270.804ZM388.849 270.603L388.671 269.739C390.201 269.433 391.711 269.038 393.194 268.555L393.467 269.395C391.964 269.882 390.434 270.282 388.885 270.591L388.849 270.603ZM361.996 267.584C360.542 266.926 359.127 266.187 357.757 265.37L358.207 264.612C359.551 265.407 360.939 266.127 362.363 266.767L361.996 267.584ZM399.02 267.027L398.629 266.234C400.022 265.521 401.374 264.731 402.678 263.866L403.164 264.6C401.826 265.496 400.438 266.314 399.008 267.051L399.02 267.027ZM352.844 261.972C352.062 261.344 351.281 260.669 350.535 259.971C350.109 259.568 349.694 259.166 349.351 258.787L349.978 258.159C350.369 258.562 350.772 258.953 351.162 259.343C351.896 260.03 352.654 260.681 353.424 261.309L352.844 261.972ZM374.321 261.901C374.144 260.326 373.919 258.763 373.658 257.248L374.534 257.094C374.807 258.633 375.032 260.219 375.198 261.83L374.321 261.901ZM407.923 260.989L407.331 260.326C408.505 259.292 409.62 258.194 410.67 257.035L411.321 257.638C410.248 258.826 409.11 259.952 407.911 261.013L407.923 260.989ZM345.538 254.086C344.652 252.753 343.921 251.323 343.36 249.824L344.189 249.528C344.721 250.977 345.412 252.363 346.249 253.66L345.538 254.086ZM415.051 252.902L414.317 252.393C414.992 251.446 415.631 250.44 416.235 249.433C416.436 249.102 416.637 248.77 416.827 248.427L417.597 248.865C417.395 249.208 417.206 249.552 417.005 249.883C416.377 251.008 415.714 252.014 415.039 252.985L415.051 252.902ZM372.427 251.446C372.001 249.883 371.527 248.379 371.006 246.971L371.847 246.663C372.368 248.095 372.853 249.623 373.279 251.209L372.427 251.446ZM343.277 243.904H342.389C342.444 242.275 342.797 240.67 343.431 239.168L344.248 239.511C343.665 240.906 343.336 242.394 343.277 243.904ZM420.237 243.667L419.432 243.324C420.024 241.927 420.616 240.447 421.125 238.943L421.966 239.227C421.421 240.707 420.841 242.199 420.225 243.608L420.237 243.667ZM368.579 241.773C367.847 240.406 366.991 239.11 366.022 237.901L366.708 237.333C367.713 238.587 368.601 239.93 369.36 241.347L368.579 241.773ZM347.658 234.965L347.113 234.278C348.393 233.246 349.866 232.482 351.446 232.028L351.683 232.881C350.217 233.284 348.845 233.972 347.646 234.906L347.658 234.965ZM361.629 234.231C360.294 233.478 358.847 232.946 357.343 232.656L357.509 231.78C359.107 232.095 360.646 232.663 362.067 233.461L361.629 234.231ZM423.694 233.532L422.83 233.307C423.209 231.898 423.576 230.395 423.955 228.725L424.819 228.915C424.428 230.548 424.061 232.064 423.682 233.473L423.694 233.532ZM426.062 223.113L425.186 222.935L426.098 218.294L426.962 218.46L426.062 223.113ZM428.17 212.682L427.305 212.481C427.684 210.776 428.063 209.26 428.489 207.863L429.342 208.1C428.88 209.426 428.501 210.93 428.122 212.623L428.17 212.682ZM431.13 202.511L430.301 202.203C430.83 200.676 431.451 199.181 432.16 197.728L432.953 198.131C432.251 199.54 431.626 200.986 431.082 202.464L431.13 202.511ZM436.067 193.264L435.345 192.731C436.29 191.447 437.323 190.228 438.435 189.085L439.062 189.7C437.971 190.799 436.954 191.97 436.02 193.205L436.067 193.264ZM443.467 185.888L442.934 185.166C444.224 184.229 445.564 183.364 446.948 182.573L447.386 183.354C446.013 184.117 444.689 184.963 443.42 185.888H443.467ZM452.643 180.785L452.288 179.968C453.531 179.447 454.845 178.95 456.207 178.488L456.491 179.329C455.106 179.719 453.815 180.205 452.596 180.726L452.643 180.785Z" fill="#2F5597"></path><path d="M453.722 160.361L444.664 185.249L463.691 170.389L536.412 144.022L453.722 160.361Z" fill="#3581B8"></path><path opacity="0.1" d="M453.722 160.361L444.664 185.249L463.691 170.389L536.412 144.022L453.722 160.361Z" fill="black"></path><path d="M466.13 176.191L444.664 185.249L463.691 170.389L466.13 176.191Z" fill="#263238"></path><path d="M463.691 170.389L536.413 144.022L476.763 202.227L463.691 170.389Z" fill="#3581B8"></path><path d="M453.72 160.361L423.504 140.849L536.41 144.022L453.72 160.361Z" fill="#3581B8"></path><path d="M98.7708 505.9L296.002 506.752C343.942 469.113 348.891 413.334 314.685 379.531C294.001 359.072 267.716 363.192 242.722 359.936H242.65C233.936 358.752 225.388 356.775 217.266 352.489C191.49 338.896 177.01 306.822 155.283 279.838C152.584 276.464 149.754 273.173 146.794 269.999C128.963 250.961 93.5139 250.345 74.9132 277.103C27.719 345.101 49.3151 446.368 98.7708 505.9Z" fill="#950952"></path><path opacity="0.1" d="M94.3893 350.286C99.5515 431.213 193.017 461.417 251.376 437.18C302.134 416.093 285.522 367.987 242.721 359.936H242.65C233.936 358.752 225.387 356.775 217.265 352.489C191.489 338.896 177.009 306.822 155.282 279.838C122.947 263.049 90.6005 291.039 94.3893 350.286Z" fill="black"></path><path d="M280.077 518.592C277.034 517.479 208.291 462.541 207 458.788C206.503 457.367 213.915 446.948 223.233 434.481C225.246 431.805 227.341 429.046 229.484 426.264C243.373 408.16 258.54 389.287 258.54 389.287L304.633 425.897L274.311 461.878L267.657 469.776C267.657 469.776 284.564 502.584 285.547 506.847C286.529 511.109 283.12 519.776 280.077 518.592Z" fill="#D3766A"></path><path d="M280.076 518.592C277.033 517.408 208.302 462.541 206.999 458.788C206.585 457.604 211.416 450.5 218.259 441.182C228.252 453.129 263.097 488.696 272.617 493.456C278.655 496.475 277.459 490.543 275.198 484.647C279.839 493.917 285.013 504.538 285.546 506.835C286.529 511.157 283.119 519.776 280.076 518.592Z" fill="#263238"></path><path d="M351.175 355.543C348.025 379.484 289.015 448.606 282.195 456.539L280.609 458.338L231.828 420.829L232.384 420.107L275.375 363.82C275.375 363.82 204.335 405.26 168.732 386.47C152.736 378.016 140.896 362.991 140.896 362.991L187.309 338.245C187.309 338.245 200.156 342.401 208.361 341.205C236.658 337.061 300.062 312.99 315.11 313.594C334.54 314.388 354.076 333.568 351.175 355.543Z" fill="#37474F"></path><path d="M290.816 342.898C289.218 344.697 287.735 346.596 286.376 348.582C284.861 350.582 283.31 352.548 281.794 354.502V354.561C282.067 353.969 282.327 353.377 282.611 352.808C283.57 350.819 284.34 348.771 285.465 346.888C285.472 346.866 285.471 346.841 285.463 346.819C285.454 346.796 285.438 346.778 285.418 346.765C285.397 346.753 285.373 346.748 285.35 346.751C285.326 346.754 285.304 346.765 285.287 346.782C284.103 348.664 282.777 350.452 281.735 352.43C281.262 353.365 280.823 354.312 280.409 355.271C280.184 355.792 279.947 356.325 279.746 356.858C279.635 357.108 279.54 357.365 279.462 357.627C278.787 358.551 278.112 359.474 277.461 360.422C276.016 362.517 274.738 364.731 273.27 366.815C273.187 366.922 273.364 367.028 273.447 366.922C274.927 364.968 276.597 363.145 278.1 361.203C279.604 359.261 281.096 357.201 282.528 355.153C283.961 353.104 285.299 351.139 286.708 349.138C288.24 347.169 289.652 345.109 290.935 342.969C290.97 342.922 290.876 342.839 290.816 342.898Z" fill="#263238"></path><path d="M133.189 273.847C132.538 288.126 129.365 305.164 135.415 318.685C140.151 329.27 150.156 336.445 160.481 340.992C183.213 351.044 215.028 352.358 230.952 329.791C237.31 320.781 238.4 302.003 227.85 295.136C222.439 291.584 216.01 290.802 209.877 289.145C206.059 288.256 202.49 286.517 199.438 284.056C196.385 281.596 193.927 278.479 192.247 274.937C184.942 260.291 186.398 249.575 185.013 233.733C184.982 232.159 184.623 230.609 183.958 229.182C183.294 227.755 182.338 226.482 181.153 225.445C178.551 222.885 175.302 221.08 171.752 220.224C168.725 218.904 165.417 218.359 162.126 218.637C155.117 219.372 148.38 225.836 142.946 229.862C137.511 233.887 134.93 238.15 134.504 245.1C133.924 254.655 133.628 264.257 133.189 273.847Z" fill="#263238"></path><path d="M131.425 280.608C132.869 267.584 134.551 254.56 136.161 241.536C136.161 241.465 136.291 241.465 136.279 241.536C135.273 252.287 134.409 263.049 133.26 273.788C132.076 284.326 130.253 295.1 130.051 305.673C129.602 329.46 154.063 339.133 174.286 337.973C175.209 337.973 175.186 339.394 174.286 339.417C156.526 339.879 135.273 333.805 129.898 314.47C126.914 303.862 130.241 291.264 131.425 280.608Z" fill="#263238"></path><path d="M183.865 232.478C183.865 232.23 184.244 232.242 184.256 232.478C184.848 245.502 184.256 260.894 191.762 272.249C195.431 277.861 200.715 282.229 206.917 284.776C211.831 286.777 217.041 286.954 222.167 287.961C242.295 291.903 242.449 319.017 227.85 329.59C227.543 329.815 227.152 329.294 227.448 329.057C237.725 320.876 241.111 305.993 232.74 295.077C226.015 286.315 213.11 289.157 203.946 284.421C184.954 274.57 183.522 251.47 183.865 232.478Z" fill="#263238"></path><path d="M163.311 289.287C172.002 301.766 201.685 336.055 222.286 340.743C233.641 343.336 288.484 351.009 296.002 344.165C304.811 336.149 300.738 305.957 293.729 305.685C272.358 304.845 232.824 309.024 222.949 306.869C218.486 305.875 194.806 290.601 169.515 278.382C159.949 273.741 157.699 281.236 163.311 289.287Z" fill="#D3766A"></path><path d="M184.528 319.195L192.816 288.659C192.816 288.659 178.903 280.94 170.604 277.755C159.616 273.54 155.472 276.571 162.209 289.381C166.732 297.918 184.528 319.195 184.528 319.195Z" fill="#EBEBEB"></path><path d="M182.479 315.311C183.379 310.788 184.338 306.277 185.498 301.813C186.078 299.588 186.682 297.362 187.345 295.159C188.008 292.957 188.872 290.802 189.476 288.588C189.476 288.47 189.713 288.529 189.666 288.588C188.943 290.767 188.482 293.064 187.89 295.278C187.298 297.492 186.706 299.718 186.09 301.944C184.906 306.396 183.722 310.847 182.656 315.311C182.633 315.501 182.455 315.441 182.479 315.311Z" fill="#263238"></path><path d="M191.527 293.466L184.529 319.206C184.529 319.206 166.769 297.894 162.223 289.381C160.151 285.439 159.097 282.42 158.979 280.265L191.527 293.466Z" fill="#263238"></path><path d="M118.639 373.801C121.374 374.689 198.961 352.228 198.961 352.228L189.797 325.292C189.797 325.292 194.332 316.625 192.165 308.29C189.359 297.16 168.746 278.856 167.135 277.778C160.694 273.504 154.597 273.504 149.186 276.405C126.773 288.328 118.639 373.801 118.639 373.801Z" fill="#EBEBEB"></path><path d="M177.838 287.475C179.838 289.843 181.982 292.022 184.042 294.295C183.083 292.602 182.124 290.897 181.105 289.228C182.615 291.184 183.931 293.281 185.036 295.491C186.585 297.214 188.013 299.041 189.31 300.961C190.918 303.24 192.119 305.78 192.862 308.468C193.506 311.185 193.586 314.006 193.099 316.756C192.507 319.922 191.631 323.028 190.483 326.038C190.341 326.441 189.772 326.18 189.879 325.789C191.335 320.532 192.993 314.98 191.821 309.486C190.648 303.992 187.262 299.469 183.959 295.148C182.015 292.508 179.908 289.993 177.648 287.617C177.601 287.511 177.743 287.38 177.838 287.475Z" fill="#263238"></path><path d="M164.91 323.35C168.246 322.707 171.626 322.312 175.021 322.166C176.702 322.166 178.384 322.166 180.065 322.249C180.905 322.249 181.746 322.249 182.587 322.249C183.465 322.277 184.344 322.197 185.203 322.013C185.274 322.013 185.31 322.107 185.203 322.131C184.428 322.391 183.637 322.6 182.835 322.758C182.052 322.881 181.261 322.952 180.467 322.972C178.751 322.972 177.046 322.972 175.329 323.043C171.883 323.114 168.426 323.185 164.993 323.516C164.779 323.646 164.756 323.374 164.91 323.35Z" fill="#263238"></path><path d="M157.675 328.489C160.276 327.458 162.932 326.573 165.632 325.837C166.993 325.47 168.355 325.198 169.728 324.949L171.717 324.629C172.44 324.523 173.186 324.511 173.908 324.392C173.991 324.392 174.026 324.499 173.908 324.511C173.221 324.641 172.558 324.89 171.895 325.055L169.859 325.565C168.509 325.908 167.159 326.275 165.797 326.606C163.086 327.27 160.387 327.956 157.699 328.714C157.674 328.709 157.652 328.696 157.634 328.678C157.617 328.659 157.607 328.635 157.604 328.61C157.602 328.585 157.607 328.56 157.62 328.538C157.633 328.516 157.652 328.499 157.675 328.489Z" fill="#263238"></path><path d="M154.051 277.92C154.359 279.329 160.93 288.576 167.347 288.316C169.431 288.245 169.55 276.831 169.55 276.831L169.751 275.99L172.569 264.21L156.822 253.897C156.822 253.897 153.921 277.316 154.051 277.92Z" fill="#D3766A"></path><path d="M172.57 264.198L169.752 276.038C166.579 274.794 163.703 272.898 161.309 270.473C158.914 268.048 157.055 265.148 155.852 261.96C156.337 257.899 156.751 254.525 156.811 254.027C156.813 254.004 156.813 253.98 156.811 253.956L158.812 255.14L172.57 264.198Z" fill="#263238"></path><path d="M187.831 242.507C193.076 263.109 181.331 268.555 176.891 269.739C172.854 270.757 159.001 273.729 151.66 253.79C144.319 233.852 152.24 224.901 161.333 222.071C170.427 219.241 182.598 221.917 187.831 242.507Z" fill="#D3766A"></path><path d="M183.878 239.95C183.381 239.95 182.908 239.95 182.41 239.95C181.89 240.007 181.365 239.89 180.918 239.618C180.796 239.504 180.714 239.353 180.686 239.188C180.659 239.023 180.686 238.854 180.765 238.706C180.958 238.436 181.221 238.223 181.525 238.09C181.829 237.957 182.164 237.908 182.493 237.949C183.18 237.925 183.851 238.157 184.376 238.6C184.478 238.709 184.547 238.844 184.577 238.99C184.606 239.136 184.595 239.288 184.543 239.428C184.491 239.568 184.402 239.691 184.285 239.783C184.167 239.875 184.027 239.933 183.878 239.95Z" fill="#263238"></path><path d="M170.025 244.283C170.51 244.129 170.925 243.916 171.386 243.726C171.89 243.592 172.337 243.302 172.665 242.898C172.74 242.748 172.765 242.579 172.735 242.414C172.705 242.25 172.622 242.099 172.499 241.986C172.222 241.801 171.9 241.693 171.567 241.675C171.234 241.656 170.902 241.727 170.605 241.879C169.956 242.097 169.411 242.548 169.078 243.146C169.006 243.287 168.978 243.445 168.995 243.601C169.013 243.758 169.076 243.906 169.177 244.027C169.278 244.148 169.412 244.236 169.562 244.282C169.713 244.327 169.874 244.328 170.025 244.283Z" fill="#263238"></path><path d="M173.551 246.876C173.551 246.876 173.456 246.959 173.468 247.018C173.811 248.427 173.954 250.096 172.77 250.83C172.77 250.83 172.77 250.925 172.77 250.901C174.321 250.369 174.048 248.155 173.551 246.876Z" fill="#263238"></path><path d="M171.989 245.656C169.621 245.952 170.426 250.558 172.581 250.286C174.735 250.013 173.93 245.408 171.989 245.656Z" fill="#263238"></path><path d="M171.126 246.047C170.759 246.367 170.439 246.9 169.942 247.03C169.445 247.16 168.888 246.757 168.438 246.355C168.438 246.355 168.367 246.355 168.367 246.426C168.509 247.314 168.995 248.155 169.966 248.131C170.936 248.107 171.339 247.231 171.41 246.308C171.446 246.13 171.268 245.917 171.126 246.047Z" fill="#263238"></path><path d="M181.746 245.088C181.746 245.088 181.865 245.147 181.877 245.206C182.054 246.639 182.504 248.249 183.866 248.522V248.604C182.255 248.569 181.687 246.426 181.746 245.088Z" fill="#263238"></path><path d="M182.787 243.336C185.061 242.803 185.96 247.385 183.853 247.882C181.745 248.38 180.881 243.786 182.787 243.336Z" fill="#263238"></path><path d="M183.804 243.454C184.207 243.62 184.657 243.999 185.095 243.94C185.533 243.88 185.876 243.3 186.101 242.756C186.101 242.756 186.172 242.756 186.184 242.756C186.373 243.62 186.267 244.591 185.462 244.922C184.657 245.254 184.005 244.591 183.627 243.738C183.52 243.655 183.638 243.383 183.804 243.454Z" fill="#263238"></path><path d="M175.458 259.545C175.837 259.853 176.216 260.279 176.749 260.279C177.285 260.219 177.801 260.046 178.264 259.77C178.264 259.77 178.359 259.77 178.335 259.841C178.154 260.143 177.895 260.391 177.584 260.558C177.273 260.724 176.923 260.804 176.571 260.788C176.28 260.727 176.013 260.583 175.803 260.373C175.592 260.162 175.448 259.895 175.387 259.604C175.293 259.533 175.399 259.497 175.458 259.545Z" fill="#263238"></path><path d="M180.716 253.009C181.02 254.03 181.273 255.065 181.474 256.111C181.474 256.206 181.249 256.289 180.917 256.36C180.076 256.646 179.173 256.694 178.306 256.5C177.439 256.306 176.642 255.876 176.004 255.259C175.986 255.24 175.976 255.216 175.975 255.19C175.974 255.165 175.982 255.14 175.997 255.12C176.013 255.099 176.036 255.086 176.061 255.081C176.086 255.076 176.112 255.08 176.134 255.093C177.547 255.785 179.148 255.997 180.692 255.697C180.692 255.413 179.508 252.145 179.686 252.145C180.48 252.107 181.276 252.171 182.054 252.334C180.87 247.93 179.058 243.75 177.981 239.31C177.978 239.28 177.985 239.25 178 239.224C178.016 239.198 178.039 239.178 178.067 239.166C178.094 239.154 178.125 239.152 178.154 239.158C178.183 239.165 178.21 239.181 178.23 239.204C180.349 243.619 182.019 248.236 183.214 252.985C183.333 253.577 181.154 253.127 180.716 253.009Z" fill="#263238"></path><path d="M180.808 255.969C180.4 256.904 179.76 257.719 178.949 258.337C178.499 258.664 177.955 258.839 177.398 258.834C176.214 258.834 175.895 257.781 175.883 256.833C175.882 256.331 175.937 255.831 176.049 255.341C177.528 256.051 179.195 256.271 180.808 255.969Z" fill="#263238"></path><path d="M178.949 258.325C178.499 258.652 177.955 258.827 177.398 258.822C176.214 258.822 175.895 257.769 175.883 256.822C176.488 256.694 177.12 256.772 177.675 257.045C178.231 257.317 178.68 257.768 178.949 258.325Z" fill="#FF9CBD"></path><path d="M153.127 255.282C155.353 254.548 159.557 246.781 156.821 235.853C156.821 235.853 158.597 245.834 158.242 247.456C157.887 249.078 160.61 243.099 158.515 234.254C161.803 235.492 165.252 236.253 168.756 236.516C173.208 236.516 175.742 235.853 175.955 235.474C176.168 235.095 169.561 234.799 167.406 233.343C167.406 233.343 179.791 235.509 184.977 234.527C185.581 234.42 183.047 222.154 173.824 219.135C164.6 216.116 153.637 224.972 151.162 229.104C151.162 229.104 147.373 230.714 144.662 237.664C141.95 244.614 150.748 256.076 153.127 255.282Z" fill="#263238"></path><path d="M155.331 254.489C155.331 254.489 149.683 248.699 147.043 250.819C144.402 252.938 149.339 261.853 153.034 262.576C153.501 262.708 153.991 262.743 154.472 262.678C154.954 262.613 155.417 262.451 155.833 262.2C156.25 261.949 156.61 261.616 156.892 261.22C157.174 260.824 157.372 260.375 157.474 259.9L155.331 254.489Z" fill="#D3766A"></path><path d="M148.474 253.376C148.415 253.376 148.415 253.459 148.474 253.471C151.079 254.051 152.736 256.111 154.027 258.313C153.84 258.096 153.609 257.921 153.348 257.801C153.088 257.681 152.804 257.619 152.517 257.619C152.231 257.619 151.947 257.681 151.687 257.801C151.426 257.921 151.195 258.096 151.008 258.313C150.949 258.313 151.008 258.455 151.103 258.432C151.509 258.222 151.97 258.145 152.422 258.211C152.875 258.277 153.295 258.482 153.624 258.799C154.176 259.305 154.673 259.868 155.104 260.48C155.258 260.681 155.625 260.48 155.507 260.255C155.01 257.07 151.872 253.104 148.474 253.376Z" fill="#263238"></path><path d="M138.104 295.384C131.864 330.774 137.903 357.284 143.905 360.575C160.091 369.408 198.961 351.482 209.925 347.918C214.306 346.486 194.178 312.576 189.632 314.684C178.976 319.609 164.045 327.968 163.441 327.897C162.257 327.779 160.837 318.745 154.656 292.377C149.648 271.136 140.661 280.916 138.104 295.384Z" fill="#D3766A"></path><path d="M245.255 297.906C246.368 302.358 235.168 304.158 235.168 304.158C237.03 304.827 238.6 306.125 239.608 307.828C241.242 310.907 237.121 314.802 237.121 314.802C238.907 315.894 240.322 317.499 241.182 319.408C242.449 322.51 238.814 327.045 238.814 327.045C239.9 328.953 240.262 331.19 239.833 333.343C238.459 339.05 229.709 341.3 224.571 343.763C219.065 346.403 209.948 347.374 205.816 349.233L187.902 316.412C187.902 316.412 205.212 298.084 215.134 295.242C220.616 293.632 243.562 291.11 245.255 297.906Z" fill="#D3766A"></path><path d="M235.051 304.063C228.823 303.791 222.536 305.01 216.486 306.253C216.465 306.261 216.447 306.274 216.434 306.292C216.421 306.31 216.414 306.332 216.414 306.354C216.414 306.376 216.421 306.398 216.434 306.416C216.447 306.434 216.465 306.447 216.486 306.455C222.488 305.152 228.989 305.425 235.027 304.359C235.06 304.353 235.09 304.336 235.113 304.311C235.135 304.286 235.149 304.254 235.152 304.22C235.155 304.186 235.146 304.153 235.128 304.125C235.11 304.096 235.082 304.075 235.051 304.063Z" fill="#263238"></path><path d="M236.801 314.399C235.381 314.473 233.976 314.732 232.622 315.169C231.166 315.548 229.721 315.95 228.265 316.353C225.376 317.205 222.499 318.117 219.657 319.112C219.527 319.112 219.562 319.36 219.657 319.325C222.534 318.484 225.435 317.691 228.36 316.957C229.816 316.59 231.284 316.246 232.74 315.903C234.149 315.66 235.527 315.263 236.849 314.719C236.869 314.696 236.884 314.669 236.892 314.639C236.901 314.61 236.903 314.579 236.898 314.548C236.894 314.518 236.883 314.489 236.866 314.463C236.849 314.438 236.827 314.416 236.801 314.399Z" fill="#263238"></path><path d="M238.742 327.08C237.457 327.161 236.194 327.466 235.013 327.98L231.07 329.164C228.442 329.969 225.813 330.762 223.161 331.473C223.031 331.473 223.066 331.721 223.161 331.686C225.861 330.975 228.572 330.312 231.271 329.578C232.586 329.223 233.912 328.856 235.226 328.477C236.48 328.265 237.684 327.824 238.778 327.175C238.782 327.166 238.784 327.157 238.785 327.147C238.785 327.138 238.783 327.129 238.78 327.12C238.777 327.111 238.772 327.103 238.765 327.096C238.759 327.089 238.751 327.084 238.742 327.08Z" fill="#263238"></path><path d="M163.395 327.897C167.633 325.458 171.931 323.161 176.241 320.793L182.765 317.407L186.044 315.761C187.16 315.18 188.31 314.67 189.49 314.234L189.277 314.352C192.166 311.546 195.067 308.764 198.133 306.147C199.649 304.833 201.188 303.53 202.786 302.311C204.362 301.05 206.041 299.925 207.806 298.948C206.143 300.058 204.56 301.284 203.07 302.619C201.555 303.921 200.051 305.247 198.583 306.621C195.67 309.367 192.746 312.114 189.928 314.909L189.857 314.968L189.715 315.027C188.708 315.394 187.548 315.998 186.471 316.495L183.167 318.105L176.62 321.385C172.239 323.623 167.87 325.813 163.395 327.897Z" fill="#263238"></path><path d="M132.09 326.168L160.376 311.96C160.376 311.96 156.824 296.45 153.662 288.138C149.471 277.151 144.415 276.132 139.454 289.654C136.068 298.711 132.09 326.168 132.09 326.168Z" fill="#EBEBEB"></path><path d="M133.615 322.048C137.582 319.68 141.584 317.407 145.68 315.299C147.728 314.245 149.8 313.215 151.872 312.221C153.944 311.226 156.135 310.457 158.195 309.438C158.302 309.438 158.384 309.569 158.266 309.616C156.17 310.516 154.158 311.724 152.109 312.754C150.061 313.784 147.989 314.814 145.941 315.868C141.844 317.963 137.736 320.047 133.686 322.238C133.58 322.285 133.509 322.107 133.615 322.048Z" fill="#263238"></path><path d="M135.475 324.416C134.386 325.079 133.285 325.695 132.195 326.322L131.805 326.547L131.864 326.085C132.29 322.166 132.847 318.283 133.533 314.411C134.22 310.54 135.013 306.68 136.067 302.891C135.83 304.845 135.57 306.786 135.274 308.728C134.978 310.67 134.705 312.612 134.386 314.553C133.77 318.425 133.072 322.297 132.314 326.157L131.982 325.908C133.143 325.458 134.291 324.937 135.475 324.416Z" fill="#263238"></path><path d="M134.516 306.834C134.569 307.741 134.569 308.65 134.516 309.557C134.489 310.464 134.414 311.369 134.291 312.268C134.141 310.456 134.197 308.633 134.457 306.834H134.516Z" fill="#263238"></path><path d="M156.928 313.76C158.018 313.1 159.14 312.495 160.291 311.948C159.829 310.125 159.344 308.325 158.906 306.502C158.681 305.59 158.48 304.679 158.29 303.767C158.101 302.855 157.781 301.612 157.592 300.724C157.592 300.582 157.745 300.535 157.781 300.665C158.148 301.849 158.373 302.666 158.681 303.649C158.989 304.631 159.202 305.425 159.439 306.313C159.924 308.195 160.528 310.184 160.93 312.091C159.655 312.773 158.333 313.367 156.976 313.867C156.962 313.87 156.948 313.868 156.936 313.862C156.923 313.856 156.913 313.846 156.907 313.833C156.902 313.82 156.901 313.806 156.905 313.793C156.909 313.779 156.917 313.768 156.928 313.76Z" fill="#263238"></path><path d="M159.189 301.92C159.378 303.037 159.378 304.178 159.189 305.294C158.984 304.179 158.984 303.035 159.189 301.92Z" fill="#263238"></path><path d="M270.415 346.19H188.08V349.884H270.415V346.19Z" fill="#C7C7C7"></path><path d="M205.697 346.19L202.879 349.884H270.414V346.19H205.697Z" fill="#A6A6A6"></path><path d="M209.227 349.872H289.466L296.144 295.384H215.904L209.227 349.872Z" fill="#C7C7C7"></path><path d="M247.801 322.628C247.78 323.268 247.89 323.905 248.122 324.502C248.354 325.098 248.705 325.641 249.153 326.098C249.602 326.555 250.138 326.917 250.73 327.161C251.321 327.405 251.956 327.526 252.597 327.518C253.899 327.512 255.148 326.998 256.077 326.084C257.006 325.171 257.542 323.931 257.569 322.628C257.588 321.994 257.48 321.363 257.25 320.772C257.021 320.181 256.675 319.642 256.233 319.187C255.792 318.732 255.263 318.371 254.679 318.124C254.095 317.877 253.467 317.75 252.833 317.75C251.521 317.737 250.257 318.242 249.315 319.156C248.373 320.069 247.829 321.316 247.801 322.628Z" fill="white"></path><path d="M295.494 300.653C298.513 305.318 305.984 310.776 307.014 314.778C307.304 315.757 307.271 316.803 306.919 317.761C306.567 318.719 305.915 319.537 305.06 320.094C305.06 320.094 309.382 321.586 309.713 325.375C309.891 327.317 306.919 329.306 306.919 329.306C306.919 329.306 310.341 330.644 310.471 334.042C310.542 336.742 307.558 338.328 307.558 338.328C307.558 338.328 310.234 341.146 309.429 343.917C307.783 349.541 284.814 352.572 280.149 344.58C277.97 340.862 283.63 340.424 283.63 340.424C283.63 340.424 275.342 339.086 274.596 334.362C273.85 329.638 281.226 329.519 281.226 329.519C281.226 329.519 273.222 328.158 272.938 323.185C272.642 318.011 280.042 319.159 280.042 319.159C280.042 319.159 274.478 316.365 275.141 312.505C276.218 306.147 289.349 312.908 294.215 311.049L295.494 300.653Z" fill="#D3766A"></path><path d="M307.084 338.624C307.099 338.624 307.114 338.63 307.125 338.641C307.137 338.652 307.143 338.668 307.143 338.683C307.143 338.699 307.137 338.714 307.125 338.725C307.114 338.736 307.099 338.742 307.084 338.742C299.493 341.721 291.176 342.32 283.238 340.459C282.989 340.388 282.977 339.962 283.238 339.974C291.21 340.688 299.243 340.233 307.084 338.624Z" fill="#263238"></path><path d="M307.037 329.342C307.132 329.342 307.156 329.46 307.037 329.495C299.483 332.384 289.431 333.047 280.906 329.756C280.61 329.638 280.468 329.247 280.812 329.353C286.684 331.141 299.72 330.952 307.037 329.342Z" fill="#263238"></path><path d="M279.426 318.697C287.714 321.586 296.12 321.527 304.728 320.225C304.834 320.225 304.846 320.367 304.728 320.414C300.69 322.19 295.114 322.451 290.756 322.285C286.714 322.211 282.761 321.076 279.295 318.993C279.212 318.91 279.272 318.638 279.426 318.697Z" fill="#263238"></path><path d="M458.27 456.373C457.145 459.416 401.995 527.981 398.241 529.26C396.82 529.757 386.401 522.31 373.981 512.944C371.317 510.92 368.57 508.824 365.788 506.669C347.732 492.722 328.906 477.495 328.906 477.495L365.61 431.533L401.485 461.961L409.359 468.639C409.359 468.639 442.215 451.838 446.489 450.879C450.764 449.92 459.395 453.342 458.27 456.373Z" fill="#D3766A"></path><path d="M458.281 456.385C457.097 459.416 401.994 527.981 398.241 529.272C396.998 529.71 388.852 524.062 378.539 516.378C389.065 508.717 429.013 472.736 434.377 462.991C437.194 457.865 433.074 457.9 428.03 459.321C436.318 455.26 444.547 451.329 446.548 450.867C450.81 449.92 459.394 453.342 458.281 456.385Z" fill="#263238"></path><path d="M399.615 455.023L361.36 506.646L232.304 417.064L219.813 408.48C219.813 408.48 216.261 410.848 210.98 413.784C203.615 417.857 192.817 423.02 183.262 424.44C167.231 426.808 140.473 426.56 126.963 408.492C115.585 393.289 121.766 373.446 121.766 373.446L139.36 365.856C139.36 365.856 181.001 331.165 208.032 330.123C219.481 329.661 236.164 338.411 251.615 347.421C267.066 356.431 399.615 455.023 399.615 455.023Z" fill="#37474F"></path><path d="M219.812 408.48C219.812 408.48 216.26 410.848 210.979 413.784C201.602 402.56 181.746 382.16 181.143 381.438L219.812 408.48Z" fill="#263238"></path><path d="M154.62 354.194C152.134 355.922 149.718 357.746 147.267 359.534C144.816 361.321 142.354 362.92 140.057 364.826C137.76 366.732 135.51 368.84 133.308 370.924C132.254 371.93 131.2 372.948 130.17 373.99C129.087 374.994 128.085 376.083 127.175 377.246C127.092 377.353 127.258 377.483 127.352 377.424C128.523 376.589 129.638 375.679 130.691 374.701C131.875 373.718 133.059 372.723 134.172 371.741C136.41 369.834 138.695 367.987 140.921 366.081C143.147 364.175 145.195 362.115 147.398 360.161C149.6 358.207 152.228 356.183 154.667 354.241C154.715 354.241 154.667 354.158 154.62 354.194Z" fill="#263238"></path><path d="M390.639 453.176C388.153 455.852 385.903 458.741 383.535 461.571C381.167 464.4 378.905 467.266 376.609 470.119C372.026 475.861 367.397 481.557 362.886 487.358C360.411 490.543 357.961 493.752 355.664 497.055C355.557 497.209 355.794 497.375 355.912 497.245C360.85 491.81 365.384 486.02 369.943 480.301C374.501 474.583 379.095 468.864 383.618 463.003C386.081 459.83 388.626 456.669 390.888 453.342C390.947 453.212 390.722 453.058 390.639 453.176Z" fill="#263238"></path><path d="M284.683 453.709C278.266 448.641 271.6 443.858 264.946 439.11C258.292 434.362 251.697 429.638 244.972 425.068C243.042 423.754 241.088 422.463 239.147 421.173C237.205 419.882 235.18 418.686 233.286 417.348C233.167 417.277 233.073 417.455 233.179 417.538C234.932 418.793 236.577 420.19 238.294 421.492C240.011 422.795 241.562 423.99 243.208 425.21C246.44 427.578 249.696 429.946 252.952 432.314C259.551 437.05 266.201 441.747 272.902 446.404C276.715 449.008 280.504 451.637 284.399 454.123C284.636 454.242 284.908 453.875 284.683 453.709Z" fill="#263238"></path><path d="M325.969 400.441C320.049 395.527 313.679 391.099 307.451 386.552C301.223 382.006 294.901 377.305 288.578 372.747C282.256 368.189 276.051 363.677 269.776 359.155C263.702 354.762 257.652 350.298 251.235 346.403C247.683 344.284 244.131 342.306 240.425 340.483C236.836 338.645 233.097 337.116 229.248 335.913C229.221 335.902 229.191 335.902 229.165 335.913C229.138 335.924 229.117 335.945 229.106 335.972C229.095 335.999 229.095 336.029 229.106 336.055C229.117 336.082 229.138 336.103 229.165 336.114C232.338 337.878 235.653 339.358 238.862 341.063C242.071 342.768 245.137 344.52 248.204 346.379C254.574 350.251 260.588 354.667 266.627 358.977C279.177 367.999 291.704 377.069 304.349 385.972C311.453 390.945 318.344 396.202 325.661 400.784C325.922 400.973 326.182 400.618 325.969 400.441Z" fill="#263238"></path><path d="M308.638 275.845C311.939 255.712 298.293 236.715 278.16 233.415C258.027 230.114 239.031 243.76 235.73 263.893C232.43 284.026 246.075 303.023 266.208 306.323C286.341 309.624 305.338 295.978 308.638 275.845Z" fill="#3581B8"></path><path d="M293.691 293.715H250.641V257.295L272.166 243.632L293.691 257.295V293.715Z" fill="#A6A6A6"></path><path d="M291.264 293.348H253.08V245.502H281.437L291.264 254.856V293.348Z" fill="white"></path><path d="M281.438 245.502L291.265 254.856H281.438V245.502Z" fill="#EBEBEB"></path><path d="M256.81 254.998H278.039V253.743H256.81V254.998Z" fill="#DBDBDB"></path><path d="M256.81 258.171H278.039V256.916H256.81V258.171Z" fill="#DBDBDB"></path><path d="M256.81 261.344H278.039V260.089H256.81V261.344Z" fill="#DBDBDB"></path><path d="M256.799 264.529H287.914V263.274H256.799V264.529Z" fill="#DBDBDB"></path><path d="M256.799 267.702H287.914V266.447H256.799V267.702Z" fill="#DBDBDB"></path><path d="M256.799 270.887H287.914V269.632H256.799V270.887Z" fill="#DBDBDB"></path><path d="M256.799 274.06H287.914V272.805H256.799V274.06Z" fill="#DBDBDB"></path><path d="M256.799 277.234H287.914V275.979H256.799V277.234Z" fill="#DBDBDB"></path><path d="M256.799 280.419H287.914V279.164H256.799V280.419Z" fill="#DBDBDB"></path><path d="M256.799 283.592H287.914V282.337H256.799V283.592Z" fill="#DBDBDB"></path><path d="M256.799 286.777H287.914V285.522H256.799V286.777Z" fill="#DBDBDB"></path><path d="M256.799 289.95H287.914V288.695H256.799V289.95Z" fill="#DBDBDB"></path><path d="M293.691 266.4V293.703H250.652V266.4C252.499 267.442 254.311 268.543 256.146 269.621C257.981 270.698 259.793 271.799 261.593 272.912C263.613 274.143 265.63 275.391 267.643 276.653L272.166 279.483L276.677 276.653H276.617H276.689L282.727 272.924C284.538 271.811 286.362 270.722 288.185 269.632C290.008 268.543 291.844 267.454 293.691 266.4Z" fill="#EBEBEB"></path><path d="M293.691 266.4C291.962 267.584 290.139 268.768 288.434 269.952C286.729 271.136 284.882 272.32 283.118 273.504C281.353 274.688 279.4 275.931 277.541 277.127L277.375 277.245L272.414 280.407L272.166 280.549L271.929 280.407L266.98 277.234L266.802 277.127C264.931 275.935 263.069 274.727 261.214 273.504C259.449 272.32 257.662 271.136 255.909 269.952C254.157 268.768 252.357 267.584 250.652 266.4C252.499 267.442 254.311 268.543 256.146 269.621C257.981 270.698 259.793 271.799 261.593 272.912C263.613 274.143 265.63 275.391 267.643 276.653L272.166 279.483L276.677 276.653L282.715 272.924C284.527 271.811 286.35 270.722 288.173 269.632C289.997 268.543 291.844 267.454 293.691 266.4Z" fill="#DBDBDB"></path><path d="M267.702 276.63L267.028 277.21C265.95 278.122 264.837 278.998 263.712 279.838C262.339 280.892 260.942 281.887 259.533 282.881C258.124 283.876 256.691 284.835 255.235 285.758C253.779 286.682 252.322 287.605 250.795 288.434C252.109 287.25 253.459 286.232 254.832 285.19C256.206 284.148 257.615 283.142 259.012 282.147C260.409 281.153 261.853 280.194 263.31 279.258C264.494 278.512 265.678 277.79 266.862 277.103C267.134 276.938 267.418 276.784 267.702 276.63Z" fill="#DBDBDB"></path><path d="M293.631 288.47C292.103 287.641 290.635 286.729 289.191 285.794C287.746 284.859 286.314 283.9 284.881 282.917C283.448 281.934 282.075 280.928 280.702 279.874C279.589 279.033 278.476 278.169 277.41 277.257L276.723 276.665H276.664H276.735L277.576 277.151C278.76 277.837 279.944 278.56 281.128 279.306C282.572 280.241 284.005 281.212 285.414 282.195C286.823 283.177 288.232 284.184 289.593 285.237C290.955 286.291 292.281 287.333 293.631 288.47Z" fill="#DBDBDB"></path><path d="M280.993 263.941C282.146 259.073 279.135 254.192 274.268 253.039C269.4 251.885 264.519 254.896 263.366 259.764C262.212 264.631 265.223 269.512 270.091 270.666C274.959 271.819 279.839 268.808 280.993 263.941Z" fill="#3581B8"></path><path d="M267.584 262.599C268.878 263.679 270.104 264.837 271.254 266.068L270.426 266.128C270.875 265.334 271.361 264.565 271.858 263.76C272.356 262.955 272.853 262.232 273.386 261.498C274.428 259.994 275.571 258.562 276.807 257.212C276.083 258.896 275.24 260.526 274.285 262.09C273.836 262.872 273.326 263.641 272.841 264.458C272.356 265.275 271.835 265.974 271.29 266.72L270.876 267.3L270.461 266.779C269.413 265.449 268.452 264.053 267.584 262.599Z" fill="white"></path></svg>