<svg xmlns="http://www.w3.org/2000/svg" xmlns:xlink="http://www.w3.org/1999/xlink" width="1366" zoomAndPan="magnify" viewBox="0 0 1024.5 1024.500009" height="1366" preserveAspectRatio="xMidYMid meet" version="1.0"><defs><g/><clipPath id="49f121234e"><path d="M 377 396 L 677 396 L 677 758 L 377 758 Z M 377 396 " clip-rule="nonzero"/></clipPath><clipPath id="f7bb979bfa"><path d="M 217.007812 436 L 314 436 L 314 470 L 217.007812 470 Z M 217.007812 436 " clip-rule="nonzero"/></clipPath><clipPath id="5faaf06859"><path d="M 514 139.550781 L 548 139.550781 L 548 236 L 514 236 Z M 514 139.550781 " clip-rule="nonzero"/></clipPath><clipPath id="33591b4c16"><path d="M 748 436 L 844.449219 436 L 844.449219 470 L 748 470 Z M 748 436 " clip-rule="nonzero"/></clipPath></defs><path fill="#ffffff" d="M 0 0 L 1024 0 L 1024 1024 L 0 1024 Z M 0 0 " fill-opacity="1" fill-rule="nonzero"/><path fill="#ffffff" d="M 0 0 L 1024 0 L 1024 1024 L 0 1024 Z M 0 0 " fill-opacity="1" fill-rule="nonzero"/><path fill="#2f5597" d="M 525.644531 379.757812 L 531.585938 382.597656 L 531.585938 320.863281 C 531.585938 308.515625 521.550781 298.480469 509.203125 298.480469 C 496.855469 298.480469 486.886719 308.515625 486.886719 320.863281 L 486.886719 375.203125 L 508.144531 375.535156 C 514.089844 375.730469 520.097656 377.183594 525.644531 379.757812 Z M 525.644531 379.757812 " fill-opacity="1" fill-rule="nonzero"/><path fill="#2f5597" d="M 426.800781 374.210938 C 427.527344 374.148438 428.253906 374.082031 429.308594 374.082031 L 464.632812 374.742188 L 464.632812 332.019531 C 464.632812 319.675781 454.597656 309.636719 442.25 309.636719 C 429.902344 309.636719 419.867188 319.675781 419.867188 332.019531 L 419.867188 374.34375 L 424.027344 374.34375 C 425.019531 374.34375 425.875 374.277344 426.800781 374.210938 Z M 426.800781 374.210938 " fill-opacity="1" fill-rule="nonzero"/><path fill="#2f5597" d="M 576.15625 425.316406 C 588.503906 425.316406 598.539062 415.28125 598.539062 402.933594 L 598.539062 332.019531 C 598.539062 319.675781 588.503906 309.636719 576.15625 309.636719 C 563.808594 309.636719 553.773438 319.675781 553.773438 332.019531 L 553.773438 403 C 553.773438 415.480469 563.609375 425.316406 576.15625 425.316406 Z M 576.15625 425.316406 " fill-opacity="1" fill-rule="nonzero"/><g clip-path="url(#49f121234e)"><path fill="#2f5597" d="M 668 436.675781 L 667.074219 431.261719 L 662.121094 433.636719 C 646.871094 440.835938 629.96875 438.984375 616.960938 429.28125 L 613.660156 426.835938 L 611.148438 430.070312 C 602.632812 441.164062 589.886719 447.503906 576.089844 447.503906 C 567.4375 447.503906 558.921875 444.929688 551.460938 439.976562 L 547.761719 437.597656 L 545.519531 441.363281 C 542.8125 445.917969 540.433594 449.152344 537.792969 451.730469 C 530.597656 458.53125 521.878906 462.625 512.570312 463.679688 L 504.117188 464.605469 L 509.996094 470.746094 C 535.679688 497.421875 542.152344 531.6875 539.972656 552.949219 C 539.378906 558.628906 534.691406 562.984375 528.945312 562.984375 L 527.757812 562.984375 C 521.683594 562.257812 517.191406 556.777344 517.785156 550.769531 C 517.851562 550.175781 523.332031 492.996094 465.824219 466.253906 L 460.804688 463.945312 L 457.304688 486.789062 C 456.445312 492.730469 450.703125 496.824219 444.695312 496.035156 C 438.621094 495.109375 434.394531 489.429688 435.25 483.421875 L 440.535156 448.957031 C 441.328125 443.476562 445.949219 439.582031 451.890625 439.515625 L 506.230469 441.890625 C 512.503906 441.890625 518.183594 439.644531 522.078125 435.816406 C 526.503906 431.722656 529.011719 426.109375 529.011719 419.96875 C 529.011719 408.152344 519.371094 398.246094 507.421875 397.917969 L 428.648438 396.398438 C 428.515625 396.398438 428.449219 396.398438 428.320312 396.398438 C 407.125 396.398438 389.164062 411.847656 386.390625 432.515625 L 377.808594 498.210938 C 374.308594 525.878906 382.824219 553.609375 401.183594 574.277344 L 463.117188 644.597656 C 464.832031 646.511719 465.824219 649.085938 465.824219 651.925781 L 465.824219 745.550781 C 465.824219 752.617188 471.566406 758.363281 478.632812 758.363281 L 603.09375 758.363281 C 610.160156 758.363281 615.902344 752.617188 615.902344 745.550781 L 615.902344 648.886719 C 615.902344 644.992188 617.820312 641.492188 621.054688 639.511719 L 635.183594 630.597656 C 660.800781 614.75 676.121094 587.546875 676.386719 557.835938 C 676.78125 512.277344 673.941406 471.539062 668 436.675781 Z M 668 436.675781 " fill-opacity="1" fill-rule="nonzero"/></g><path fill="#2f5597" d="M 643.105469 415.875 C 655.453125 415.875 665.425781 405.839844 665.425781 393.492188 L 665.425781 341.527344 C 665.425781 329.183594 655.386719 319.210938 643.105469 319.210938 C 630.5625 319.210938 620.722656 329.050781 620.722656 341.527344 L 620.722656 393.492188 C 620.722656 405.839844 630.761719 415.875 643.105469 415.875 Z M 643.105469 415.875 " fill-opacity="1" fill-rule="nonzero"/><path fill="#2f5597" d="M 273.417969 618.25 C 267.671875 618.25 262.128906 615.28125 259.089844 609.996094 C 254.535156 602.074219 257.242188 591.972656 265.097656 587.417969 L 319.570312 555.921875 C 327.496094 551.363281 337.597656 554.070312 342.152344 561.996094 C 346.707031 569.917969 344 580.019531 336.144531 584.578125 L 281.671875 616.070312 C 279.097656 617.523438 276.257812 618.25 273.417969 618.25 Z M 273.417969 618.25 " fill-opacity="1" fill-rule="nonzero"/><g clip-path="url(#f7bb979bfa)"><path fill="#2f5597" d="M 296.527344 469.6875 L 233.601562 469.6875 C 224.492188 469.6875 217.097656 462.292969 217.097656 453.183594 C 217.097656 444.070312 224.492188 436.675781 233.601562 436.675781 L 296.527344 436.675781 C 305.640625 436.675781 313.035156 444.070312 313.035156 453.183594 C 313.101562 462.292969 305.707031 469.6875 296.527344 469.6875 Z M 296.527344 469.6875 " fill-opacity="1" fill-rule="nonzero"/></g><path fill="#2f5597" d="M 327.890625 352.621094 C 325.117188 352.621094 322.277344 351.894531 319.636719 350.375 L 265.164062 318.949219 C 257.242188 314.390625 254.535156 304.289062 259.089844 296.367188 C 263.644531 288.507812 273.75 285.800781 281.671875 290.292969 L 336.144531 321.722656 C 344.066406 326.277344 346.773438 336.378906 342.21875 344.300781 C 339.183594 349.652344 333.636719 352.621094 327.890625 352.621094 Z M 327.890625 352.621094 " fill-opacity="1" fill-rule="nonzero"/><path fill="#2f5597" d="M 413.660156 266.851562 C 407.917969 266.851562 402.371094 263.878906 399.332031 258.597656 L 367.835938 204.125 C 363.28125 196.203125 365.988281 186.101562 373.914062 181.542969 C 381.835938 176.988281 391.9375 179.695312 396.492188 187.617188 L 427.988281 242.089844 C 432.542969 250.015625 429.835938 260.117188 421.914062 264.671875 C 419.273438 266.191406 416.433594 266.851562 413.660156 266.851562 Z M 413.660156 266.851562 " fill-opacity="1" fill-rule="nonzero"/><g clip-path="url(#5faaf06859)"><path fill="#2f5597" d="M 530.726562 235.488281 C 521.617188 235.488281 514.222656 228.09375 514.222656 218.980469 L 514.222656 156.058594 C 514.222656 146.945312 521.617188 139.550781 530.726562 139.550781 C 539.839844 139.550781 547.234375 146.945312 547.234375 156.058594 L 547.234375 218.980469 C 547.234375 228.09375 539.839844 235.488281 530.726562 235.488281 Z M 530.726562 235.488281 " fill-opacity="1" fill-rule="nonzero"/></g><path fill="#2f5597" d="M 647.796875 266.851562 C 645.023438 266.851562 642.183594 266.125 639.542969 264.605469 C 631.617188 260.050781 628.910156 249.949219 633.46875 242.023438 L 664.960938 187.550781 C 669.519531 179.695312 679.621094 176.921875 687.542969 181.476562 C 695.46875 186.035156 698.175781 196.136719 693.617188 204.058594 L 662.121094 258.597656 C 659.085938 263.878906 653.539062 266.851562 647.796875 266.851562 Z M 647.796875 266.851562 " fill-opacity="1" fill-rule="nonzero"/><path fill="#2f5597" d="M 733.566406 352.621094 C 727.820312 352.621094 722.273438 349.652344 719.238281 344.367188 C 714.679688 336.445312 717.386719 326.34375 725.246094 321.785156 L 779.71875 290.292969 C 787.640625 285.734375 797.742188 288.441406 802.300781 296.367188 C 806.855469 304.289062 804.148438 314.390625 796.292969 318.949219 L 741.816406 350.441406 C 739.175781 351.894531 736.339844 352.621094 733.566406 352.621094 Z M 733.566406 352.621094 " fill-opacity="1" fill-rule="nonzero"/><g clip-path="url(#33591b4c16)"><path fill="#2f5597" d="M 827.851562 469.6875 L 764.929688 469.6875 C 755.816406 469.6875 748.421875 462.292969 748.421875 453.183594 C 748.421875 444.070312 755.816406 436.675781 764.929688 436.675781 L 827.851562 436.675781 C 836.964844 436.675781 844.359375 444.070312 844.359375 453.183594 C 844.359375 462.292969 836.964844 469.6875 827.851562 469.6875 Z M 827.851562 469.6875 " fill-opacity="1" fill-rule="nonzero"/></g><path fill="#2f5597" d="M 788.039062 618.25 C 785.265625 618.25 782.425781 617.523438 779.785156 616.007812 L 725.3125 584.578125 C 717.386719 580.019531 714.679688 569.917969 719.238281 561.996094 C 723.792969 554.070312 733.894531 551.363281 741.816406 555.921875 L 796.292969 587.351562 C 804.214844 591.90625 806.921875 602.007812 802.367188 609.929688 C 799.328125 615.28125 793.78125 618.25 788.039062 618.25 Z M 788.039062 618.25 " fill-opacity="1" fill-rule="nonzero"/><g fill="#2f5597" fill-opacity="1"><g transform="translate(493.836996, 817.491208)"><g><path d="M 13.570312 -0.214844 L 13.570312 -14.675781 L 9.820312 -14.675781 C 8.09375 -14.675781 6.628906 -14.101562 5.421875 -12.949219 C 4.21875 -11.800781 3.613281 -10.367188 3.613281 -8.660156 C 3.613281 -6.953125 4.207031 -5.527344 5.394531 -4.382812 C 6.582031 -3.242188 8.03125 -2.671875 9.738281 -2.671875 C 10.765625 -2.671875 11.710938 -2.914062 12.574219 -3.398438 L 12.574219 -0.675781 C 11.4375 -0.296875 10.449219 -0.109375 9.605469 -0.109375 C 7.175781 -0.109375 5.105469 -0.929688 3.386719 -2.578125 C 1.667969 -4.222656 0.808594 -6.25 0.808594 -8.660156 C 0.808594 -10.027344 1.125 -11.332031 1.753906 -12.574219 C 2.507812 -14.011719 3.570312 -15.125 4.9375 -15.917969 C 6.304688 -16.710938 7.816406 -17.105469 9.46875 -17.105469 L 16.1875 -17.105469 L 16.1875 -0.214844 Z M 13.570312 -0.214844 "/></g></g></g><g fill="#2f5597" fill-opacity="1"><g transform="translate(511.181951, 817.491208)"><g><path d="M 7.636719 -14.839844 C 6.25 -14.839844 5.105469 -14.359375 4.195312 -13.394531 C 3.285156 -12.433594 2.832031 -11.242188 2.832031 -9.820312 L 2.832031 -0.214844 L 0.0546875 -0.214844 L 0.0546875 -17.105469 L 2.832031 -17.105469 L 2.832031 -15.351562 C 3.730469 -16.050781 4.515625 -16.539062 5.179688 -16.808594 C 5.988281 -17.167969 6.890625 -17.347656 7.878906 -17.347656 C 10.164062 -17.347656 12.03125 -16.449219 13.488281 -14.648438 L 11.117188 -13.355469 C 10.199219 -14.34375 9.039062 -14.839844 7.636719 -14.839844 Z M 7.636719 -14.839844 "/></g></g></g><g fill="#2f5597" fill-opacity="1"><g transform="translate(523.860222, 817.491208)"><g><path d="M 15.863281 -0.214844 L 13.191406 -0.214844 L 13.191406 -9.820312 C 13.191406 -11.222656 12.742188 -12.410156 11.84375 -13.382812 C 10.945312 -14.351562 9.792969 -14.839844 8.390625 -14.839844 C 6.988281 -14.839844 5.835938 -14.359375 4.9375 -13.394531 C 4.039062 -12.433594 3.589844 -11.242188 3.589844 -9.820312 L 3.589844 -0.214844 L 0.808594 -0.214844 L 0.808594 -17.105469 L 3.589844 -17.105469 L 3.589844 -15.351562 C 4.488281 -16.050781 5.269531 -16.539062 5.933594 -16.808594 C 6.746094 -17.167969 7.644531 -17.347656 8.632812 -17.347656 C 9.890625 -17.347656 11.050781 -17.046875 12.113281 -16.445312 C 13.175781 -15.839844 14.027344 -15.035156 14.675781 -14.027344 C 15.414062 -15.019531 16.355469 -15.820312 17.496094 -16.429688 C 18.636719 -17.042969 19.804688 -17.347656 20.988281 -17.347656 C 23.023438 -17.347656 24.738281 -16.625 26.144531 -15.175781 C 27.546875 -13.726562 28.246094 -11.988281 28.246094 -9.957031 L 28.246094 -0.214844 L 25.550781 -0.214844 L 25.550781 -9.820312 C 25.550781 -11.222656 25.101562 -12.410156 24.199219 -13.382812 C 23.300781 -14.351562 22.160156 -14.839844 20.773438 -14.839844 C 19.371094 -14.839844 18.203125 -14.363281 17.265625 -13.410156 C 16.332031 -12.457031 15.863281 -11.285156 15.863281 -9.902344 Z M 15.863281 -0.214844 "/></g></g></g><g fill="#2f5597" fill-opacity="1"><g transform="translate(553.047213, 817.491208)"><g><path d="M 15.808594 -9.957031 C 15.304688 -13.210938 13.273438 -14.839844 9.710938 -14.839844 C 7.933594 -14.839844 6.398438 -14.234375 5.113281 -13.03125 C 3.828125 -11.824219 3.191406 -10.359375 3.210938 -8.632812 C 3.230469 -6.941406 3.835938 -5.503906 5.03125 -4.316406 C 6.226562 -3.128906 7.671875 -2.535156 9.363281 -2.535156 C 10.800781 -2.535156 12.167969 -2.804688 13.460938 -3.34375 C 14.972656 -3.992188 15.9375 -4.867188 16.347656 -5.960938 L 18.15625 -4.207031 C 17.417969 -2.824219 16.242188 -1.761719 14.621094 -1.023438 C 13.148438 -0.324219 11.511719 0.0273438 9.710938 0.0273438 C 7.195312 0.0273438 5.039062 -0.804688 3.25 -2.46875 C 1.460938 -4.132812 0.566406 -6.1875 0.566406 -8.632812 C 0.566406 -11.0625 1.464844 -13.121094 3.265625 -14.8125 C 5.0625 -16.503906 7.210938 -17.347656 9.710938 -17.347656 C 12.410156 -17.328125 14.523438 -16.71875 16.050781 -15.511719 C 17.871094 -14.09375 18.777344 -11.890625 18.777344 -8.902344 C 18.777344 -8.542969 18.769531 -8.164062 18.75 -7.769531 L 5.800781 -7.769531 L 5.800781 -9.929688 L 15.78125 -9.929688 Z M 15.808594 -9.957031 "/></g></g></g><g fill="#2f5597" fill-opacity="1"><g transform="translate(572.496224, 817.491208)"><g><path d="M 0.808594 -21.554688 L 3.589844 -21.554688 L 3.589844 -0.214844 L 0.808594 -0.214844 Z M 0.808594 -21.554688 "/></g></g></g><g fill="#2f5597" fill-opacity="1"><g transform="translate(577.135935, 817.491208)"><g><path d="M 0.484375 -17.078125 L 3.722656 -17.078125 L 7.367188 -11.492188 L 11.007812 -17.078125 L 14.273438 -17.078125 L 8.769531 -8.660156 L 8.769531 -0.214844 L 5.988281 -0.214844 L 5.988281 -8.660156 Z M 0.484375 -17.078125 "/></g></g></g></svg>