<svg width="116" height="116" viewBox="0 0 116 116" fill="none" xmlns="http://www.w3.org/2000/svg"><path d="M102.133 90.6855H90.3975V44.5899H94.3125C94.5408 44.5904 94.7644 44.5261 94.9577 44.4047C95.1509 44.2832 95.3058 44.1095 95.4044 43.9037C95.503 43.6979 95.5413 43.4683 95.5149 43.2417C95.4885 43.015 95.3984 42.8004 95.255 42.6228L85.006 29.8749C84.934 29.8254 84.8717 29.7632 84.8223 29.6912C84.7903 29.6724 84.7572 29.6554 84.7232 29.6404C84.6549 29.5951 84.582 29.557 84.5057 29.5269C84.4366 29.4996 84.3655 29.4778 84.293 29.4616C84.2133 29.4471 84.1324 29.4406 84.0514 29.4423C83.9744 29.4415 83.8975 29.448 83.8218 29.4616C83.75 29.4775 83.6797 29.4993 83.6115 29.5269C83.535 29.5565 83.4621 29.5946 83.394 29.6404C83.3598 29.6549 83.3267 29.6719 83.295 29.6912C83.2587 29.7178 83.2418 29.7589 83.2104 29.7903C83.1789 29.8217 83.1379 29.8386 83.1113 29.8749L72.8598 42.6228C72.7165 42.8004 72.6264 43.015 72.5999 43.2417C72.5735 43.4683 72.6118 43.6979 72.7104 43.9037C72.809 44.1095 72.9639 44.2832 73.1571 44.4047C73.3504 44.5261 73.5741 44.5904 73.8023 44.5899H77.7197V90.6855H64.8582V57.0938H68.7756C69.0034 57.0938 69.2266 57.0295 69.4194 56.9081C69.6122 56.7868 69.7668 56.6135 69.8653 56.4081C69.9638 56.2027 70.0023 55.9736 69.9762 55.7473C69.9502 55.521 69.8607 55.3067 69.7181 55.129L59.4666 42.3787C59.44 42.3424 59.3989 42.328 59.3675 42.2965C59.3414 42.261 59.3131 42.2271 59.2829 42.195C59.2539 42.1709 59.2177 42.166 59.1863 42.1443C59.1174 42.0998 59.0446 42.0618 58.9688 42.0307C58.8997 42.0035 58.8286 41.9816 58.7561 41.9654C58.6041 41.9397 58.4489 41.9397 58.2969 41.9654C58.2245 41.9816 58.1534 42.0035 58.0843 42.0307C58.0084 42.0618 57.9356 42.0998 57.8668 42.1443C57.8354 42.166 57.7991 42.1709 57.7677 42.195C57.7363 42.2192 57.7169 42.2651 57.6855 42.2965C57.6541 42.328 57.613 42.3449 57.584 42.3787L47.3349 55.129C47.1923 55.3067 47.1029 55.521 47.0768 55.7473C47.0508 55.9736 47.0892 56.2027 47.1878 56.4081C47.2863 56.6135 47.4409 56.7868 47.6337 56.9081C47.8265 57.0295 48.0496 57.0938 48.2775 57.0938H52.1997V90.6855H39.3189V69.5831H43.2363C43.4639 69.5827 43.6867 69.518 43.8792 69.3965C44.0716 69.275 44.2258 69.1016 44.3241 68.8963C44.4223 68.691 44.4606 68.4621 44.4344 68.236C44.4083 68.01 44.3188 67.7958 44.1764 67.6184L33.9273 54.8704C33.8975 54.8404 33.8661 54.8122 33.833 54.7859C33.8069 54.7504 33.7786 54.7165 33.7485 54.6844C33.717 54.6602 33.6808 54.6554 33.647 54.6336C33.58 54.5895 33.5087 54.5522 33.4343 54.5225C33.3645 54.4949 33.2926 54.473 33.2192 54.4572C33.068 54.4314 32.9136 54.4314 32.7625 54.4572C32.6888 54.4719 32.6168 54.4938 32.5474 54.5225C32.4724 54.5527 32.4004 54.5899 32.3323 54.6336C32.3009 54.6554 32.2622 54.6602 32.2332 54.6844C32.203 54.7165 32.1748 54.7504 32.1486 54.7859C32.1139 54.812 32.0808 54.8403 32.0495 54.8704L21.7956 67.6184C21.6531 67.7958 21.5637 68.01 21.5376 68.236C21.5114 68.4621 21.5497 68.691 21.6479 68.8963C21.7461 69.1016 21.9004 69.275 22.0928 69.3965C22.2853 69.518 22.5081 69.5827 22.7357 69.5831H26.6507V90.6855H15.0749V24.1063C15.0749 23.7858 14.9476 23.4785 14.721 23.2519C14.4944 23.0253 14.187 22.8979 13.8665 22.8979C13.5461 22.8979 13.2387 23.0253 13.0121 23.2519C12.7855 23.4785 12.6582 23.7858 12.6582 24.1063V91.8938C12.6582 92.2143 12.7855 92.5216 13.0121 92.7482C13.2387 92.9748 13.5461 93.1021 13.8665 93.1021H102.133C102.453 93.1021 102.761 92.9748 102.987 92.7482C103.214 92.5216 103.341 92.2143 103.341 91.8938C103.341 91.5733 103.214 91.266 102.987 91.0394C102.761 90.8128 102.453 90.6855 102.133 90.6855ZM78.9329 42.1733H76.3374L84.0707 32.5598L91.804 42.1733H89.1892C88.8687 42.1733 88.5614 42.3006 88.3348 42.5272C88.1082 42.7538 87.9809 43.0611 87.9809 43.3816V90.6855H80.1485V43.3816C80.1485 43.0611 80.0211 42.7538 79.7945 42.5272C79.5679 42.3006 79.2606 42.1733 78.9401 42.1733H78.9329ZM53.408 54.6699H50.8004L58.5338 45.0588L66.2671 54.6699H63.6499C63.3294 54.6699 63.0221 54.7972 62.7955 55.0238C62.5688 55.2504 62.4415 55.5577 62.4415 55.8782V90.6782H54.6164V55.8782C54.6164 55.5577 54.4891 55.2504 54.2625 55.0238C54.0358 54.7972 53.7285 54.6699 53.408 54.6699ZM27.859 67.1664H25.2587L32.992 57.5554L40.7254 67.1664H38.1105C37.7901 67.1664 37.4827 67.2938 37.2561 67.5204C37.0295 67.747 36.9022 68.0543 36.9022 68.3748V90.6855H29.0674V68.3748C29.0674 68.0543 28.9401 67.747 28.7135 67.5204C28.4869 67.2938 28.1795 67.1664 27.859 67.1664Z" fill="#EDEDED"></path></svg>