<svg xmlns="http://www.w3.org/2000/svg" xmlns:xlink="http://www.w3.org/1999/xlink" width="698" zoomAndPan="magnify" viewBox="0 0 523.5 523.499968" height="698" preserveAspectRatio="xMidYMid meet" version="1.0"><defs><g/><clipPath id="45999e40eb"><path d="M 100.730469 47 L 441.65625 47 L 441.65625 387 L 100.730469 387 Z M 100.730469 47 " clip-rule="nonzero"/></clipPath><clipPath id="36b5709d78"><path d="M 164 46.199219 L 188 46.199219 L 188 95 L 164 95 Z M 164 46.199219 " clip-rule="nonzero"/></clipPath></defs><path fill="#ffffff" d="M 0 0 L 523 0 L 523 523 L 0 523 Z M 0 0 " fill-opacity="1" fill-rule="nonzero"/><path fill="#ffffff" d="M 0 0 L 523 0 L 523 523 L 0 523 Z M 0 0 " fill-opacity="1" fill-rule="nonzero"/><g clip-path="url(#45999e40eb)"><path fill="#2f5597" d="M 436.828125 135.625 L 414.832031 132.480469 C 411.363281 131.988281 410.378906 129.144531 410.15625 128.292969 C 409.9375 127.433594 409.433594 124.464844 412.238281 122.359375 L 430.015625 109.035156 C 431.21875 108.132812 432.011719 106.792969 432.226562 105.3125 C 432.433594 103.824219 432.050781 102.320312 431.152344 101.121094 L 410.789062 73.984375 C 409.890625 72.777344 408.550781 71.988281 407.070312 71.773438 C 405.554688 71.558594 404.078125 71.949219 402.878906 72.847656 L 385.109375 86.171875 C 382.300781 88.269531 379.589844 86.96875 378.828125 86.511719 C 378.0625 86.058594 375.621094 84.320312 376.121094 80.851562 L 379.261719 58.859375 C 379.703125 55.765625 377.554688 52.898438 374.460938 52.457031 L 340.871094 47.667969 C 339.390625 47.453125 337.878906 47.84375 336.679688 48.742188 C 335.476562 49.640625 334.683594 50.980469 334.46875 52.464844 L 331.328125 74.457031 C 330.835938 77.929688 327.992188 78.914062 327.136719 79.132812 C 326.273438 79.359375 323.316406 79.859375 321.207031 77.054688 L 307.878906 59.277344 C 306.980469 58.070312 305.640625 57.28125 304.160156 57.066406 C 302.6875 56.851562 301.167969 57.242188 299.96875 58.140625 L 282.972656 70.890625 C 275.1875 70.09375 267.40625 70.066406 259.847656 70.894531 C 209.707031 76.429688 169.867188 116.949219 165.121094 167.21875 C 164.96875 168.816406 164.917969 170.402344 164.832031 172 L 163.132812 172 C 160.457031 172 158.144531 173.871094 157.597656 176.492188 L 153.695312 195.074219 L 138.066406 184.308594 C 135.828125 182.753906 132.785156 183.035156 130.863281 184.964844 L 113.902344 201.925781 C 111.972656 203.855469 111.691406 206.882812 113.246094 209.128906 L 124.011719 224.75 L 105.425781 228.664062 C 102.808594 229.21875 100.933594 231.527344 100.933594 234.199219 L 100.933594 256.816406 C 100.933594 259.492188 102.808594 261.796875 105.425781 262.351562 L 124.011719 266.257812 L 113.246094 281.882812 C 111.695312 284.125 111.972656 287.164062 113.902344 289.085938 L 130.863281 306.046875 C 132.792969 307.976562 135.828125 308.265625 138.066406 306.703125 L 153.695312 295.933594 L 157.597656 314.519531 C 158.144531 317.140625 160.460938 319.011719 163.132812 319.011719 L 185.75 319.011719 C 188.421875 319.011719 190.730469 317.140625 191.285156 314.523438 L 195.191406 295.9375 L 210.8125 306.703125 C 213.050781 308.257812 216.089844 307.976562 218.015625 306.046875 L 226.820312 297.246094 L 226.820312 313.359375 C 226.820312 321.691406 231.398438 328.90625 238.128906 332.832031 L 238.128906 364.246094 C 238.128906 376.71875 248.273438 386.863281 260.746094 386.863281 L 283.363281 386.863281 C 295.835938 386.863281 305.980469 376.71875 305.980469 364.246094 L 305.980469 332.832031 C 312.707031 328.90625 317.289062 321.691406 317.289062 313.359375 L 317.289062 290.980469 C 317.289062 281.832031 322.179688 273.195312 330.367188 267.898438 C 335.042969 264.867188 339.519531 261.441406 343.675781 257.722656 L 336.132812 249.296875 C 332.414062 252.632812 328.402344 255.699219 324.21875 258.40625 C 312.796875 265.800781 305.980469 277.980469 305.980469 290.980469 L 305.980469 313.359375 C 305.980469 319.59375 300.90625 324.667969 294.671875 324.667969 L 249.4375 324.667969 C 243.199219 324.667969 238.128906 319.59375 238.128906 313.359375 L 238.128906 290.511719 C 238.128906 277.738281 231.421875 265.8125 220.195312 258.597656 C 189.75 239.050781 172.957031 204.449219 176.375 168.285156 C 180.621094 123.328125 216.246094 87.09375 261.085938 82.140625 C 264.300781 81.785156 267.558594 81.632812 270.839844 81.609375 C 270.78125 81.824219 270.652344 82.007812 270.625 82.226562 C 270.414062 83.714844 270.796875 85.21875 271.699219 86.417969 L 285.023438 104.1875 C 287.128906 106.996094 285.820312 109.707031 285.371094 110.464844 C 284.910156 111.226562 283.140625 113.648438 279.703125 113.179688 L 257.710938 110.035156 C 254.617188 109.609375 251.75 111.742188 251.308594 114.835938 L 246.507812 148.414062 C 246.300781 149.902344 246.683594 151.40625 247.582031 152.605469 C 248.480469 153.808594 249.820312 154.601562 251.304688 154.816406 L 273.296875 157.957031 C 276.769531 158.449219 277.757812 161.292969 277.980469 162.148438 C 278.195312 163.003906 278.699219 165.976562 275.894531 168.078125 L 258.121094 181.40625 C 255.621094 183.277344 255.121094 186.824219 256.992188 189.316406 L 277.347656 216.457031 C 279.210938 218.957031 282.761719 219.453125 285.257812 217.589844 L 303.039062 204.261719 C 305.835938 202.15625 308.539062 203.464844 309.304688 203.917969 C 310.066406 204.367188 312.515625 206.117188 312.019531 209.582031 L 308.875 231.578125 C 308.433594 234.667969 310.582031 237.535156 313.675781 237.976562 L 347.253906 242.777344 C 347.519531 242.816406 347.792969 242.832031 348.058594 242.832031 C 349.273438 242.832031 350.464844 242.445312 351.449219 241.703125 C 352.65625 240.804688 353.445312 239.464844 353.660156 237.984375 L 356.804688 215.988281 C 357.296875 212.515625 360.140625 211.53125 360.996094 211.3125 C 361.855469 211.085938 364.8125 210.589844 366.925781 213.394531 L 380.253906 231.164062 C 382.117188 233.664062 385.664062 234.160156 388.164062 232.292969 L 415.304688 211.941406 C 417.800781 210.066406 418.3125 206.523438 416.433594 204.027344 L 403.105469 186.253906 C 401.007812 183.449219 402.316406 180.738281 402.765625 179.980469 C 403.214844 179.214844 404.945312 176.757812 408.425781 177.269531 L 430.421875 180.410156 C 433.542969 180.859375 436.382812 178.703125 436.824219 175.609375 L 441.625 142.03125 C 441.832031 140.542969 441.449219 139.039062 440.550781 137.839844 C 439.648438 136.632812 438.308594 135.839844 436.828125 135.625 Z M 174.65625 222.914062 C 179.824219 234.058594 186.890625 244.289062 195.644531 253.140625 C 192.460938 261.960938 184 268.125 174.441406 268.125 C 161.96875 268.125 151.824219 257.980469 151.824219 245.507812 C 151.824219 233.035156 161.96875 222.890625 174.441406 222.890625 C 174.511719 222.890625 174.582031 222.914062 174.65625 222.914062 Z M 283.363281 375.554688 L 260.746094 375.554688 C 254.507812 375.554688 249.4375 370.484375 249.4375 364.246094 L 249.4375 358.59375 L 294.671875 358.59375 L 294.671875 364.246094 C 294.671875 370.484375 289.597656 375.554688 283.363281 375.554688 Z M 294.671875 335.976562 L 294.671875 347.285156 L 249.4375 347.285156 L 249.4375 335.976562 Z M 225.480469 282.59375 L 213.351562 294.722656 L 201.609375 286.625 C 198.488281 284.464844 194.519531 284.019531 190.988281 285.433594 C 187.46875 286.839844 184.90625 289.898438 184.125 293.601562 L 181.164062 307.703125 L 167.722656 307.703125 L 164.765625 293.609375 C 163.980469 289.898438 161.414062 286.847656 157.894531 285.4375 C 154.375 284.035156 150.410156 284.472656 147.277344 286.632812 L 135.535156 294.726562 L 125.230469 284.425781 L 133.324219 272.6875 C 135.484375 269.566406 135.929688 265.597656 134.527344 262.070312 C 133.121094 258.546875 130.058594 255.980469 126.351562 255.199219 L 112.253906 252.238281 L 112.253906 238.796875 L 126.34375 235.835938 C 130.058594 235.054688 133.121094 232.488281 134.527344 228.964844 C 135.929688 225.4375 135.484375 221.46875 133.328125 218.351562 L 125.230469 206.609375 L 135.535156 196.304688 L 147.28125 204.402344 C 150.402344 206.558594 154.375 206.992188 157.890625 205.59375 C 161.414062 204.191406 163.980469 201.132812 164.765625 197.417969 L 165.753906 192.710938 C 166.675781 199.261719 168.160156 205.679688 170.238281 211.882812 C 153.507812 213.953125 140.515625 228.230469 140.515625 245.507812 C 140.515625 264.21875 155.730469 279.433594 174.441406 279.433594 C 187.242188 279.433594 198.683594 272.039062 204.417969 261.058594 C 207.5 263.554688 210.695312 265.941406 214.085938 268.121094 C 219.621094 271.675781 223.5625 276.816406 225.480469 282.59375 Z M 426.429688 168.40625 L 410.039062 166.066406 C 403.054688 165.066406 396.609375 168.203125 393.046875 174.214844 C 389.480469 180.230469 389.871094 187.445312 394.070312 193.03125 L 404.007812 206.285156 L 385.917969 219.851562 L 375.976562 206.609375 C 371.78125 201.011719 364.976562 198.59375 358.195312 200.355469 C 351.425781 202.089844 346.597656 207.46875 345.609375 214.382812 L 343.269531 230.773438 L 320.882812 227.578125 L 323.222656 211.1875 C 324.214844 204.261719 321.085938 197.753906 315.070312 194.191406 C 309.0625 190.628906 301.847656 191.011719 296.257812 195.21875 L 283.007812 205.15625 L 269.441406 187.066406 L 282.683594 177.125 C 288.28125 172.929688 290.679688 166.117188 288.9375 159.34375 C 287.203125 152.570312 281.824219 147.746094 274.910156 146.757812 L 258.519531 144.417969 L 261.710938 122.03125 L 278.105469 124.371094 C 285.054688 125.351562 291.539062 122.234375 295.101562 116.226562 C 298.664062 110.210938 298.273438 102.996094 294.070312 97.402344 L 284.136719 84.15625 L 302.226562 70.585938 L 312.164062 83.832031 C 316.359375 89.425781 323.164062 91.828125 329.945312 90.085938 C 336.714844 88.351562 341.542969 82.972656 342.535156 76.058594 L 344.875 59.667969 L 367.257812 62.859375 L 364.917969 79.253906 C 363.929688 86.171875 367.054688 92.679688 373.066406 96.242188 C 379.078125 99.8125 386.296875 99.414062 391.890625 95.21875 L 405.136719 85.285156 L 418.707031 103.375 L 405.457031 113.3125 C 399.867188 117.507812 397.46875 124.316406 399.207031 131.097656 C 400.941406 137.863281 406.320312 142.691406 413.234375 143.683594 L 429.625 146.023438 Z M 426.429688 168.40625 " fill-opacity="1" fill-rule="nonzero"/></g><path fill="#2f5597" d="M 344.066406 99.992188 C 319.125 99.992188 298.832031 120.285156 298.832031 145.226562 C 298.832031 170.167969 319.125 190.460938 344.066406 190.460938 C 369.007812 190.460938 389.300781 170.167969 389.300781 145.226562 C 389.300781 120.285156 369.007812 99.992188 344.066406 99.992188 Z M 344.066406 179.152344 C 325.355469 179.152344 310.140625 163.933594 310.140625 145.226562 C 310.140625 126.515625 325.355469 111.300781 344.066406 111.300781 C 362.777344 111.300781 377.992188 126.515625 377.992188 145.226562 C 377.992188 163.933594 362.777344 179.152344 344.066406 179.152344 Z M 344.066406 179.152344 " fill-opacity="1" fill-rule="nonzero"/><path fill="#2f5597" d="M 266.398438 296.394531 L 277.707031 296.394531 L 277.707031 313.359375 L 266.398438 313.359375 Z M 266.398438 296.394531 " fill-opacity="1" fill-rule="nonzero"/><path fill="#2f5597" d="M 247.324219 240.867188 C 221.125 230.597656 204.203125 205.792969 204.203125 177.65625 C 204.203125 154.226562 216.050781 132.769531 235.890625 120.246094 L 229.851562 110.683594 C 206.707031 125.289062 192.894531 150.324219 192.894531 177.65625 C 192.894531 210.480469 212.640625 239.425781 243.195312 251.390625 C 257.289062 256.917969 266.398438 270.136719 266.398438 285.085938 L 277.707031 285.085938 C 277.707031 265.449219 265.785156 248.09375 247.324219 240.867188 Z M 247.324219 240.867188 " fill-opacity="1" fill-rule="nonzero"/><path fill="#2f5597" d="M 379.484375 256.816406 L 419.0625 256.816406 L 419.0625 268.125 L 379.484375 268.125 Z M 379.484375 256.816406 " fill-opacity="1" fill-rule="nonzero"/><path fill="#2f5597" d="M 370.210938 295.082031 L 377.449219 286.394531 L 411.378906 314.660156 L 404.140625 323.347656 Z M 370.210938 295.082031 " fill-opacity="1" fill-rule="nonzero"/><path fill="#2f5597" d="M 345.558594 302.050781 L 356.867188 302.050781 L 356.867188 341.628906 L 345.558594 341.628906 Z M 345.558594 302.050781 " fill-opacity="1" fill-rule="nonzero"/><path fill="#2f5597" d="M 106.707031 143.902344 L 151.941406 132.597656 L 154.679688 143.5625 L 109.449219 154.867188 Z M 106.707031 143.902344 " fill-opacity="1" fill-rule="nonzero"/><path fill="#2f5597" d="M 116.105469 86.140625 L 122.675781 76.941406 L 162.253906 105.210938 L 155.683594 114.40625 Z M 116.105469 86.140625 " fill-opacity="1" fill-rule="nonzero"/><g clip-path="url(#36b5709d78)"><path fill="#2f5597" d="M 164.546875 49.003906 L 175.503906 46.203125 L 187.066406 91.433594 L 176.109375 94.238281 Z M 164.546875 49.003906 " fill-opacity="1" fill-rule="nonzero"/></g><g fill="#2f5597" fill-opacity="1"><g transform="translate(245.01694, 412.953988)"><g><path d="M 9.046875 -0.144531 L 9.046875 -9.78125 L 6.546875 -9.78125 C 5.394531 -9.78125 4.417969 -9.398438 3.613281 -8.632812 C 2.8125 -7.863281 2.410156 -6.910156 2.410156 -5.773438 C 2.410156 -4.632812 2.804688 -3.683594 3.597656 -2.921875 C 4.386719 -2.160156 5.351562 -1.78125 6.492188 -1.78125 C 7.175781 -1.78125 7.804688 -1.941406 8.378906 -2.265625 L 8.378906 -0.449219 C 7.625 -0.199219 6.964844 -0.0703125 6.402344 -0.0703125 C 4.785156 -0.0703125 3.402344 -0.621094 2.257812 -1.71875 C 1.113281 -2.8125 0.539062 -4.167969 0.539062 -5.773438 C 0.539062 -6.683594 0.75 -7.554688 1.167969 -8.378906 C 1.671875 -9.339844 2.378906 -10.082031 3.289062 -10.609375 C 4.203125 -11.136719 5.210938 -11.402344 6.3125 -11.402344 L 10.789062 -11.402344 L 10.789062 -0.144531 Z M 9.046875 -0.144531 "/></g></g></g><g fill="#2f5597" fill-opacity="1"><g transform="translate(256.579866, 412.953988)"><g><path d="M 5.089844 -9.890625 C 4.167969 -9.890625 3.402344 -9.570312 2.796875 -8.929688 C 2.191406 -8.285156 1.886719 -7.492188 1.886719 -6.546875 L 1.886719 -0.144531 L 0.0351562 -0.144531 L 0.0351562 -11.402344 L 1.886719 -11.402344 L 1.886719 -10.230469 C 2.488281 -10.699219 3.007812 -11.023438 3.453125 -11.203125 C 3.992188 -11.441406 4.589844 -11.5625 5.25 -11.5625 C 6.773438 -11.5625 8.019531 -10.964844 8.992188 -9.765625 L 7.410156 -8.902344 C 6.796875 -9.5625 6.023438 -9.890625 5.089844 -9.890625 Z M 5.089844 -9.890625 "/></g></g></g><g fill="#2f5597" fill-opacity="1"><g transform="translate(265.031769, 412.953988)"><g><path d="M 10.574219 -0.144531 L 8.792969 -0.144531 L 8.792969 -6.546875 C 8.792969 -7.480469 8.492188 -8.273438 7.894531 -8.917969 C 7.296875 -9.566406 6.527344 -9.890625 5.59375 -9.890625 C 4.65625 -9.890625 3.890625 -9.570312 3.289062 -8.929688 C 2.691406 -8.285156 2.390625 -7.492188 2.390625 -6.546875 L 2.390625 -0.144531 L 0.539062 -0.144531 L 0.539062 -11.402344 L 2.390625 -11.402344 L 2.390625 -10.230469 C 2.992188 -10.699219 3.511719 -11.023438 3.957031 -11.203125 C 4.496094 -11.441406 5.09375 -11.5625 5.753906 -11.5625 C 6.59375 -11.5625 7.367188 -11.363281 8.074219 -10.960938 C 8.78125 -10.558594 9.351562 -10.023438 9.78125 -9.351562 C 10.273438 -10.011719 10.902344 -10.542969 11.660156 -10.953125 C 12.421875 -11.359375 13.199219 -11.5625 13.992188 -11.5625 C 15.34375 -11.5625 16.492188 -11.082031 17.425781 -10.117188 C 18.359375 -9.148438 18.828125 -7.992188 18.828125 -6.636719 L 18.828125 -0.144531 L 17.03125 -0.144531 L 17.03125 -6.546875 C 17.03125 -7.480469 16.730469 -8.273438 16.128906 -8.917969 C 15.53125 -9.566406 14.769531 -9.890625 13.847656 -9.890625 C 12.910156 -9.890625 12.132812 -9.574219 11.507812 -8.9375 C 10.886719 -8.300781 10.574219 -7.523438 10.574219 -6.601562 Z M 10.574219 -0.144531 "/></g></g></g><g fill="#2f5597" fill-opacity="1"><g transform="translate(284.489127, 412.953988)"><g><path d="M 10.539062 -6.636719 C 10.203125 -8.804688 8.847656 -9.890625 6.472656 -9.890625 C 5.285156 -9.890625 4.265625 -9.488281 3.40625 -8.6875 C 2.550781 -7.882812 2.128906 -6.90625 2.140625 -5.753906 C 2.152344 -4.628906 2.554688 -3.667969 3.355469 -2.878906 C 4.152344 -2.085938 5.113281 -1.691406 6.238281 -1.691406 C 7.199219 -1.691406 8.109375 -1.871094 8.972656 -2.230469 C 9.980469 -2.660156 10.621094 -3.242188 10.898438 -3.972656 L 12.101562 -2.804688 C 11.609375 -1.882812 10.824219 -1.175781 9.746094 -0.683594 C 8.761719 -0.214844 7.671875 0.0195312 6.472656 0.0195312 C 4.796875 0.0195312 3.359375 -0.535156 2.167969 -1.644531 C 0.972656 -2.753906 0.378906 -4.125 0.378906 -5.753906 C 0.378906 -7.371094 0.976562 -8.746094 2.175781 -9.871094 C 3.375 -11 4.808594 -11.5625 6.472656 -11.5625 C 8.273438 -11.550781 9.679688 -11.144531 10.699219 -10.339844 C 11.910156 -9.394531 12.515625 -7.925781 12.515625 -5.933594 C 12.515625 -5.695312 12.511719 -5.441406 12.5 -5.179688 L 3.867188 -5.179688 L 3.867188 -6.617188 L 10.519531 -6.617188 Z M 10.539062 -6.636719 "/></g></g></g><g fill="#2f5597" fill-opacity="1"><g transform="translate(297.454708, 412.953988)"><g><path d="M 0.539062 -14.367188 L 2.390625 -14.367188 L 2.390625 -0.144531 L 0.539062 -0.144531 Z M 0.539062 -14.367188 "/></g></g></g><g fill="#2f5597" fill-opacity="1"><g transform="translate(300.547747, 412.953988)"><g><path d="M 0.324219 -11.382812 L 2.480469 -11.382812 L 4.910156 -7.660156 L 7.335938 -11.382812 L 9.511719 -11.382812 L 5.84375 -5.773438 L 5.84375 -0.144531 L 3.992188 -0.144531 L 3.992188 -5.773438 Z M 0.324219 -11.382812 "/></g></g></g></svg>