<svg xmlns="http://www.w3.org/2000/svg" xmlns:xlink="http://www.w3.org/1999/xlink" width="698" zoomAndPan="magnify" viewBox="0 0 523.5 523.499968" height="698" preserveAspectRatio="xMidYMid meet" version="1.0"><defs><g/><clipPath id="c62c0fff7e"><path d="M 78.328125 78.328125 L 428 78.328125 L 428 428.246094 L 78.328125 428.246094 Z M 78.328125 78.328125 " clip-rule="nonzero"/></clipPath></defs><path fill="#ffffff" d="M 0 0 L 523 0 L 523 523 L 0 523 Z M 0 0 " fill-opacity="1" fill-rule="nonzero"/><path fill="#ffffff" d="M 0 0 L 523 0 L 523 523 L 0 523 Z M 0 0 " fill-opacity="1" fill-rule="nonzero"/><g clip-path="url(#c62c0fff7e)"><path fill="#2f5597" d="M 255.542969 133.089844 C 288.46875 133.089844 315.160156 159.78125 315.160156 192.710938 C 315.160156 208.742188 308.832031 223.292969 298.535156 234.007812 C 297.671875 233.667969 296.792969 233.308594 295.894531 232.941406 C 284.113281 228.125 270.410156 222.527344 251.503906 233.996094 C 237.839844 226.1875 226.667969 228.804688 216.476562 231.191406 C 214.617188 231.625 212.800781 232.050781 211.035156 232.371094 C 201.636719 221.835938 195.921875 207.941406 195.921875 192.710938 C 195.921875 159.78125 222.613281 133.089844 255.542969 133.089844 Z M 346.089844 388.132812 C 348.644531 386.371094 352.144531 387.011719 353.90625 389.5625 C 355.667969 392.117188 355.027344 395.617188 352.476562 397.382812 C 323.5625 417.355469 289.734375 427.617188 255.765625 428.101562 C 227.171875 428.507812 198.472656 421.980469 172.523438 408.476562 L 176.1875 415.03125 C 177.695312 417.742188 176.71875 421.164062 174.007812 422.671875 C 171.292969 424.179688 167.875 423.203125 166.367188 420.492188 L 152.398438 395.488281 C 150.238281 391.601562 153.246094 386.929688 157.578125 387.144531 L 186.011719 387.546875 C 189.113281 387.582031 191.597656 390.125 191.558594 393.226562 C 191.523438 396.328125 188.980469 398.8125 185.878906 398.777344 L 178.023438 398.667969 C 202.222656 411.191406 228.96875 417.25 255.632812 416.871094 C 287.398438 416.417969 319.039062 406.820312 346.089844 388.132812 Z M 387.917969 160.71875 C 386.152344 158.164062 386.792969 154.664062 389.347656 152.898438 C 391.902344 151.136719 395.402344 151.777344 397.164062 154.332031 C 416.804688 182.769531 427.074219 215.984375 427.859375 249.417969 C 428.539062 278.308594 422.144531 307.355469 408.613281 333.625 L 414.46875 330.210938 C 417.15625 328.65625 420.597656 329.574219 422.152344 332.261719 C 423.710938 334.949219 422.792969 338.390625 420.105469 339.945312 L 395.359375 354.367188 C 391.46875 356.621094 386.691406 353.585938 386.925781 349.207031 L 386.8125 320.878906 C 386.800781 317.777344 389.304688 315.253906 392.40625 315.242188 C 395.507812 315.230469 398.03125 317.734375 398.042969 320.835938 L 398.078125 329.492188 C 411.113281 304.636719 417.273438 277.078125 416.628906 249.679688 C 415.894531 218.394531 406.289062 187.320312 387.917969 160.71875 Z M 160.5 118.890625 C 157.949219 120.652344 154.449219 120.011719 152.683594 117.457031 C 150.921875 114.90625 151.5625 111.40625 154.113281 109.640625 C 182.796875 89.832031 216.335938 79.5625 250.050781 78.929688 C 278.574219 78.394531 307.230469 84.769531 333.191406 98.097656 L 329.867188 92.46875 C 328.285156 89.792969 329.171875 86.34375 331.847656 84.761719 C 334.523438 83.183594 337.976562 84.070312 339.554688 86.746094 L 354.125 111.402344 C 356.429688 115.300781 353.386719 120.128906 348.976562 119.882812 L 320.6875 120.171875 C 317.585938 120.195312 315.050781 117.699219 315.027344 114.597656 C 315.003906 111.496094 317.496094 108.964844 320.597656 108.941406 L 329.53125 108.847656 C 304.859375 95.863281 277.488281 89.648438 250.226562 90.160156 C 218.699219 90.753906 187.335938 100.359375 160.5 118.890625 Z M 118.671875 346.304688 C 120.4375 348.859375 119.796875 352.359375 117.242188 354.121094 C 114.6875 355.886719 111.1875 355.246094 109.425781 352.691406 C 89.429688 323.746094 79.167969 289.875 78.703125 255.875 C 78.3125 227.171875 84.90625 198.371094 98.53125 172.359375 L 91.578125 176.140625 C 88.851562 177.625 85.441406 176.621094 83.957031 173.894531 C 82.472656 171.171875 83.480469 167.761719 86.203125 166.277344 L 111.363281 152.59375 C 115.222656 150.492188 119.828125 153.449219 119.664062 157.734375 L 118.9375 186.289062 C 118.863281 189.390625 116.289062 191.84375 113.1875 191.773438 C 110.089844 191.699219 107.632812 189.125 107.707031 186.023438 L 107.890625 178.726562 C 95.550781 202.765625 89.574219 229.296875 89.9375 255.742188 C 90.367188 287.546875 99.96875 319.226562 118.671875 346.304688 Z M 275.976562 369.648438 C 279.289062 363.867188 273.753906 360.835938 269.414062 358.382812 C 268.621094 362.359375 265.914062 366.566406 263.992188 370.164062 C 268.121094 372.539062 272.882812 375.015625 275.976562 369.648438 Z M 328.578125 222.066406 C 339.089844 249.183594 349.601562 276.300781 360.113281 303.417969 C 360.511719 304.441406 361.753906 304.980469 362.773438 304.582031 L 378.433594 298.511719 C 379.457031 298.117188 379.992188 296.875 379.597656 295.855469 L 348.058594 214.503906 C 347.863281 213.996094 347.460938 213.609375 346.972656 213.394531 C 346.480469 213.175781 345.917969 213.140625 345.402344 213.339844 L 329.742188 219.410156 C 328.71875 219.808594 328.183594 221.050781 328.578125 222.066406 Z M 346.492188 225.90625 C 346.492188 228.789062 344.15625 231.125 341.273438 231.125 C 338.390625 231.125 336.054688 228.789062 336.054688 225.90625 C 336.054688 223.027344 338.390625 220.6875 341.273438 220.6875 C 344.15625 220.6875 346.492188 223.027344 346.492188 225.90625 Z M 146.132812 297.339844 L 181.40625 217.535156 C 181.859375 216.503906 181.410156 215.296875 180.375 214.839844 L 164.863281 207.992188 C 163.914062 207.65625 162.863281 208.050781 162.386719 208.9375 L 126.988281 289.035156 C 126.652344 289.980469 127.046875 291.035156 127.933594 291.511719 L 143.4375 298.367188 C 144.46875 298.824219 145.675781 298.375 146.132812 297.339844 Z M 168.316406 225.996094 C 165.4375 225.863281 163.210938 223.421875 163.34375 220.542969 C 163.476562 217.664062 165.921875 215.4375 168.800781 215.570312 C 171.679688 215.703125 173.90625 218.148438 173.769531 221.027344 C 173.636719 223.90625 171.195312 226.132812 168.316406 225.996094 Z M 344.652344 294.628906 L 333.253906 299.382812 C 332.0625 298.117188 330.660156 297 329.058594 296.089844 L 287.40625 272.347656 C 276.109375 265.910156 264.566406 270.582031 252.546875 275.449219 C 240.65625 280.261719 228.164062 285.320312 217.390625 275.15625 C 221.722656 272.464844 225.90625 269.617188 229.921875 266.605469 C 238.96875 259.8125 245.957031 251.902344 254.9375 245.164062 C 270.414062 234.648438 281.878906 239.332031 291.667969 243.335938 C 300.574219 246.976562 308.429688 250.1875 317.542969 245.449219 L 324.199219 241.863281 Z M 227.417969 363.390625 L 237.167969 344.648438 C 237.632812 341.816406 236.253906 338.890625 233.703125 337.53125 C 231.175781 336.179688 227.972656 336.625 225.878906 338.566406 L 215.359375 358.929688 C 215.273438 361.515625 216.621094 363.933594 218.914062 365.160156 C 221.769531 366.6875 225.402344 365.921875 227.417969 363.390625 Z M 247.132812 349.910156 C 249.230469 347.984375 252.421875 347.542969 254.945312 348.890625 C 258.207031 350.632812 259.453125 354.839844 257.71875 358.078125 L 250.386719 371.789062 C 248.640625 375.054688 244.453125 376.304688 241.199219 374.5625 C 238.855469 373.308594 237.488281 370.757812 237.660156 368.117188 Z M 215.921875 333.328125 C 212.296875 340.351562 208.042969 347.863281 204.753906 354.953125 C 202.894531 358.078125 198.910156 359.226562 195.691406 357.507812 C 192.410156 355.753906 191.164062 351.597656 192.917969 348.320312 C 196.835938 340.992188 201.085938 333.886719 205.246094 326.683594 C 207.347656 325.160156 210.167969 324.945312 212.464844 326.171875 C 215.027344 327.539062 216.40625 330.484375 215.921875 333.328125 Z M 185.902344 337.679688 L 195.863281 320.441406 C 197.148438 317.269531 195.8125 313.519531 192.785156 311.902344 C 189.503906 310.152344 185.351562 311.394531 183.597656 314.679688 C 181.046875 319.445312 178.5 324.210938 175.949219 328.976562 C 174.195312 332.253906 175.441406 336.410156 178.726562 338.164062 C 180.976562 339.367188 183.828125 339.148438 185.902344 337.679688 Z M 162.183594 288.882812 L 185 237.257812 L 193.511719 241.183594 C 202.335938 246.066406 210.335938 244.195312 219.03125 242.15625 C 225.785156 240.578125 233.078125 238.871094 241.171875 241.660156 C 234.976562 247.128906 230.015625 252.492188 223.179688 257.621094 C 218.363281 261.238281 213.046875 264.71875 207.308594 268.070312 C 203.625 270.222656 202.691406 275.140625 205.304688 278.507812 C 221.984375 299.96875 239.84375 292.742188 256.777344 285.886719 C 266.226562 282.0625 275.300781 278.390625 281.859375 282.125 L 323.507812 305.867188 C 326.574219 307.613281 327.808594 311.460938 326.125 314.578125 C 324.367188 317.625 320.566406 318.964844 317.429688 317.171875 C 307.871094 311.816406 298.316406 306.457031 288.804688 301.015625 C 286.105469 299.46875 282.664062 300.40625 281.121094 303.105469 C 279.574219 305.808594 280.511719 309.25 283.214844 310.792969 C 292.75 316.25 302.335938 321.621094 311.925781 326.992188 C 315.003906 328.726562 316.210938 332.605469 314.492188 335.730469 C 312.851562 338.714844 308.828125 340.019531 305.820312 338.273438 L 268.09375 317.046875 C 265.382812 315.527344 261.949219 316.492188 260.429688 319.203125 C 258.910156 321.917969 259.875 325.347656 262.589844 326.867188 C 272.855469 332.644531 283.09375 338.515625 293.359375 344.269531 C 296.472656 346.023438 297.648438 349.914062 295.90625 353.058594 C 294.203125 356.09375 290.316406 357.246094 287.257812 355.5625 L 265.523438 343.257812 C 261.148438 338.0625 254.050781 335.742188 247.4375 337.375 C 244.316406 328.746094 235.125 323.8125 226.199219 326.015625 C 223.363281 318.171875 215.515625 313.304688 207.214844 314.269531 C 204.546875 301.320312 189.089844 295.527344 178.558594 303.640625 C 177.433594 298.832031 175.5 294.414062 169.742188 292.175781 C 167.222656 291.199219 164.667969 289.980469 162.183594 288.882812 Z M 247.710938 197.96875 L 234.390625 184.648438 C 230.9375 181.195312 225.335938 181.195312 221.882812 184.648438 C 218.429688 188.097656 218.429688 193.699219 221.882812 197.152344 L 241.476562 216.746094 C 244.929688 220.199219 250.53125 220.199219 253.984375 216.746094 C 265.792969 204.933594 277.46875 192.992188 289.222656 181.128906 C 292.652344 177.667969 292.640625 172.085938 289.1875 168.652344 C 285.730469 165.214844 280.132812 165.226562 276.699219 168.691406 Z M 247.710938 197.96875 " fill-opacity="1" fill-rule="evenodd"/></g><g fill="#2f5597" fill-opacity="1"><g transform="translate(217.183341, 454.505295)"><g><path d="M 10.046875 -0.160156 L 10.046875 -10.867188 L 7.269531 -10.867188 C 5.992188 -10.867188 4.90625 -10.441406 4.015625 -9.589844 C 3.121094 -8.734375 2.675781 -7.675781 2.675781 -6.414062 C 2.675781 -5.148438 3.117188 -4.089844 3.996094 -3.246094 C 4.875 -2.402344 5.945312 -1.976562 7.210938 -1.976562 C 7.96875 -1.976562 8.667969 -2.15625 9.308594 -2.515625 L 9.308594 -0.5 C 8.46875 -0.21875 7.738281 -0.078125 7.113281 -0.078125 C 5.3125 -0.078125 3.777344 -0.6875 2.507812 -1.90625 C 1.234375 -3.125 0.597656 -4.628906 0.597656 -6.414062 C 0.597656 -7.425781 0.832031 -8.390625 1.296875 -9.308594 C 1.859375 -10.375 2.644531 -11.199219 3.65625 -11.785156 C 4.667969 -12.371094 5.785156 -12.664062 7.011719 -12.664062 L 11.984375 -12.664062 L 11.984375 -0.160156 Z M 10.046875 -0.160156 "/></g></g></g><g fill="#2f5597" fill-opacity="1"><g transform="translate(230.026004, 454.505295)"><g><path d="M 5.652344 -10.988281 C 4.628906 -10.988281 3.777344 -10.628906 3.105469 -9.917969 C 2.433594 -9.207031 2.097656 -8.324219 2.097656 -7.269531 L 2.097656 -0.160156 L 0.0390625 -0.160156 L 0.0390625 -12.664062 L 2.097656 -12.664062 L 2.097656 -11.367188 C 2.761719 -11.886719 3.34375 -12.246094 3.835938 -12.445312 C 4.433594 -12.710938 5.101562 -12.84375 5.832031 -12.84375 C 7.523438 -12.84375 8.910156 -12.179688 9.988281 -10.847656 L 8.230469 -9.886719 C 7.550781 -10.621094 6.691406 -10.988281 5.652344 -10.988281 Z M 5.652344 -10.988281 "/></g></g></g><g fill="#2f5597" fill-opacity="1"><g transform="translate(239.413335, 454.505295)"><g><path d="M 11.746094 -0.160156 L 9.769531 -0.160156 L 9.769531 -7.269531 C 9.769531 -8.308594 9.433594 -9.1875 8.769531 -9.90625 C 8.105469 -10.628906 7.25 -10.988281 6.210938 -10.988281 C 5.171875 -10.988281 4.320312 -10.628906 3.65625 -9.917969 C 2.988281 -9.207031 2.65625 -8.324219 2.65625 -7.269531 L 2.65625 -0.160156 L 0.597656 -0.160156 L 0.597656 -12.664062 L 2.65625 -12.664062 L 2.65625 -11.367188 C 3.324219 -11.886719 3.902344 -12.246094 4.394531 -12.445312 C 4.992188 -12.710938 5.660156 -12.84375 6.390625 -12.84375 C 7.324219 -12.84375 8.183594 -12.621094 8.96875 -12.175781 C 9.753906 -11.730469 10.386719 -11.132812 10.867188 -10.386719 C 11.414062 -11.121094 12.109375 -11.710938 12.953125 -12.164062 C 13.800781 -12.617188 14.664062 -12.84375 15.542969 -12.84375 C 17.046875 -12.84375 18.316406 -12.308594 19.355469 -11.238281 C 20.394531 -10.164062 20.914062 -8.875 20.914062 -7.371094 L 20.914062 -0.160156 L 18.917969 -0.160156 L 18.917969 -7.269531 C 18.917969 -8.308594 18.585938 -9.1875 17.917969 -9.90625 C 17.253906 -10.628906 16.40625 -10.988281 15.382812 -10.988281 C 14.34375 -10.988281 13.476562 -10.632812 12.785156 -9.929688 C 12.09375 -9.222656 11.746094 -8.355469 11.746094 -7.332031 Z M 11.746094 -0.160156 "/></g></g></g><g fill="#2f5597" fill-opacity="1"><g transform="translate(261.024153, 454.505295)"><g><path d="M 11.707031 -7.371094 C 11.332031 -9.78125 9.828125 -10.988281 7.191406 -10.988281 C 5.871094 -10.988281 4.738281 -10.539062 3.785156 -9.648438 C 2.832031 -8.757812 2.363281 -7.671875 2.378906 -6.390625 C 2.390625 -5.140625 2.839844 -4.074219 3.726562 -3.195312 C 4.609375 -2.316406 5.679688 -1.878906 6.933594 -1.878906 C 7.996094 -1.878906 9.007812 -2.078125 9.96875 -2.476562 C 11.085938 -2.957031 11.800781 -3.601562 12.105469 -4.414062 L 13.445312 -3.117188 C 12.898438 -2.089844 12.027344 -1.304688 10.828125 -0.757812 C 9.734375 -0.238281 8.523438 0.0195312 7.191406 0.0195312 C 5.328125 0.0195312 3.730469 -0.597656 2.40625 -1.828125 C 1.082031 -3.058594 0.417969 -4.582031 0.417969 -6.390625 C 0.417969 -8.191406 1.085938 -9.714844 2.417969 -10.964844 C 3.75 -12.21875 5.339844 -12.84375 7.191406 -12.84375 C 9.1875 -12.832031 10.753906 -12.378906 11.886719 -11.484375 C 13.230469 -10.433594 13.902344 -8.800781 13.902344 -6.59375 C 13.902344 -6.324219 13.898438 -6.046875 13.882812 -5.753906 L 4.292969 -5.753906 L 4.292969 -7.351562 L 11.6875 -7.351562 Z M 11.707031 -7.371094 "/></g></g></g><g fill="#2f5597" fill-opacity="1"><g transform="translate(275.424712, 454.505295)"><g><path d="M 0.597656 -15.960938 L 2.65625 -15.960938 L 2.65625 -0.160156 L 0.597656 -0.160156 Z M 0.597656 -15.960938 "/></g></g></g><g fill="#2f5597" fill-opacity="1"><g transform="translate(278.860071, 454.505295)"><g><path d="M 0.359375 -12.644531 L 2.757812 -12.644531 L 5.453125 -8.507812 L 8.148438 -12.644531 L 10.566406 -12.644531 L 6.492188 -6.414062 L 6.492188 -0.160156 L 4.433594 -0.160156 L 4.433594 -6.414062 Z M 0.359375 -12.644531 "/></g></g></g></svg>